<svg id="line" viewBox="0 0 64 64" xmlns="http://www.w3.org/2000/svg"><path d="m42.4 47.48c4 0 7.26-3.26 7.26-7.26s-3.26-7.26-7.26-7.26-7.26 3.26-7.26 7.26 3.26 7.26 7.26 7.26zm0-12.52c2.9 0 5.26 2.36 5.26 5.26s-2.36 5.26-5.26 5.26-5.26-2.36-5.26-5.26 2.36-5.26 5.26-5.26zm-16.56-4.54c2.64 0 4.79-2.15 4.79-4.79s-2.15-4.79-4.79-4.79-4.79 2.15-4.79 4.79 2.15 4.79 4.79 4.79zm0-7.59c1.54 0 2.79 1.25 2.79 2.79s-1.25 2.79-2.79 2.79-2.79-1.25-2.79-2.79 1.25-2.79 2.79-2.79zm-20.04 25.6c2.08 0 3.78-1.7 3.78-3.78 0-1.74-1.18-3.19-2.78-3.63v-12c0-.82.67-1.5 1.5-1.5h6.01c-.25.31-.45.66-.55 1.06-.2.73-.09 1.5.29 2.15l.98 1.7c-1.45.43-2.52 1.76-2.52 3.35v11.98c-1.6.44-2.78 1.89-2.78 3.63 0 2.09 1.7 3.78 3.78 3.78s3.78-1.7 3.78-3.78c0-1.74-1.18-3.19-2.78-3.63v-11.98c0-.83.68-1.51 1.51-1.51h.47c.86.52 1.97.58 2.92.03.27-.15.59-.15.84 0 .12.07.24.13.35.2v9.06c-1.6.44-2.78 1.89-2.78 3.63 0 2.09 1.7 3.78 3.78 3.78s3.78-1.7 3.78-3.78c0-1.74-1.18-3.19-2.78-3.63v-5.8c.48.39 1.09.63 1.76.63h2.96c.46 0 .91-.12 1.31-.33.18.16.37.3.59.43.41.24.65.7.63 1.21 0 .17-.01.35-.01.52s0 .35.01.52c.02.5-.22.97-.68 1.23-.75.44-1.29 1.14-1.52 1.98s-.11 1.72.33 2.48l1.83 3.17c.44.75 1.14 1.29 1.98 1.52s1.72.11 2.53-.36c.4-.23.9-.23 1.27 0 .34.22.7.43 1.07.61.39.2.65.63.65 1.17 0 1.8 1.46 3.26 3.26 3.26h3.66c1.8 0 3.26-1.46 3.26-3.33 0-.47.25-.9.64-1.1.37-.19.72-.39 1.07-.61.37-.24.87-.24 1.32.03 1.56.9 3.56.36 4.46-1.19l1.83-3.17c.9-1.56.36-3.56-1.25-4.49-.41-.24-.65-.7-.63-1.2 0-.17.01-.35.01-.52s0-.35-.01-.52c-.02-.51.22-.97.68-1.23 1.56-.9 2.09-2.9 1.19-4.46l-.6-1.04c1.68-.25 2.98-1.69 2.98-3.44v-7.18c1.6-.44 2.78-1.89 2.78-3.63 0-2.09-1.7-3.78-3.78-3.78s-3.78 1.7-3.78 3.78c0 1.74 1.18 3.19 2.78 3.63v7.18c0 .82-.67 1.5-1.5 1.5h-.61l-.11-.19c-.72-1.24-2.13-1.82-3.49-1.54v-13.7c1.6-.44 2.78-1.89 2.78-3.63 0-2.09-1.7-3.78-3.78-3.78s-3.78 1.7-3.78 3.78c0 1.74 1.18 3.19 2.78 3.63v14.2c-.1-.03-.2-.07-.29-.13-.34-.22-.7-.43-1.07-.61-.39-.2-.65-.63-.65-1.17 0-1.8-1.46-3.26-3.26-3.26h-.83v-4.83c1.6-.44 2.78-1.89 2.78-3.63 0-2.09-1.7-3.78-3.78-3.78s-3.78 1.7-3.78 3.78c0 1.74 1.18 3.19 2.78 3.63v4.83h-.83c-1.64 0-2.99 1.22-3.22 2.85-.19-.22-.41-.42-.68-.57-.03-.03-.07-.05-.11-.07-.27-.15-.43-.46-.41-.76.01-.15.01-.3.01-.45 0-.16 0-.31-.01-.43-.01-.34.14-.64.41-.79.02-.01.06-.04.09-.06.63-.38 1.08-.97 1.27-1.68.2-.73.09-1.5-.29-2.15l-1.47-2.56c-.78-1.34-2.51-1.8-3.86-1.03-.02.01-.05.03-.07.05-.26.13-.57.13-.79-.02-.28-.18-.59-.36-.88-.5-.26-.13-.42-.41-.42-.77 0-1.56-1.27-2.83-2.82-2.83h-2.96c-1.56 0-2.83 1.27-2.83 2.88 0 .31-.16.59-.41.71-.3.15-.59.32-.89.51-.23.15-.55.15-.86-.03-1.34-.77-3.07-.3-3.86 1.03l-1.47 2.56c-.38.66-.49 1.42-.29 2.15s.67 1.34 1.26 1.67c.03.02.07.05.1.07.27.15.43.46.41.76v.36h-7.23c-1.93 0-3.5 1.57-3.5 3.5v12c-1.6.44-2.78 1.89-2.78 3.63 0 2.08 1.7 3.78 3.78 3.78zm9.49 2.96c0 .98-.8 1.78-1.78 1.78s-1.78-.8-1.78-1.78.8-1.78 1.78-1.78 1.78.8 1.78 1.78zm41.13-32.68c0-.98.8-1.78 1.78-1.78s1.78.8 1.78 1.78-.8 1.78-1.78 1.78c-.98 0-1.78-.8-1.78-1.78zm-33.03 28.48c0 .98-.8 1.78-1.78 1.78s-1.78-.8-1.78-1.78.8-1.78 1.78-1.78 1.78.8 1.78 1.78zm25.32-35.22c0-.98.8-1.78 1.78-1.78s1.78.8 1.78 1.78-.8 1.78-1.78 1.78c-.98 0-1.78-.8-1.78-1.78zm-8.1 4.2c0-.98.8-1.78 1.78-1.78s1.78.8 1.78 1.78-.8 1.78-1.78 1.78-1.78-.8-1.78-1.78zm-3.95 15.18c.29-.19.59-.36.9-.52 1.07-.55 1.74-1.65 1.74-2.95 0-.7.57-1.26 1.26-1.26h3.66c.7 0 1.26.57 1.26 1.33 0 1.23.67 2.34 1.74 2.88.31.16.61.33.9.52 1 .65 2.29.67 3.4.02.6-.35 1.38-.14 1.73.46l1.83 3.17c.35.6.14 1.38-.51 1.75-1.06.62-1.68 1.78-1.62 3.04 0 .14.01.28.01.42s0 .28-.01.42c-.06 1.26.56 2.42 1.68 3.06.6.35.81 1.12.46 1.73l-1.83 3.17c-.35.6-1.12.81-1.78.43-1.06-.61-2.34-.59-3.35.05-.29.18-.59.36-.9.51-1.07.55-1.74 1.65-1.74 2.95 0 .7-.57 1.26-1.26 1.26h-3.66c-.7 0-1.26-.57-1.26-1.33 0-1.23-.67-2.33-1.74-2.88-.31-.16-.61-.33-.9-.51-.51-.33-1.09-.5-1.69-.5s-1.17.16-1.71.47c-.6.35-1.38.14-1.72-.46l-1.83-3.17c-.17-.29-.21-.63-.13-.96.09-.33.3-.6.64-.8 1.06-.61 1.69-1.78 1.62-3.04 0-.14-.01-.28-.01-.42s0-.28.01-.42c.06-1.26-.56-2.42-1.68-3.06-.29-.17-.5-.44-.59-.77s-.04-.67.13-.96l1.83-3.17c.17-.29.44-.5.77-.59s.67-.04 1.01.16c1.06.61 2.34.59 3.35-.05zm-19.15-5.72c0-.11 0-.21 0-.34.04-1.09-.5-2.09-1.35-2.57-.03-.02-.07-.05-.1-.07-.19-.11-.33-.28-.38-.49-.06-.21-.03-.44.09-.63l1.47-2.55c.23-.4.73-.53 1.19-.27.93.53 2.04.5 2.89-.05.23-.15.46-.28.71-.41.93-.47 1.51-1.43 1.51-2.55 0-.46.37-.83.83-.83h2.96c.45 0 .82.37.82.88 0 1.06.58 2.02 1.52 2.5.24.12.47.25.7.4.87.56 1.98.58 2.9.06.02-.01.05-.03.08-.05.39-.2.88-.06 1.1.31l1.48 2.57c.11.19.14.42.08.63s-.19.39-.38.49c-.02.01-.06.04-.09.06-.89.53-1.41 1.52-1.36 2.62v.31.33c-.05 1.09.5 2.09 1.35 2.57.03.03.07.05.11.07.3.17.44.5.39.83-.14.08-.28.15-.41.24-.37.23-.87.24-1.33-.03-.75-.44-1.63-.55-2.48-.33s-1.55.77-1.98 1.52l-1.83 3.17c-.41.71-.52 1.52-.35 2.32-.09.04-.19.07-.3.07h-2.96c-.46 0-.83-.37-.83-.88 0-.92-.45-1.74-1.17-2.26-.12-.15-.28-.25-.47-.31-.19-.1-.39-.21-.56-.32-.86-.56-1.97-.59-2.95-.03-.4.23-.9.1-1.13-.29l-1.48-2.57c-.11-.19-.14-.42-.09-.63.06-.21.19-.39.38-.5.02-.01.05-.03.08-.06.89-.53 1.42-1.52 1.37-2.62 0-.1 0-.2 0-.3zm-11.71 17.23c.98 0 1.78.8 1.78 1.78s-.8 1.78-1.78 1.78-1.78-.8-1.78-1.78.8-1.78 1.78-1.78z"/></svg>