<svg id="Capa_1" enable-background="new 0 0 510 510" height="512" viewBox="0 0 510 510" width="512" xmlns="http://www.w3.org/2000/svg"><g><path d="m254.606 82.106-21.212-21.212-41.894 41.893-19.394-19.393-21.212 21.212 40.606 40.607z"/><path d="m285 60h75v30h-75z"/><path d="m300 120h60v30h-60z"/><path d="m270 180h90v30h-90z"/><path d="m150 180h90v30h-90z"/><path d="m150 240h90v30h-90z"/><path d="m270 240h90v30h-90z"/><path d="m510 345h-48.883c-10.408-14.895-24.575-26.977-41.117-34.855v-310.145h-330v310.145c-16.542 7.878-30.709 19.96-41.117 34.855h-48.883v30h34.374c-2.841 9.51-4.374 19.578-4.374 30 0 17.246 4.181 33.533 11.58 47.904-24.098 7.794-41.58 30.437-41.58 57.096h30c0-16.542 13.458-30 30-30h1.596c18.945 18.547 44.86 30 73.404 30 41.803 0 77.973-24.557 94.855-60h50.289c16.883 35.443 53.053 60 94.855 60 28.543 0 54.458-11.453 73.404-30h1.597c16.542 0 30 13.458 30 30h30c0-26.659-17.482-49.302-41.58-57.096 7.399-14.371 11.58-30.658 11.58-47.904 0-10.422-1.533-20.49-4.374-30h34.374zm-390-315h270v271.076c-4.9-.704-9.908-1.076-15-1.076-34.051 0-64.363 16.297-83.56 41.496-.992-.693-2.001-1.368-3.038-2.008-10.049-6.207-21.6-9.488-33.402-9.488-13.164 0-25.873 4.129-36.431 11.508-19.196-25.206-49.512-41.508-83.569-41.508-5.093 0-10.1.372-15 1.076zm15 450c-41.355 0-75-33.645-75-75s33.645-75 75-75 75 33.645 75 75-33.645 75-75 75zm103.924-60c.704-4.9 1.076-9.907 1.076-15 0-13.016-2.387-25.482-6.735-36.994 6.005-5.102 13.71-8.006 21.735-8.006 6.229 0 12.328 1.733 17.646 5.018 1.447.893 2.812 1.889 4.094 2.978-4.351 11.514-6.74 23.984-6.74 37.004 0 5.093.372 10.1 1.076 15zm136.076 60c-41.355 0-75-33.645-75-75s33.645-75 75-75 75 33.645 75 75-33.645 75-75 75z"/></g></svg>