<svg id="Layer_1" enable-background="new 0 0 124 124" height="512" viewBox="0 0 124 124" width="512" xmlns="http://www.w3.org/2000/svg"><g fill="#8b9ca6"><path d="m45.929 84.303h-15.848v-10.483c0-.552-.447-1-1-1s-1 .448-1 1v10.483h-16.485c-.553 0-1 .448-1 1v11.483c0 .552.447 1 1 1s1-.448 1-1v-10.483h32.333v10.483c0 .552.447 1 1 1s1-.448 1-1v-11.483c0-.553-.448-1-1-1z"/><path d="m112.521 84.303h-15.847v-10.483c0-.552-.447-1-1-1s-1 .448-1 1v10.483h-16.486c-.553 0-1 .448-1 1v11.483c0 .552.447 1 1 1s1-.448 1-1v-10.483h32.333v10.483c0 .552.447 1 1 1s1-.448 1-1v-11.483c0-.553-.447-1-1-1z"/><path d="m95.346 45.324h-32.137v-12.018c0-.552-.447-1-1-1s-1 .448-1 1v12.018h-32.137c-.553 0-1 .448-1 1v13.799c0 .552.447 1 1 1s1-.448 1-1v-12.799h64.273v12.799c0 .552.447 1 1 1s1-.448 1-1v-13.799c.001-.553-.447-1-.999-1z"/></g><path d="m83.75 59.629h23.191v15.109h-23.191z" fill="#dd44ac"/><path d="m92.191 64.571-4.637 2.015v1.194l4.637 2.015.442-1.342-3.009-1.27 3.009-1.27z" fill="#fff"/><path d="m92.846 72.271h1.545l3.453-10.175h-1.525z" fill="#fff"/><path d="m98.5 64.571-.442 1.342 3.01 1.27-3.01 1.27.442 1.342 4.637-2.015v-1.194z" fill="#fff"/><path d="m46.415 13h31.587v20.146h-31.587z" fill="#1a6cf3"/><path d="m58.164 19.78-5.946 2.54v1.505l5.946 2.539.567-1.691-3.858-1.6 3.858-1.601z" fill="#fff"/><path d="m59.004 29.485h1.981l4.428-12.824h-1.956z" fill="#fff"/><path d="m66.254 19.78-.567 1.692 3.859 1.601-3.859 1.599.567 1.692 5.945-2.539v-1.505z" fill="#fff"/><path d="m17.494 59.629h23.191v15.109h-23.191z" fill="#ff9201"/><path d="m25.935 64.571-4.637 2.015v1.194l4.637 2.015.443-1.342-3.01-1.27 3.01-1.27z" fill="#fff"/><path d="m26.59 72.271h1.545l3.453-10.175h-1.525z" fill="#fff"/><path d="m32.244 64.571-.442 1.342 3.01 1.27-3.01 1.27.442 1.342 4.637-2.015v-1.194z" fill="#fff"/><path d="m0 95.891h23.191v15.109h-23.191z" fill="#ffca00"/><path d="m8.441 100.833-4.637 2.015v1.194l4.637 2.015.442-1.342-3.009-1.27 3.009-1.27z" fill="#fff"/><path d="m9.096 108.533h1.545l3.453-10.175h-1.525z" fill="#fff"/><path d="m14.75 100.833-.442 1.342 3.01 1.27-3.01 1.27.442 1.342 4.637-2.015v-1.194z" fill="#fff"/><path d="m34.333 95.891h23.191v15.109h-23.191z" fill="#ffca00"/><path d="m42.774 100.833-4.637 2.015v1.194l4.637 2.015.443-1.342-3.01-1.27 3.01-1.27z" fill="#fff"/><path d="m43.429 108.533h1.545l3.453-10.175h-1.525z" fill="#fff"/><path d="m49.083 100.833-.442 1.342 3.01 1.27-3.01 1.27.442 1.342 4.637-2.015v-1.194z" fill="#fff"/><path d="m66.476 95.891h23.191v15.109h-23.191z" fill="#ff7bab"/><path d="m74.916 100.833-4.636 2.015v1.194l4.636 2.015.443-1.342-3.009-1.27 3.009-1.27z" fill="#fff"/><path d="m75.572 108.533h1.544l3.454-10.175h-1.525z" fill="#fff"/><path d="m81.226 100.833-.442 1.342 3.01 1.27-3.01 1.27.442 1.342 4.637-2.015v-1.194z" fill="#fff"/><path d="m100.809 95.891h23.191v15.109h-23.191z" fill="#ff7bab"/><path d="m109.25 100.833-4.637 2.015v1.194l4.637 2.015.442-1.342-3.009-1.27 3.009-1.27z" fill="#fff"/><path d="m109.905 108.533h1.545l3.453-10.175h-1.525z" fill="#fff"/><path d="m115.559 100.833-.442 1.342 3.01 1.27-3.01 1.27.442 1.342 4.637-2.015v-1.194z" fill="#fff"/></svg>