<svg id="Layer_1" viewBox="0 0 512 512" xmlns="http://www.w3.org/2000/svg" data-name="Layer 1"><path d="m496.01 499.38h-376.1c-4.41 0-7.99-3.58-7.99-7.99v-55.39c0-4.42 3.58-7.99 7.99-7.99s7.99 3.58 7.99 7.99v47.39h360.11v-385.26l-69.53-69.53h-272.55c-4.41 0-7.99-3.58-7.99-7.99s3.58-7.99 7.99-7.99h275.87c2.12 0 4.15.84 5.65 2.34l74.21 74.21c1.5 1.5 2.34 3.53 2.34 5.65v396.57c0 4.42-3.58 7.99-7.99 7.99zm-376.1-99.16c-4.41 0-7.99-3.58-7.99-7.99v-225.52c0-4.42 3.58-7.99 7.99-7.99s7.99 3.58 7.99 7.99v225.52c0 4.42-3.58 7.99-7.99 7.99z" fill="#2e3760"/><path d="m496.01 102.82h-74.21c-4.42 0-7.99-3.58-7.99-7.99v-74.22c0-4.42 3.58-7.99 7.99-7.99s7.99 3.58 7.99 7.99v66.22h66.22c4.42 0 7.99 3.58 7.99 7.99s-3.58 7.99-7.99 7.99z" fill="#2e3760"/><path d="m15.99 504c-1.38 0-2.76-.36-4-1.07-2.47-1.43-4-4.07-4-6.92v-43.8c0-2.86 1.52-5.5 4-6.92l180.81-104.4-44.93-77.84c-2.21-3.82-.9-8.71 2.93-10.92l32.83-18.96 110.55-63.81-5.44-9.43c-1.43-2.47-1.43-5.52 0-7.99s4.07-4 6.92-4h75.69c2.86 0 5.5 1.52 6.92 4 1.43 2.47 1.43 5.52 0 7.99l-37.84 65.53c-1.43 2.47-4.06 4-6.92 4-2.85 0-5.49-1.52-6.92-3.99l-5.47-9.45-103.6 59.82 44.93 77.86c2.21 3.82.9 8.71-2.93 10.92l-32.82 18.96-206.71 119.35c-1.24.71-2.62 1.07-4 1.07zm7.99-47.17v25.33l194.71-112.42 25.91-14.97-44.93-77.86c-2.21-3.82-.9-8.71 2.93-10.92l117.44-67.8c3.82-2.21 8.71-.9 10.92 2.92l2.54 4.38 24-41.57h-47.99l2.52 4.37c2.21 3.82.9 8.71-2.93 10.92l-117.47 67.8-25.9 14.97 44.93 77.83c1.06 1.84 1.35 4.02.8 6.07s-1.89 3.79-3.72 4.85z" fill="#ff695a"/><g fill="#2e3760"><path d="m458.9 499.38c-4.42 0-7.99-3.58-7.99-7.99v-232.01h-32v232.01c0 4.42-3.58 7.99-7.99 7.99s-7.99-3.58-7.99-7.99v-240.01c0-4.42 3.58-7.99 7.99-7.99h47.99c4.41 0 7.99 3.58 7.99 7.99v240.01c0 4.42-3.58 7.99-7.99 7.99z"/><path d="m380.3 499.38c-4.41 0-7.99-3.58-7.99-7.99v-155.79h-32v155.79c0 4.42-3.58 7.99-7.99 7.99s-7.99-3.58-7.99-7.99v-163.79c0-4.42 3.58-7.99 7.99-7.99h47.99c4.42 0 7.99 3.58 7.99 7.99v163.79c0 4.42-3.58 7.99-7.99 7.99z"/><path d="m301.72 499.38c-4.42 0-7.99-3.58-7.99-7.99v-74.18h-32.03v74.18c0 4.42-3.58 7.99-7.99 7.99s-7.99-3.58-7.99-7.99v-82.18c0-4.42 3.58-7.99 7.99-7.99h48.02c4.42 0 7.99 3.58 7.99 7.99v82.18c0 4.42-3.58 7.99-7.99 7.99z"/></g><path d="m119.91 174.7c-45.97 0-83.37-37.39-83.37-83.34s37.4-83.36 83.37-83.36 83.34 37.4 83.34 83.37-37.39 83.34-83.34 83.34zm0-150.72c-37.15 0-67.38 30.23-67.38 67.38s30.23 67.35 67.38 67.35 67.35-30.21 67.35-67.35-30.21-67.38-67.35-67.38z" fill="#ff695a"/><path d="m111.06 117.64c-2.12 0-4.15-.84-5.65-2.34l-18.91-18.91c-3.12-3.12-3.12-8.18 0-11.3s8.18-3.12 11.3 0l13.25 13.25 30.91-30.92c3.12-3.12 8.18-3.12 11.3 0s3.12 8.18 0 11.3l-36.57 36.57c-1.5 1.5-3.53 2.34-5.65 2.34z" fill="#ff695a"/></svg>