<?xml version="1.0" encoding="UTF-8"?>
<svg id="Layer_2" data-name="Layer 2" xmlns="http://www.w3.org/2000/svg" viewBox="0 0 1920 1080">
  <defs>
    <style>
      .cls-1 {
        fill: #6e7072;
      }

      .cls-1, .cls-2, .cls-3 {
        stroke-width: 0px;
      }

      .cls-2 {
        fill: #30333c;
      }

      .cls-3 {
        fill: #969796;
      }
    </style>
  </defs>
  <path class="cls-2" d="M1177.95,190.7l-114.66,94.45c-6.04,4.97-13.62,7.69-21.44,7.69h-318.35c-24.85,0-45,20.14-45,45v307.29c0,14.21,16.39,22.17,27.55,13.37l66.13-52.07,42.22-33.05v153.82l-42.22,33.25-31.4,24.72-158.89,132.64c-9.68,8.08-24.39,1.2-24.39-11.41V298.5c0-69.95,56.71-126.66,126.67-126.66h487.01c9.99,0,14.48,12.51,6.77,18.86Z"/>
  <path class="cls-3" d="M1357.85,145.47l-32.53,25.37-23.49,18.5-50.06,39.42-90.97,71.64-112.03,88.64v153.78l-55.35,43.58v198.77h-113.65c-10.72,0-21.12,3.73-29.4,10.55l-117.04,96.41c-5.74,4.73-2.39,14.04,5.04,14.04h436.8c69.95,0,126.66-56.71,126.66-126.67v-382.64c0-4.49,5.25-6.93,8.68-4.02l46.22,39.09c6.34,5.35,16.04.85,16.04-7.44V152.76c0-7.69-8.85-12.02-14.92-7.29ZM1180.83,740.17c0,24.85-20.14,45-45,45h-21.41v-294.23l66.41-52.3v301.53Z"/>
  <polygon class="cls-1" points="1048.77 389.04 1048.77 542.82 993.42 586.4 993.42 586.22 893.18 665.16 814.4 727.2 814.4 573.38 1048.77 389.04"/>
  <path class="cls-1" d="M972.16,342.37h-234.78c-4.8,0-8.68,3.89-8.68,8.68v186.35c0,9.87,11.38,15.38,19.12,9.26l231.67-183.23c8.78-6.94,3.87-21.06-7.32-21.06Z"/>
  <polygon class="cls-1" points="993.42 785.17 1114.42 785.17 1114.42 490.94 993.42 586.4 993.42 785.17"/>
</svg>