<svg width="282" height="52" viewBox="0 0 9899 1089" fill="none" xmlns="http://www.w3.org/2000/svg">
<path d="M1760.45 177.199L1645.79 271.648C1639.75 276.618 1632.17 279.339 1624.35 279.339H1306C1281.15 279.339 1261 299.479 1261 324.339V631.629C1261 645.839 1277.39 653.798 1288.55 644.999L1354.68 592.928L1396.9 559.879V713.698L1354.68 746.948L1323.28 771.668L1164.39 904.308C1154.71 912.388 1140 905.509 1140 892.899V284.999C1140 215.049 1196.71 158.339 1266.67 158.339H1753.68C1763.67 158.339 1768.16 170.849 1760.45 177.199Z" fill="#30333C"/>
<path d="M1940.35 131.968L1907.82 157.338L1884.33 175.838L1834.27 215.258L1743.3 286.898L1631.27 375.538V529.318L1575.92 572.898V771.668H1462.27C1451.55 771.668 1441.15 775.398 1432.87 782.218L1315.83 878.628C1310.09 883.358 1313.44 892.668 1320.87 892.668H1757.67C1827.62 892.668 1884.33 835.958 1884.33 765.998V383.358C1884.33 378.868 1889.58 376.428 1893.01 379.338L1939.23 418.428C1945.57 423.778 1955.27 419.278 1955.27 410.988V139.258C1955.27 131.568 1946.42 127.238 1940.35 131.968ZM1763.33 726.668C1763.33 751.518 1743.19 771.668 1718.33 771.668H1696.92V477.438L1763.33 425.138V726.668Z" fill="#969796"/>
<path d="M1631.27 375.538V529.318L1575.92 572.898V572.718L1475.68 651.658L1396.9 713.698V559.878L1631.27 375.538Z" fill="#6E7072"/>
<path d="M1554.66 328.869H1319.88C1315.08 328.869 1311.2 332.759 1311.2 337.549V523.899C1311.2 533.769 1322.58 539.279 1330.32 533.159L1561.99 349.929C1570.77 342.989 1565.86 328.869 1554.67 328.869H1554.66Z" fill="#6E7072"/>
<path d="M1575.92 771.668H1696.92V477.438L1575.92 572.898V771.668Z" fill="#6E7072"/>
<path d="M267.188 1066.32C230.753 1066.32 199.432 1061.63 173.224 1052.26C147.017 1043.09 125.178 1030.95 107.706 1015.82C90.4474 1000.91 76.7045 984.926 66.4773 967.881L126.562 925.693C133.381 934.642 142.01 944.869 152.45 956.375C162.891 968.094 177.166 978.214 195.277 986.737C213.601 995.473 237.571 999.841 267.188 999.841C306.818 999.841 339.524 990.253 365.305 971.077C391.087 951.901 403.977 921.858 403.977 880.949V781.233H397.585C392.045 790.182 384.162 801.261 373.935 814.472C363.92 827.469 349.432 839.081 330.469 849.308C311.719 859.322 286.364 864.33 254.403 864.33C214.773 864.33 179.19 854.955 147.656 836.205C116.335 817.455 91.5128 790.182 73.1889 754.386C55.0781 718.591 46.0227 675.125 46.0227 623.989C46.0227 573.705 54.8651 529.919 72.5497 492.632C90.2344 455.132 114.844 426.155 146.378 405.7C177.912 385.033 214.347 374.699 255.682 374.699C287.642 374.699 312.997 380.026 331.747 390.679C350.71 401.119 365.199 413.051 375.213 426.474C385.44 439.685 393.324 450.551 398.864 459.074H406.534V381.091H479.403V886.062C479.403 928.25 469.815 962.554 450.639 988.974C431.676 1015.61 406.108 1035.1 373.935 1047.46C341.974 1060.03 306.392 1066.32 267.188 1066.32ZM264.631 796.574C294.886 796.574 320.455 789.649 341.335 775.8C362.216 761.95 378.089 742.028 388.956 716.034C399.822 690.04 405.256 658.932 405.256 622.71C405.256 587.341 399.929 556.126 389.276 529.067C378.622 502.007 362.855 480.807 341.974 465.466C321.094 450.125 295.313 442.455 264.631 442.455C232.67 442.455 206.037 450.551 184.73 466.744C163.636 482.937 147.763 504.67 137.109 531.943C126.669 559.216 121.449 589.472 121.449 622.71C121.449 656.801 126.776 686.95 137.429 713.158C148.295 739.152 164.276 759.607 185.369 774.521C206.676 789.223 233.097 796.574 264.631 796.574ZM617.472 872V381.091H692.898V872H617.472ZM655.824 299.273C641.122 299.273 628.445 294.266 617.791 284.251C607.351 274.237 602.131 262.199 602.131 248.136C602.131 234.074 607.351 222.036 617.791 212.021C628.445 202.007 641.122 197 655.824 197C670.526 197 683.097 202.007 693.537 212.021C704.19 222.036 709.517 234.074 709.517 248.136C709.517 262.199 704.19 274.237 693.537 284.251C683.097 294.266 670.526 299.273 655.824 299.273ZM1044.54 381.091V445.011H790.137V381.091H1044.54ZM864.284 263.477H939.711V731.375C939.711 752.682 942.8 768.662 948.979 779.315C955.371 789.756 963.468 796.787 973.269 800.409C983.283 803.818 993.83 805.523 1004.91 805.523C1013.22 805.523 1020.04 805.097 1025.36 804.244C1030.69 803.179 1034.95 802.327 1038.15 801.688L1053.49 869.443C1048.38 871.361 1041.24 873.278 1032.08 875.196C1022.91 877.327 1011.3 878.392 997.239 878.392C975.932 878.392 955.051 873.811 934.597 864.649C914.355 855.487 897.523 841.531 884.1 822.781C870.89 804.031 864.284 780.381 864.284 751.83V263.477Z" fill="#969796"/>
<path d="M2158.13 217.455L2328.48 732.653H2335.19L2505.22 217.455H2635.62L2404.86 872H2258.49L2028.05 217.455H2158.13ZM2881.31 881.588C2832.09 881.588 2789.58 871.361 2753.79 850.906C2718.21 830.239 2690.83 801.048 2671.65 763.335C2652.48 725.409 2642.89 680.771 2642.89 629.422C2642.89 578.925 2652.48 534.607 2671.65 496.467C2691.04 458.115 2718.1 428.285 2752.83 406.979C2787.56 385.459 2828.36 374.699 2875.24 374.699C2905.49 374.699 2934.05 379.599 2960.89 389.401C2987.95 398.989 3011.82 413.903 3032.48 434.145C3053.36 454.386 3069.77 480.168 3081.7 511.489C3093.63 542.597 3099.6 579.67 3099.6 622.71V658.186H2697.22V580.203H2988.7C2988.48 558.044 2983.69 538.335 2974.32 521.077C2964.94 503.605 2951.84 489.862 2935 479.848C2918.38 469.834 2899 464.827 2876.84 464.827C2853.19 464.827 2832.41 470.58 2814.51 482.085C2796.62 493.378 2782.66 508.293 2772.65 526.83C2762.84 545.153 2757.84 565.288 2757.62 587.234V655.31C2757.62 683.861 2762.84 708.364 2773.29 728.818C2783.73 749.06 2798.32 764.614 2817.07 775.48C2835.82 786.134 2857.77 791.46 2882.91 791.46C2899.74 791.46 2914.98 789.116 2928.61 784.429C2942.25 779.528 2954.07 772.391 2964.09 763.016C2974.1 753.641 2981.67 742.028 2986.78 728.179L3094.81 740.324C3087.99 768.875 3074.99 793.804 3055.81 815.111C3036.85 836.205 3012.56 852.611 2982.94 864.33C2953.33 875.835 2919.45 881.588 2881.31 881.588ZM3411.61 881.588C3362.61 881.588 3320.52 870.828 3285.37 849.308C3250.42 827.788 3223.47 798.065 3204.51 760.139C3185.76 722 3176.38 678.108 3176.38 628.463C3176.38 578.605 3185.97 534.607 3205.15 496.467C3224.32 458.115 3251.38 428.285 3286.33 406.979C3321.48 385.459 3363.03 374.699 3410.97 374.699C3450.82 374.699 3486.08 382.05 3516.76 396.751C3547.65 411.24 3572.26 431.801 3590.59 458.435C3608.91 484.855 3619.35 515.75 3621.91 551.119H3511.33C3506.85 527.469 3496.2 507.76 3479.37 491.993C3462.75 476.013 3440.48 468.023 3412.57 468.023C3388.92 468.023 3368.14 474.415 3350.25 487.199C3332.35 499.77 3318.39 517.881 3308.38 541.531C3298.58 565.182 3293.68 593.52 3293.68 626.545C3293.68 659.997 3298.58 688.761 3308.38 712.838C3318.18 736.702 3331.92 755.132 3349.61 768.129C3367.51 780.913 3388.49 787.305 3412.57 787.305C3429.62 787.305 3444.85 784.109 3458.27 777.717C3471.91 771.112 3483.31 761.631 3492.47 749.273C3501.63 736.915 3507.92 721.893 3511.33 704.209H3621.91C3619.14 738.939 3608.91 769.727 3591.23 796.574C3573.54 823.207 3549.47 844.088 3519 859.216C3488.53 874.131 3452.73 881.588 3411.61 881.588ZM3962.05 381.091V470.58H3679.84V381.091H3962.05ZM3749.51 263.477H3865.21V724.344C3865.21 739.898 3867.55 751.83 3872.24 760.139C3877.14 768.236 3883.53 773.776 3891.41 776.759C3899.3 779.741 3908.03 781.233 3917.62 781.233C3924.87 781.233 3931.47 780.7 3937.44 779.635C3943.62 778.57 3948.3 777.611 3951.5 776.759L3970.99 867.206C3964.82 869.337 3955.97 871.68 3944.47 874.237C3933.18 876.794 3919.33 878.286 3902.92 878.712C3873.94 879.564 3847.84 875.196 3824.62 865.608C3801.39 855.807 3782.96 840.679 3769.33 820.224C3755.9 799.77 3749.3 774.202 3749.51 743.52V263.477ZM4267.67 881.588C4219.73 881.588 4178.18 871.041 4143.02 849.947C4107.86 828.854 4080.59 799.344 4061.2 761.418C4042.03 723.491 4032.44 679.173 4032.44 628.463C4032.44 577.753 4042.03 533.328 4061.2 495.189C4080.59 457.05 4107.86 427.433 4143.02 406.339C4178.18 385.246 4219.73 374.699 4267.67 374.699C4315.61 374.699 4357.15 385.246 4392.31 406.339C4427.47 427.433 4454.63 457.05 4473.81 495.189C4493.2 533.328 4502.89 577.753 4502.89 628.463C4502.89 679.173 4493.2 723.491 4473.81 761.418C4454.63 799.344 4427.47 828.854 4392.31 849.947C4357.15 871.041 4315.61 881.588 4267.67 881.588ZM4268.3 788.903C4294.3 788.903 4316.03 781.766 4333.5 767.49C4350.98 753.001 4363.97 733.612 4372.5 709.322C4381.23 685.033 4385.6 657.973 4385.6 628.143C4385.6 598.101 4381.23 570.935 4372.5 546.645C4363.97 522.142 4350.98 502.646 4333.5 488.158C4316.03 473.669 4294.3 466.425 4268.3 466.425C4241.67 466.425 4219.51 473.669 4201.83 488.158C4184.36 502.646 4171.25 522.142 4162.52 546.645C4153.99 570.935 4149.73 598.101 4149.73 628.143C4149.73 657.973 4153.99 685.033 4162.52 709.322C4171.25 733.612 4184.36 753.001 4201.83 767.49C4219.51 781.766 4241.67 788.903 4268.3 788.903ZM4601.09 872V381.091H4713.27V462.909H4718.38C4727.33 434.571 4742.67 412.732 4764.41 397.391C4786.35 381.837 4811.39 374.06 4839.51 374.06C4845.91 374.06 4853.04 374.379 4860.93 375.018C4869.02 375.445 4875.74 376.19 4881.06 377.256V483.683C4876.16 481.979 4868.38 480.487 4857.73 479.209C4847.29 477.717 4837.17 476.972 4827.37 476.972C4806.28 476.972 4787.31 481.553 4770.48 490.714C4753.86 499.663 4740.76 512.128 4731.17 528.108C4721.58 544.088 4716.79 562.518 4716.79 583.399V872H4601.09Z" fill="#6E7072"/>
</svg>
