<svg height="512" viewBox="0 0 32 32" width="512" xmlns="http://www.w3.org/2000/svg"><g id="_x32_0"><path d="m18 8h-9c-.5527344 0-1 .4472656-1 1v9c0 .5527344.4472656 1 1 1h9c.5527344 0 1-.4472656 1-1v-9c0-.5527344-.4472656-1-1-1zm-1 9h-7v-7h7z"/><path d="m12.2929688 15.7070313c.1884765.1884765.4433593.2929687.7070312.2929687.0322266 0 .0654297-.0019531.0986328-.0048828.2978516-.0292969.5673828-.1914063.7333984-.4404297l2-3c.3066406-.4599609.1826172-1.0800781-.2773438-1.3867188-.4619141-.3056641-1.0810547-.1816406-1.3867188.2773438l-1.3232422 1.9853516-.1376953-.1376953c-.390625-.390625-1.0234375-.390625-1.4140625 0s-.390625 1.0234375 0 1.4140625z"/><path d="m29.0859375 24.671875-4.3789063-4.3789063c-.390625-.390625-1.0234375-.390625-1.4140625 0l-.2929687.2929688-.2637939-.2637939c1.4155883-1.9112549 2.2637939-4.2666626 2.2637939-6.8221436 0-6.3408203-5.1591797-11.5-11.5-11.5s-11.5 5.1591797-11.5 11.5 5.1591797 11.5 11.5 11.5c2.555481 0 4.9108887-.8482056 6.8221436-2.2637939l.2637939.2637939-.2929688.2929688c-.390625.390625-.390625 1.0234375 0 1.4140625l4.3789063 4.3789063c.5888672.5898437 1.3730469.9140624 2.2070313.9140624.8330078 0 1.6171875-.3242188 2.2070313-.9140625 1.2167968-1.2177734 1.2167968-3.1982422-.0000001-4.4140625zm-25.0859375-11.171875c0-5.2382812 4.2617188-9.5 9.5-9.5s9.5 4.2617188 9.5 9.5-4.2617187 9.5-9.5 9.5-9.5-4.2617187-9.5-9.5zm23.671875 14.1708984c-.4238281.4257813-1.1621094.4248047-1.5859375.0009766l-3.671875-3.671875 1.5859375-1.5859375 3.671875 3.671875c.4365234.4375.4365234 1.1484375 0 1.5849609z"/><path d="m5.7070313 24.2929688c-.390625-.390625-1.0234375-.390625-1.4140625 0l-2 2c-.390625.390625-.390625 1.0234375 0 1.4140625l2 2c.1953125.1953125.4511718.2929687.7070312.2929687s.5117188-.0976563.7070313-.2929688c.390625-.390625.390625-1.0234375 0-1.4140625l-1.2929688-1.2929687 1.2929688-1.2929688c.390625-.3906249.390625-1.0234374 0-1.4140624z"/><path d="m8.7070313 24.2929688c-.390625-.390625-1.0234375-.390625-1.4140625 0s-.390625 1.0234375 0 1.4140625l1.2929687 1.2929687-1.2929688 1.2929688c-.390625.390625-.390625 1.0234375 0 1.4140625.1953126.1953125.4511719.2929687.7070313.2929687s.5117188-.0976563.7070313-.2929688l2-2c.390625-.390625.390625-1.0234375 0-1.4140625z"/></g></svg>