<svg id="Layer_1" height="512" viewBox="0 0 24 24" width="512" xmlns="http://www.w3.org/2000/svg" data-name="Layer 1"><path d="m8 4c0-2.206-1.794-4-4-4s-4 1.794-4 4c0 1.86 1.276 3.428 3 3.873v8.253c-1.724.445-3 2.013-3 3.873 0 2.206 1.794 4 4 4s4-1.794 4-4c0-1.86-1.276-3.428-3-3.873v-8.253c1.724-.445 3-2.013 3-3.873zm-6 0c0-1.103.897-2 2-2s2 .897 2 2-.897 2-2 2-2-.897-2-2zm4 16c0 1.103-.897 2-2 2s-2-.897-2-2 .897-2 2-2 2 .897 2 2zm15-3.873v-7.127h-2v7.127c-1.724.445-3 2.013-3 3.873 0 2.206 1.794 4 4 4s4-1.794 4-4c0-1.86-1.276-3.428-3-3.873zm-1 5.873c-1.103 0-2-.897-2-2s.897-2 2-2 2 .897 2 2-.897 2-2 2zm-3.964-15.451 2.55-2.549-2.55-2.549 1.414-1.414 2.55 2.549 2.55-2.549 1.414 1.414-2.55 2.549 2.55 2.549-1.414 1.414-2.55-2.549-2.55 2.549z"/></svg>