<?xml version="1.0" encoding="UTF-8"?>
<svg xmlns="http://www.w3.org/2000/svg" xmlns:xlink="http://www.w3.org/1999/xlink" version="1.1" id="Capa_1" x="0px" y="0px" viewBox="0 0 512 512" style="enable-background:new 0 0 512 512;" xml:space="preserve" width="512" height="512">
<g>
	<path style="fill:none;stroke:#000000;stroke-width:20;stroke-linecap:round;stroke-linejoin:round;stroke-miterlimit:10;" d="&#10;&#9;&#9;M299.871,463.909h178.28c13.172,0,23.85-10.678,23.85-23.849v-21.932H10v21.932c0,13.172,10.678,23.849,23.849,23.849h178.022"/>
	<path style="fill:none;stroke:#000000;stroke-width:20;stroke-linecap:round;stroke-linejoin:round;stroke-miterlimit:10;" d="&#10;&#9;&#9;M465.1,137.392v260.83c0,10.99-8.91,19.91-19.91,19.91H66.81c-11,0-19.91-8.92-19.91-19.91v-260.83c0-10.99,8.91-19.9,19.91-19.9&#10;&#9;&#9;h69.51v53.53c0,8.77,7.1,15.87,15.87,15.87h207.62c8.77,0,15.87-7.1,15.87-15.87v-53.53h69.51&#10;&#9;&#9;C456.19,117.492,465.1,126.402,465.1,137.392z"/>
	
		<line style="fill:none;stroke:#000000;stroke-width:20;stroke-linecap:round;stroke-linejoin:round;stroke-miterlimit:10;" x1="256" y1="463.909" x2="256" y2="463.909"/>
	<path style="fill:none;stroke:#000000;stroke-width:20;stroke-linecap:round;stroke-linejoin:round;stroke-miterlimit:10;" d="&#10;&#9;&#9;M425.1,157.492v220.64H86.9v-220.64h49.42v13.53c0,8.77,7.1,15.87,15.87,15.87h207.62c8.77,0,15.87-7.1,15.87-15.87v-13.53H425.1z"/>
	<path style="fill:none;stroke:#000000;stroke-width:20;stroke-linecap:round;stroke-linejoin:round;stroke-miterlimit:10;" d="&#10;&#9;&#9;M359.814,186.892H152.186c-8.763,0-15.866-7.104-15.866-15.866V63.957c0-8.763,7.104-15.866,15.866-15.866h207.628&#10;&#9;&#9;c8.763,0,15.866,7.104,15.866,15.866v107.069C375.68,179.788,368.577,186.892,359.814,186.892z"/>
	<g>
		
			<polyline style="fill:none;stroke:#000000;stroke-width:20;stroke-linecap:round;stroke-linejoin:round;stroke-miterlimit:10;" points="&#10;&#9;&#9;&#9;161.85,281.673 174.935,294.758 198.791,270.902 &#9;&#9;"/>
		
			<line style="fill:none;stroke:#000000;stroke-width:20;stroke-linecap:round;stroke-linejoin:round;stroke-miterlimit:10;" x1="345.279" y1="266.433" x2="316.602" y2="295.11"/>
		
			<line style="fill:none;stroke:#000000;stroke-width:20;stroke-linecap:round;stroke-linejoin:round;stroke-miterlimit:10;" x1="345.279" y1="295.11" x2="316.603" y2="266.433"/>
		<path style="fill:none;stroke:#000000;stroke-width:20;stroke-linecap:round;stroke-linejoin:round;stroke-miterlimit:10;" d="&#10;&#9;&#9;&#9;M222.702,332.209h-83.286c-5.2,0-9.416-4.216-9.416-9.416v-83.286c0-5.2,4.216-9.416,9.416-9.416h83.286&#10;&#9;&#9;&#9;c5.2,0,9.416,4.216,9.416,9.416v83.286C232.119,327.993,227.903,332.209,222.702,332.209z"/>
		<path style="fill:none;stroke:#000000;stroke-width:20;stroke-linecap:round;stroke-linejoin:round;stroke-miterlimit:10;" d="&#10;&#9;&#9;&#9;M372.584,332.209h-83.286c-5.2,0-9.416-4.216-9.416-9.416v-83.286c0-5.2,4.216-9.416,9.416-9.416h83.286&#10;&#9;&#9;&#9;c5.2,0,9.416,4.216,9.416,9.416v83.286C382,327.993,377.784,332.209,372.584,332.209z"/>
	</g>
	
		<polyline style="fill:none;stroke:#000000;stroke-width:20;stroke-linecap:round;stroke-linejoin:round;stroke-miterlimit:10;" points="&#10;&#9;&#9;306.063,87.609 334.941,117.49 306.063,147.37 &#9;"/>
	
		<polyline style="fill:none;stroke:#000000;stroke-width:20;stroke-linecap:round;stroke-linejoin:round;stroke-miterlimit:10;" points="&#10;&#9;&#9;208.139,87.609 179.262,117.49 208.139,147.37 &#9;"/>
	
		<line style="fill:none;stroke:#000000;stroke-width:20;stroke-linecap:round;stroke-linejoin:round;stroke-miterlimit:10;" x1="273.753" y1="87.609" x2="239.276" y2="147.956"/>
</g>















</svg>
