<svg id="Layer_1" enable-background="new 0 0 512 512" height="512" viewBox="0 0 512 512" width="512" xmlns="http://www.w3.org/2000/svg"><path d="m504 239.172c-.001-10.629-5.757-19.938-14.315-24.975 3.45-4.767 5.485-10.62 5.485-16.94 0-15.967-12.99-28.957-28.957-28.957h-52.21c-.001 0-.002 0-.003 0-4.633 0-9.102 1.097-13.123 3.156 3.269-6.092 5.07-11.882 5.686-16.348.05-.362.075-.728.075-1.093v-34.114c0-33.492-27.251-60.74-60.747-60.74-4.418 0-8 3.582-8 8v4.984c-12.739-6.365-26.093-11.38-39.882-14.965l-13.186-34.258c-1.188-3.088-4.156-5.126-7.466-5.126h-62.309c-3.31 0-6.277 2.038-7.466 5.127l-13.188 34.262c-18.293 4.755-35.79 12.008-52.119 21.606l-33.573-14.911c-3.025-1.345-6.564-.686-8.903 1.654l-44.061 44.059c-2.341 2.341-2.998 5.88-1.655 8.904l14.914 33.579c-9.598 16.331-16.851 33.826-21.606 52.114l-34.265 13.19c-3.088 1.188-5.126 4.156-5.126 7.466v62.308c0 3.31 2.038 6.277 5.126 7.466l34.265 13.19c4.756 18.29 12.009 35.783 21.606 52.113l-14.914 33.578c-1.343 3.024-.686 6.563 1.654 8.903l44.059 44.061c2.341 2.341 5.878 2.997 8.904 1.655l33.567-14.908c16.332 9.599 33.831 16.853 52.129 21.609l13.186 34.257c1.188 3.088 4.156 5.126 7.466 5.126h62.309c3.31 0 6.277-2.038 7.466-5.126l13.189-34.266c18.292-4.756 35.784-12.009 52.114-21.606l33.579 14.914c3.022 1.343 6.563.686 8.904-1.654l44.059-44.059c2.34-2.341 2.997-5.88 1.654-8.904l-14.908-33.567c1.54-2.622 3.019-5.288 4.442-7.976h19.977.003c7.711 0 14.976-3.019 20.456-8.498 5.481-5.48 8.5-12.746 8.5-20.458 0-5.711-1.661-11.041-4.526-15.532 10.031-4.555 17.026-14.669 17.026-26.385 0-5.405-1.488-10.468-4.076-14.802 10.963-4.128 18.783-14.723 18.784-27.113zm-99.143-51.061c2.458-2.458 5.705-3.812 9.144-3.812h.001 52.211c7.145 0 12.957 5.812 12.957 12.957s-5.812 12.957-12.958 12.957h-52.209c-7.146 0-12.958-5.812-12.958-12.957 0-3.438 1.353-6.686 3.812-9.145zm-50.966-112.234c20.869 3.782 36.747 22.084 36.747 44.024v33.516c-.884 5.361-4.575 14.078-12.287 21.796-2.721 2.723-3.116 6.998-.941 10.175 6.446 9.411 8.623 18.176 6.655 26.794-3.764 16.484-22.129 28.578-29.851 33.013-3.831 2.201-5.153 7.091-2.953 10.922s7.09 5.153 10.922 2.953c4.385-2.519 9.971-6.117 15.522-10.753 2.233 6.692 6.839 12.308 12.824 15.831-3.449 4.767-5.484 10.62-5.485 16.94.001 8.24 3.46 15.687 9.004 20.965-.17.162-.338.326-.504.492-5.481 5.481-8.5 12.747-8.499 20.458 0 5.371 1.467 10.522 4.207 15.008-42.723 7.271-68.355 9.775-93.918-13.072l-.001-137.336c2.827-2.061 5.729-4.106 8.753-6.237 23.346-16.458 49.806-35.111 49.806-70.227v-35.262zm-74.559 115.691.001 128.864h-39.832v-128.864zm5.362-16h-53.193c-4.418 0-8 3.582-8 8v144.864c0 4.418 3.582 8 8 8h52.693c6.405 5.798 12.826 10.27 19.379 13.648-17.2 10.56-36.782 16.084-57.37 16.084-60.745 0-110.164-49.419-110.164-110.163 0-60.745 49.419-110.165 110.164-110.165 20.556 0 40.215 5.576 57.469 16.177-2.882 2.097-15.617 11.082-18.978 13.555zm100.486 255.7-32.363-14.374c-2.411-1.072-5.196-.884-7.441.499-17.118 10.541-35.686 18.239-55.187 22.881-2.565.61-4.666 2.446-5.613 4.908l-12.712 33.022h-51.322l-12.707-33.014c-.947-2.462-3.048-4.298-5.614-4.908-19.51-4.644-38.082-12.342-55.201-22.884-2.246-1.384-5.032-1.569-7.441-.499l-32.352 14.368-36.29-36.292 14.374-32.362c1.07-2.411.884-5.195-.499-7.441-10.541-17.118-18.238-35.686-22.881-55.187-.61-2.565-2.446-4.666-4.908-5.613l-33.023-12.711v-51.322l33.021-12.711c2.461-.947 4.298-3.048 4.908-5.613 4.642-19.5 12.34-38.067 22.881-55.188 1.383-2.246 1.569-5.03.499-7.441l-14.374-32.363 36.292-36.29 32.358 14.371c2.409 1.071 5.194.886 7.442-.5 17.117-10.541 35.686-18.238 55.19-22.878 2.566-.611 4.667-2.447 5.614-4.91l12.709-33.02h51.322l12.707 33.015c.947 2.461 3.048 4.298 5.613 4.908 16.678 3.97 32.703 10.194 47.706 18.509v20.911c0 17.363-8.765 29.658-20.946 40.404-20.908-14.211-45.225-21.707-70.741-21.707-69.567 0-126.164 56.598-126.164 126.165 0 69.566 56.597 126.163 126.164 126.163 27.32 0 54.096-8.983 75.855-25.36 7.124 1.618 14.499 2.303 22.258 2.303 16.992 0 35.814-3.264 57.796-7.076l5.089-.88c.832.2 1.673.369 2.525.495-.697 1.189-1.404 2.369-2.124 3.537-1.384 2.247-1.57 5.031-.5 7.442l14.368 32.352zm71.799-99.121c-2.459 2.459-5.706 3.812-9.145 3.812h-.001-33.832s0 0-.001 0c-3.438 0-6.685-1.354-9.144-3.812-2.459-2.459-3.812-5.707-3.812-9.146 0-3.438 1.354-6.685 3.812-9.143 2.459-2.459 5.707-3.813 9.146-3.813h.025 33.8.007c7.145 0 12.957 5.812 12.957 12.958.001 3.438-1.353 6.686-3.812 9.144zm3.356-38.101h-46.333c-7.145-.001-12.957-5.814-12.958-12.958.001-7.146 5.813-12.958 12.959-12.958h46.332c7.145 0 12.957 5.812 12.957 12.957s-5.813 12.958-12.957 12.959zm14.706-41.916h-69.867c-7.146 0-12.958-5.812-12.958-12.957 0-7.146 5.812-12.959 12.958-12.959h69.867c7.146 0 12.958 5.813 12.959 12.958-.001 7.145-5.813 12.958-12.959 12.958z"/></svg>