<svg id="Layer_1" enable-background="new 0 0 52 52" viewBox="0 0 52 52" xmlns="http://www.w3.org/2000/svg"><g><path d="m48.0556335 10.7387943-3.8994141 3.8994141-6.484375-.3154297-.3154297-6.4833984 3.9013672-3.9013672c.6641464-.6662817.2254601-1.8020639-.6933594-1.8779297-3.4648438-.3476564-6.7021484.7001953-8.8749981 2.8730469-.6657104.6654663-1.2285767 1.40625-1.6923218 2.1967773l-.1358032-.0571289c-.6787109-.2871094-1.4482422-.0390625-1.8300781.5859375l-1.6972656 2.7832031c-1.8847656-.2919922-3.7695313-.2919922-5.5751953.0195313l-1.7167969-2.8037109c-.375-.6279297-1.1435547-.8808594-1.8310547-.5966797l-4.3359375 1.8037109c-.6865234.2705078-1.0654297 1.0117188-.8857422 1.7119141l.7685547 3.1699219c-1.5166016 1.1035156-2.8476563 2.4335938-3.9257813 3.9472656l-3.1943364-.7558594c-.7050781-.1875-1.4296875.1777344-1.7216797.8681641l-1.7993164 4.3496094c-.2875975.6943359-.0317383 1.4667969.5893555 1.8261719l2.7929688 1.7021484c-.2988281 1.8515625-.2988281 3.7353516.0166016 5.5605469l-2.8173828 1.7343731c-.6191406.3925781-.8627927 1.1611328-.5810547 1.8222656l1.8115234 4.3535156c.28125.6660156.9990234 1.0341797 1.703125.8681641l3.1806645-.7685547c1.0947266 1.5048828 2.421875 2.8349609 3.9472656 3.9140625l-.7724609 3.2177734c-.1621094.7070313.2041016 1.4257813.875 1.7099609l4.3623047 1.8056641c.6660862.2620697 1.4323368.0146904 1.8144531-.6074219l1.6914063-2.7910156c1.8417969.2958984 3.7255859.2988281 5.5693359-.0185547l1.7197266 2.8095703c.3857422.6289063 1.15625.8798828 1.8251953.5917969l4.366209-1.7929688c.6640625-.2802734 1.0302734-.9980469.8681641-1.7158203l-.7685547-3.1679688c1.5195313-1.1054688 2.8476563-2.4375 3.9140625-3.9472656l3.2177734.7724609c.7050781.1601563 1.4423828-.2177734 1.6992188-.8740234l1.8076172-4.3535156c.2841797-.6669922.0400391-1.4355469-.5878906-1.8339844l-2.7910156-1.7050762c.2880859-1.8476563.2880859-3.7285156-.0185547-5.5664063l2.7988281-1.71875c.6279297-.3847656.8759766-1.1552734.5908203-1.8291016l-.0671387-.1607056c.7871704-.4626465 1.5245972-1.0240479 2.1872559-1.6869507 2.171875-2.1708984 3.2197266-5.40625 2.875-8.8662109-.0821914-.9441804-1.2214584-1.3605708-1.8808594-.7011718zm-7.2832031 13.6816407c-.5175781.3115234-.7851563.9003906-.6845703 1.4873047.2636719 1.7089844.2636719 3.4345703.0019531 5.1181641-.1015625.5917969.1582031 1.1777325.6669922 1.4970684l2.8095703 1.703125-1.7822266 4.3476563-3.2050781-.7695313c-.5517578-.1357422-1.1523438.078125-1.5371094.5693359-1.0068359 1.3916016-2.2216797 2.6103516-3.6054688 3.6171875-.4794922.3388672-.7109375.9326172-.5869141 1.5380859l.7841797 3.1806641-4.334959 1.8017578-1.7236328-2.8164063c-.3082619-.4918785-.8821812-.762352-1.4707031-.6630859-1.7197266.2646484-3.4482422.2617188-5.1523438-.0117188-.5771484-.078125-1.1484375.1748047-1.4726563.6816406l-1.6933594 2.8085938-4.3378906-1.7822266.7744141-3.2285156c.1230469-.5761719-.109375-1.1679688-.5791016-1.5009766-1.3964844-1.0263672-2.6142578-2.2460938-3.6123047-3.6181641-.3476563-.4902344-.9482422-.7148438-1.5351563-.5771484l-3.1845708.7714844-1.8183591-4.3232422 2.8027344-1.7255859c.5117188-.3076172.7861328-.9082012.6835938-1.4804668-.2724609-1.7050781-.2724609-3.4287109.0029297-5.1396484.0820313-.5957031-.1875-1.1757813-.6796875-1.4716797l-2.7998047-1.7041016 1.7734375-4.3369141 3.2080083.7597656c.59375.1386719 1.1914063-.0869141 1.53125-.5683594 1.015625-1.3945313 2.234375-2.6132813 3.6328125-3.6308594.4804688-.359375.7001953-.9599609.5605469-1.5244141l-.7714844-3.1738281 4.3222656-1.8203125 1.7275391 2.8222656c.3154297.4931641.8759766.75 1.4804688.6660156 1.6777344-.2666016 3.4072266-.2666016 5.1201172-.0019531.5839844.1015625 1.1855469-.1699219 1.4892578-.6738281l1.7011719-2.7929688.046875.0195313c-.8153419 1.9732027-1.0108337 4.2091856-.6132813 6.2138672.0380859.2001953-.0302887.4052734-.1875.5625l-2.4933472 2.4933472c-4.8912468-1.1734333-10.3923683 1.15695-12.6931763 6.517395-2.9263878 6.9353752 2.1038532 15.6880856 10.7617188 15.2421856 2.4750557 0 5.9938278-1.4262238 8.2705059-4.4199219 1.7460938-2.3310547 2.5019531-5.3232403 2.0742188-8.1865215-.0360718-.3091431-.0994873-.6254272-.1750488-.9432373l2.4875488-2.4884033c.1912117-.1978016.4365578-.210371.7050171-.1611938 2.0654984.3788204 4.2187767.125288 6.0811157-.6522827l.0234375.0527344zm-16.0191021-5.3988648-10.6824341 10.6824341c-.2017822-1.5864258.0246582-3.3782959.6478271-4.8548584 1.6428452-3.835947 5.1789608-5.9111328 8.7998047-5.9111328.4109498 0 .8238526.0275879 1.2348023.0835571zm-2.4701538 18.9183941c3.7042027-3.7045174 6.8941479-6.8947372 10.6953106-10.6962261.3242188 2.4472656-.3310547 4.9686871-1.8056622 6.9354839-1.9280663 2.5372467-5.01511 3.8214951-7.1103516 3.8251953-.6689452.0322266-1.2041015.0166016-1.7792968-.0644531zm23.7177715-18.694334c-2.0927086 2.0946102-5.2873383 3.1847973-8.4355469 2.5566406-.6319466-.0960274-1.3819084.1094475-1.8808594.6083984l-15.1243266 15.1243267c-2.6590252-.8117867-5.1204634-3.1222-6.0934448-6.0979595l15.1308594-15.1318359c.5076675-.5232878.7259235-1.1924887.5748901-1.9854126-.5830765-3.0921068.4682121-6.2168703 2.5774517-8.3261108 1.6787109-1.6777344 4.1220703-2.5605469 6.8251953-2.4941406l-3.4013672 3.4013672c-.2089844.2089844-.3242188.4902344-.3232422.828125l.3408203 7.0205078c.0273438.5664063.4921875 1.0302734 1.0537109 1.0537109l7.0566406.3427734c.3056641 0 .5800781-.1123047.7929688-.3251953l3.4013672-3.4013672c.0732422 2.6943359-.8154297 5.1474609-2.4951172 6.8261719z"/></g></svg>