<svg id="Outline" viewBox="0 0 32 32" xmlns="http://www.w3.org/2000/svg"><path d="m28.5 26.3330078v-9.9995117c0-1.4887695-2.8510742-2.1669922-5.5-2.1669922s-5.5.6782227-5.5 2.1669922v9.9995117c0 1.4892578 2.8510742 2.1669922 5.5 2.1669922s5.5-.6777344 5.5-2.1669922zm-1-6.6660156c0 .3388672-1.5771484 1.1660156-4.5 1.1660156s-4.5-.8271484-4.5-1.1660156v-2.0185547c1.0639648.5783081 2.8213501.8515625 4.5.8515625s3.4360352-.2732544 4.5-.8515625zm-9 1.3145752c1.0639648.578186 2.8213501.8514404 4.5.8514404s3.4360352-.2732544 4.5-.8514404v2.0184326c0 .3388672-1.5771484 1.1669922-4.5 1.1669922s-4.5-.828125-4.5-1.1669922zm4.5-5.8150635c2.9228516 0 4.5.828125 4.5 1.1669922 0 .3383789-1.5771484 1.1665039-4.5 1.1665039s-4.5-.828125-4.5-1.1665039c0-.3388672 1.5771484-1.1669922 4.5-1.1669922zm-4.5 11.1665039v-2.0177002c1.0639648.5784302 2.8213501.8516846 4.5.8516846s3.4360352-.2732544 4.5-.8516846v2.0177002c0 .3388672-1.5771484 1.1669922-4.5 1.1669922s-4.5-.828125-4.5-1.1669922z"/><path d="m30 8.5h-1.5v-2.5c0-.2763672-.2236328-.5-.5-.5h-2.8491211l-2.8735352-1.9160156c-.1977539-.1323242-.4619141-.105957-.6308594.0625l-1.5094604 1.5094604-.6897583-1.3795776c-.0849609-.1694336-.2578125-.2763672-.4472656-.2763672h-6c-.215332 0-.40625.1376953-.4741211.3417969l-.2504883.7512207c-.0370483-.0250854-.0726318-.0523071-.1171875-.0671387l-3-1c-.234375-.0795898-.4931641.027832-.6054688.2504883l-.8969727 1.7944336-3.7768555.9443359c-.2226562.0556641-.3789062.2553711-.3789062.4848633v1.5h-1.5c-.2763672 0-.5.2236328-.5.5v2c0 .2763672.2236328.5.5.5h.5903931l.5292358 2.6381836c.0478516.237793.2563477.4018555.4897461.4018555.0327148 0 .0654297-.0029297.0986328-.0097656.2709961-.0541992.4462891-.3178711.3920898-.5883789l-.4898682-2.4418945h24.7799072l-.4804688 2.4018555c-.0541992.2709961.121582.5341797.3920898.5883789.0332031.0068359.065918.0097656.0986328.0097656.2333984 0 .4423828-.1640625.4897461-.4018555l.5197144-2.5981445h.5901489c.2763672 0 .5-.2236328.5-.5v-2c0-.2763672-.2236328-.5-.5-.5zm-7.9365234-3.8564453 2.6586914 1.7724609c.0820312.0546875.1787109.0839844.2773438.0839844h2.5004883v2h-3.2324219l-1.8515625-2.7773438c-.0927734-.1391602-.2490234-.2226562-.4160156-.2226562h-.7929688zm-8.703125-.1435547h5.3305664l.8618164 1.7236328c.0062866.0125732.0200806.0180664.0273438.0299072.0205688.0341797.0368652.0704346.0664062.0999756.0187988.0187988.0429077.0270996.0637207.0422974.0192871.0142212.036438.0269775.0574951.038208.0733643.0392456.1512451.065979.2322998.065979h1.7324219l1.333313 2h-12.2566528l.5-1h.690918c.215332 0 .40625-.1376953.4741211-.3417969l.8862305-2.6582031zm-8.8603516 2.890625 3.6210938-.9057617c.1416016-.0351562.2607422-.1308594.3261719-.2612305l.8061523-1.6123047 2.5883789.862793c.0448608.0149536.0895386.0144653.1342773.0167236l-.3364258 1.0091553h-.6396484c-.1894531 0-.3623047.1069336-.4472656.2763672l-.8618164 1.7236328h-5.190918zm25 3.109375h-27v-1h27z"/><path d="m16 20.5h-2.5505371c-.2452393-1.6916504-1.690979-3-3.4494629-3s-3.2042236 1.3083496-3.4494629 3h-1.1408691l-.5292969-2.6386719c-.0541992-.2705078-.3198242-.4492188-.5883789-.3916016-.2709961.0546875-.4462891.3173828-.3920898.5888672l.6098633 3.0400391c.046875.2333984.2519531.4013672.4902344.4013672h1.5505371c.2452393 1.6916504 1.690979 3 3.4494629 3s3.2042236-1.3083496 3.4494629-3h2.5505371c.2763672 0 .5-.2236328.5-.5s-.2236328-.5-.5-.5zm-6 3c-1.378418 0-2.5-1.1210938-2.5-2.5s1.121582-2.5 2.5-2.5 2.5 1.1210938 2.5 2.5-1.121582 2.5-2.5 2.5z"/><path d="m10 19.5c-.8271484 0-1.5.6728516-1.5 1.5s.6728516 1.5 1.5 1.5 1.5-.6728516 1.5-1.5-.6728516-1.5-1.5-1.5zm0 2c-.2758789 0-.5-.2246094-.5-.5s.2241211-.5.5-.5.5.2246094.5.5-.2241211.5-.5.5z"/><circle cx="4" cy="16" r=".5"/></svg>