<svg width="14" height="14" viewBox="0 0 14 14" fill="none" xmlns="http://www.w3.org/2000/svg">
<path d="M11 9C9.89543 9 9 9.89543 9 11C9 12.1046 9.89543 13 11 13C12.1046 13 13 12.1046 13 11C13 9.89543 12.1046 9 11 9ZM11 9V4.33333C11 3.97971 10.8595 3.64057 10.6095 3.39052C10.3594 3.14048 10.0203 3 9.66667 3H7.66667M3 5C4.10457 5 5 4.10457 5 3C5 1.89543 4.10457 1 3 1C1.89543 1 1 1.89543 1 3C1 4.10457 1.89543 5 3 5ZM3 5V13" stroke="#09090B" stroke-linecap="round" stroke-linejoin="round"/>
</svg>
