<svg width="14" height="14" viewBox="0 0 14 14" fill="none" xmlns="http://www.w3.org/2000/svg">
<path d="M3 1V9M3 9C3.53043 9 4.03914 9.21071 4.41421 9.58579C4.78929 9.96086 5 10.4696 5 11C5 11.5304 4.78929 12.0391 4.41421 12.4142C4.03914 12.7893 3.53043 13 3 13C2.46957 13 1.96086 12.7893 1.58579 12.4142C1.21071 12.0391 1 11.5304 1 11C1 10.4696 1.21071 9.96086 1.58579 9.58579C1.96086 9.21071 2.46957 9 3 9ZM3 9C3 7.4087 3.63214 5.88258 4.75736 4.75736C5.88258 3.63214 7.4087 3 9 3M9 3C9 2.46957 9.21071 1.96086 9.58579 1.58579C9.96086 1.21071 10.4696 1 11 1C11.5304 1 12.0391 1.21071 12.4142 1.58579C12.7893 1.96086 13 2.46957 13 3C13 3.53043 12.7893 4.03914 12.4142 4.41421C12.0391 4.78929 11.5304 5 11 5C10.4696 5 9.96086 4.78929 9.58579 4.41421C9.21071 4.03914 9 3.53043 9 3ZM11 9V13M13 11H9" stroke="#09090B" stroke-linecap="round" stroke-linejoin="round"/>
</svg>
