<svg id="Layer_1" enable-background="new 0 0 60 60" height="512" viewBox="0 0 55 55" width="512" xmlns="http://www.w3.org/2000/svg"><path d="m26.98 44.44c-4.52-1.27-7.68-5.44-7.68-10.14v-12.65c0-1.28 1.04-2.33 2.33-2.33h.76 14.91.76c1.28 0 2.32 1.04 2.32 2.33v9.48c0 .55.45 1 1 1s1-.45 1-1v-6.18l4.91-1.33c.31-.08.55-.31.67-.6l2.12-5.44c.2-.51-.05-1.09-.57-1.29-.51-.2-1.09.05-1.29.57l-1.93 4.97-3.89 1.06v-1.23c0-2.3-1.81-4.17-4.08-4.3v-2.86c0-1.43-.36-2.77-.99-3.96l3.83-3.83c.39-.39.39-1.02 0-1.41s-1.02-.39-1.41 0l-3.59 3.59c-1.55-1.74-3.8-2.84-6.3-2.84-2.51 0-4.75 1.1-6.3 2.84l-3.59-3.59c-.39-.39-1.02-.39-1.41 0s-.39 1.02 0 1.41l3.83 3.83c-.63 1.18-.99 2.53-.99 3.96v2.85c-2.27.13-4.08 2-4.08 4.3v1.23l-3.89-1.06-1.93-4.97c-.2-.51-.78-.77-1.29-.57s-.77.78-.57 1.29l2.12 5.44c.11.3.36.52.67.6l4.91 1.33v5.35l-4.57.88c-.32.06-.59.28-.73.58l-2.38 5.4c-.22.5.01 1.1.51 1.32.13.06.27.08.4.08.38 0 .75-.22.92-.6l2.17-4.92 3.67-.71v1.95c0 2.52.77 4.91 2.1 6.92l-3.85.92c-.3.07-.54.27-.67.55l-2.72 5.84c-.23.5-.02 1.1.48 1.33.14.06.28.09.42.09.38 0 .74-.21.91-.58l2.52-5.41 4.3-1.03c1.51 1.59 3.44 2.8 5.65 3.42.09.03.18.04.27.04.44 0 .84-.29.96-.73.12-.48-.19-1.04-.72-1.19zm-3.6-29.94c0-3.56 2.9-6.46 6.46-6.46s6.46 2.9 6.46 6.46v2.83h-12.92z"/><path d="m39.77 38.71c.74-2.73-.03-5.7-2.05-7.71-1.96-1.96-4.76-2.75-7.46-2.11-.35.08-.63.35-.73.7s0 .72.25.98l3.21 3.21-.8 2.95-2.95.8-3.21-3.21c-.26-.26-.63-.35-.98-.25s-.62.38-.7.73c-.64 2.71.15 5.5 2.11 7.46 2.01 2.01 4.98 2.79 7.71 2.05l9.53 9.53c.77.77 1.79 1.16 2.8 1.16s2.03-.38 2.8-1.16c.75-.75 1.16-1.74 1.16-2.8s-.41-2.05-1.16-2.8zm8.11 13.72c-.76.76-2 .76-2.77 0l-9.96-9.96c-.19-.19-.45-.29-.71-.29-.11 0-.23.02-.34.06-2.17.78-4.62.23-6.24-1.39-.98-.98-1.57-2.23-1.71-3.56l2.07 2.07c.25.25.62.35.97.26l4.07-1.1c.34-.09.61-.36.71-.71l1.1-4.07c.09-.35-.01-.71-.26-.97l-2.07-2.07c1.33.14 2.58.73 3.56 1.71 1.62 1.62 2.17 4.07 1.39 6.24-.13.36-.04.77.23 1.05l9.96 9.96c.37.37.57.86.57 1.38.01.53-.2 1.02-.57 1.39z"/></svg>