<svg id="line" viewBox="0 0 64 64" xmlns="http://www.w3.org/2000/svg"><path d="m45.99961 17.4889 1.21218-1.21218a1.0028 1.0028 0 0 0 -1.41794-1.41781l-2.90031 2.90031a1.00233 1.00233 0 0 0 0 1.41788l2.90037 2.90037a.99945.99945 0 0 0 .70894.29376 1.00953 1.00953 0 0 0 .70888-1.71163l-1.16273-1.16279a12.53853 12.53853 0 0 1 12.02108 12.50775c-.69088 16.63071-24.382 16.6203-25.06739-.00013a14.55579 14.55579 0 0 0 -14.53909-14.539c-18.99535.74247-19.41475 27.72377-.4631 29.05474l-1.21231 1.21218a1.00259 1.00259 0 1 0 1.41788 1.41787l2.90037-2.90037a1.00233 1.00233 0 0 0 0-1.41788l-2.90037-2.90037a1.00277 1.00277 0 0 0 -1.41781 1.41787l1.16273 1.1628c-16.24546-1.27479-15.80354-24.408.51273-25.04151a12.54789 12.54789 0 0 1 12.53358 12.5338 14.55582 14.55582 0 0 0 14.53909 14.53909c18.99522-.74242 19.41487-27.72384.46322-29.05475z"/><path d="m26.48908 29.64959h-.62375a7.83323 7.83323 0 0 0 -1.65288-2.8661l.3153-.54737a1.686 1.686 0 0 0 -.61689-2.29034l-1.18086-.6825a1.68377 1.68377 0 0 0 -2.29327.613l-.31335.54051a7.82032 7.82032 0 0 0 -3.3087-.002c-.289-.55122-.67038-1.191-1.33268-1.32577-.82344-.3104-1.781.49915-2.45686.84988a1.6815 1.6815 0 0 0 -.61488 2.29426l.31334.54247a7.78189 7.78189 0 0 0 -1.65777 2.86317h-.62767a1.68079 1.68079 0 0 0 -1.67932 1.67932v1.363a1.68079 1.68079 0 0 0 1.67932 1.67932h.62375a7.82145 7.82145 0 0 0 1.65288 2.86512l-.3153.54737a1.686 1.686 0 0 0 .61689 2.29034l1.18091.6825a1.6816 1.6816 0 0 0 2.29328-.613l.31236-.54052a7.82489 7.82489 0 0 0 3.30968.00294l.31432.54443a1.68366 1.68366 0 0 0 2.29328.613c.63739-.4224 1.82161-.8295 1.96518-1.70289a2.21432 2.21432 0 0 0 -.48176-1.81634 7.78122 7.78122 0 0 0 1.65784-2.86317h.62766a1.68079 1.68079 0 0 0 1.67927-1.67922v-1.363a1.68058 1.68058 0 0 0 -1.67932-1.67841zm-.32608 2.71531c-.74951.01022-1.86066-.18892-2.05631.80294a5.74888 5.74888 0 0 1 -1.8213 3.1442c-.76537.65636-.02932 1.54113.331 2.18458l-.617.35643c-.32436-.51261-.65783-1.48716-1.40514-1.43159a6.54994 6.54994 0 0 1 -3.95008.04884c-.94951-.33684-1.34976.74321-1.72632 1.37589l-.61689-.35642c.363-.644 1.09125-1.53171.33286-2.18361a5.76529 5.76529 0 0 1 -1.81732-3.14811c-.188-.98826-1.31586-.79437-2.0524-.80294v-.7109c.74964-.01022 1.86072.1888 2.05631-.803a5.74883 5.74883 0 0 1 1.82131-3.14413c.76567-.65662.029-1.54156-.332-2.18459l.61793-.35643.5366.93122a.99917.99917 0 0 0 1.18581.44945 5.76854 5.76854 0 0 1 3.63477.00294c.94792.333 1.34829-.74413 1.72436-1.37681l.6169.35649c-.36267.64351-1.0915 1.532-.33287 2.18262a5.70773 5.70773 0 0 1 1.8174 3.15003 1.00224 1.00224 0 0 0 .98213.80294h1.07025z"/><path d="m18.4636 27.61776a4.387 4.387 0 0 0 .00012 8.77359 4.387 4.387 0 0 0 -.00012-8.77359zm0 6.7682a2.38155 2.38155 0 0 1 .00006-4.76281 2.38155 2.38155 0 0 1 -.00006 4.76285z"/><path d="m39.27443 36.18474a1.00278 1.00278 0 0 0 1.41782-1.41794l-2.76225-2.76224 2.76231-2.76231a1.00259 1.00259 0 0 0 -1.41788-1.41788l-3.47124 3.47125a1.00232 1.00232 0 0 0 0 1.41787z"/><path d="m50.38046 36.18474a1.00233 1.00233 0 0 0 1.41788 0l3.47125-3.47125a1.00234 1.00234 0 0 0 0-1.41787l-3.47125-3.47125a1.00259 1.00259 0 1 0 -1.41788 1.41788l2.76231 2.76231-2.76231 2.76231a1.00234 1.00234 0 0 0 0 1.41787z"/><path d="m45.20738 37.45378 2.6027-10.41278a1.00238 1.00238 0 0 0 -1.94468-.48562l-2.60271 10.41272a1.00221 1.00221 0 1 0 1.94469.48568z"/></svg>