<svg id="Layer_1" height="512" viewBox="0 0 64 64" width="512" xmlns="http://www.w3.org/2000/svg" data-name="Layer 1"><path d="m6 29.91a5 5 0 1 0 -5-5 5 5 0 0 0 5 5zm0-8a3 3 0 1 1 -3 3 3 3 0 0 1 3-3z"/><path d="m58 20a5 5 0 1 0 5 5 5 5 0 0 0 -5-5zm0 8a3 3 0 1 1 3-3 3 3 0 0 1 -3 3z"/><path d="m37 6a5 5 0 1 0 -5 5 5 5 0 0 0 5-5zm-5 3a3 3 0 1 1 3-3 3 3 0 0 1 -3 3z"/><path d="m16 61a5 5 0 1 0 -5-5 5 5 0 0 0 5 5zm0-8a3 3 0 1 1 -3 3 3 3 0 0 1 3-3z"/><path d="m53 56a5 5 0 1 0 -5 5 5 5 0 0 0 5-5zm-5 3a3 3 0 1 1 3-3 3 3 0 0 1 -3 3z"/><path d="m39.7 57.84a26.07 26.07 0 0 1 -11.52.86l1.74-.87-.92-1.83-4.47 2.25a1 1 0 0 0 -.53.75 1 1 0 0 0 .25.85l3.41 3.66 1.46-1.36-1.39-1.5a27.37 27.37 0 0 0 4.27.35 27.92 27.92 0 0 0 8.3-1.25z"/><path d="m54.63 45.79-.26-1.88-2 .27.67 5a1 1 0 0 0 .51.74.91.91 0 0 0 .48.13 1 1 0 0 0 .41-.09l4.57-2-.82-1.83-1.92.86a27.82 27.82 0 0 0 3.73-13.99h-2a25.86 25.86 0 0 1 -3.37 12.79z"/><path d="m9.19 16.77 1.62 1.16a26 26 0 0 1 10-8.4l-.71 1.68 1.9.79 2-4.6a1 1 0 0 0 -.06-.89 1 1 0 0 0 -.82-.51l-5-.59-.23 2 2.18.26a27.86 27.86 0 0 0 -10.88 9.1z"/><path d="m54 18a1 1 0 0 0 .68-.27 1 1 0 0 0 .32-.83l-.51-5-2 .21.21 2a28.15 28.15 0 0 0 -12.41-7.86l-.58 1.91a26.14 26.14 0 0 1 11.46 7.31l-2-.36-.36 2 4.92.9z"/><path d="m9.19 36.9-3.47-3.59a1 1 0 0 0 -.84-.3 1 1 0 0 0 -.75.49l-2.48 4.34 1.74 1 .95-1.66a27.69 27.69 0 0 0 5.1 12.41l1.61-1.18a25.8 25.8 0 0 1 -4.75-11.63l1.45 1.51z"/><path d="m22 32a10 10 0 0 0 5.5 8.93v3.57a4.5 4.5 0 0 0 9 0v-3.57a10 10 0 1 0 -14.5-8.93zm12.5 12.5a2.5 2.5 0 0 1 -5 0v-1.5h5zm-2.5-20.5a8 8 0 0 1 3.11 15.37 1 1 0 0 0 -.61.92v.71h-1.5v-4a1 1 0 0 0 -.17-.55l-2.56-3.85 1.49.37a1 1 0 0 0 .48 0l1.76-.43-.87 1.46 1.74 1 2-3.5a1 1 0 0 0 -1.11-1.5l-3.76 1-3.76-1a1 1 0 0 0 -1.06.39 1 1 0 0 0 0 1.13l3.82 5.78v3.7h-1.5v-.71a1 1 0 0 0 -.61-.92 8 8 0 0 1 3.11-15.37z"/><path d="m44 31h3v2h-3z"/><path d="m17 31h3v2h-3z"/><path d="m40.05 21.45h3v2h-3z" transform="matrix(.707 -.707 .707 .707 -3.71 35.95)"/><path d="m20.95 40.55h3v2h-3z" transform="matrix(.707 -.707 .707 .707 -22.8 28.05)"/><path d="m40.55 40.05h2v3h-2z" transform="matrix(.707 -.707 .707 .707 -17.21 41.55)"/><path d="m21.45 20.95h2v3h-2z" transform="matrix(.707 -.707 .707 .707 -9.3 22.45)"/><path d="m31 17h2v3h-2z"/></svg>