<svg height="512" viewBox="0 0 60 60" width="512" xmlns="http://www.w3.org/2000/svg"><g id="Page-1" fill="none" fill-rule="evenodd"><g id="001---House-Cleaning" fill="rgb(0,0,0)" fill-rule="nonzero" transform="translate(0 -1)"><path id="Shape" d="m2.08 26h.96v33c0 1.1045695.8954305 2 2 2h34c1.1045695 0 2-.8954305 2-2v-17.55c0-.5522847-.4477153-1-1-1s-1 .4477153-1 1v17.55h-3.005v-9c0-3.3137085-2.6862915-6-6-6s-6 2.6862915-6 6v9h-18.995v-33h14.49c.5522847 0 1-.4477153 1-1s-.4477153-1-1-1h-15.471c-.007 0-.012 0-.019 0s-.012 0-.019 0h-1.946l19.96-14.76 6.63 4.91c.4440369.3286094 1.0703906.2350369 1.399-.209s.2350369-1.0703906-.209-1.399l-6.629-4.905c-.7084883-.52001243-1.6725117-.52001243-2.381 0l-19.96 14.763c-.68795801.5159629-.96908213 1.4139345-.69816432 2.2300886.27091782.8161541 1.03322283 1.3677651 1.89316432 1.3699114zm23.955 24c0-1.4290624.7623956-2.7495705 2-3.4641017 1.2376043-.7145312 2.7623957-.7145312 4 0 1.2376044.7145312 2 2.0350393 2 3.4641017v9h-8z"/><path id="Shape" d="m9.035 56h10c.5522847 0 1-.4477153 1-1v-10c0-.5522847-.4477153-1-1-1h-10c-.55228475 0-1 .4477153-1 1v10c0 .5522847.44771525 1 1 1zm1-5h3v3h-3zm5 3v-3h3v3zm3-5h-3v-3h3zm-5-3v3h-3v-3z"/><path id="Shape" d="m20.035 30c0-.5522847-.4477153-1-1-1h-10c-.55228475 0-1 .4477153-1 1v10c0 .5522847.44771525 1 1 1h10c.5522847 0 1-.4477153 1-1zm-2 4h-3v-3h3zm-5-3v3h-3v-3zm-3 5h3v3h-3zm5 3v-3h3v3z"/><path id="Shape" d="m31.035 55c.5522847 0 1-.4477153 1-1v-2c0-.5522847-.4477153-1-1-1s-1 .4477153-1 1v2c0 .2652165.1053568.5195704.2928932.7071068s.4418903.2928932.7071068.2928932z"/><path id="Shape" d="m31.441 15.417-.708.708c-.2630206.264441-.4457423.5979862-.527.962l-6.089 1.605c-.1719423.0448554-.3287165.1349833-.454.261-1.243 1.242-1.614 3.712-.994 6.608.091.422.2.842.331 1.259v.025c0 .008.019.035.025.054 1.6480885 5.292711 5.7948042 9.4356873 11.089 11.079.015 0 .025.016.041.021s.022 0 .034 0c.414.126.831.238 1.25.328.8593773.1888632 1.7361392.2873983 2.616.294 1.4473831.1049127 2.8788659-.3569485 3.992-1.288.1260167-.1252835.2161446-.2820577.261-.454l1.6-6.089c.3640044-.0820545.6976629-.2646485.963-.527l.707-.708c2.1778017-2.1790299 2.6776997-5.5245325 1.232-8.245l11.3-10.275c1.7812417-1.61888812 2.3699342-4.17367399 1.4767671-6.40881899s-3.0803899-3.68067124-5.4867671-3.62618101c-1.5781077.03200354-3.0727915.71492563-4.13 1.887l-10.28 11.303c-2.7203998-1.4489776-6.0680995-.951023-8.249 1.227zm9.011 20.657c-.724.511-2.348.781-4.594.3-.063-.014-.143-.035-.211-.051l1-3.674c.0937822-.3447613-.0034874-.7133661-.2551683-.9669645-.251681-.2535984-.6195369-.3536629-.965-.2625-.3454632.0911628-.6160495.3597032-.7098317.7044645l-.982 3.6c-1.6046443-.6290811-3.0879753-1.5318017-4.384-2.668l3.355-3.355c.3789722-.3923789.3735524-1.0160848-.0121814-1.4018186s-1.0094397-.3911536-1.4018186-.0121814l-3.355 3.355c-1.1361983-1.2960247-2.0389189-2.7793557-2.668-4.384l3.605-.982c.5329548-.1449748.8474747-.6945452.7024999-1.2275-.1449747-.5329547-.6945451-.8474747-1.2274999-.7025l-3.674 1c-.016-.068-.037-.148-.051-.211-.481-2.247-.21-3.87.3-4.594l5.86-1.541 11.216 11.216zm3.716-7.929-.706.708-11.315-11.314.708-.707c1.9526137-1.9525763 5.1183863-1.9525763 7.071 0l4.242 4.242c1.9525763 1.9526137 1.9525763 5.1183863 0 7.071zm7.276-23.912c.9347845-1.02600052 2.3579362-1.4550157 3.704031-1.11659605s2.3971454 1.38947022 2.735565 2.73556506c.3384197 1.34609483-.0905955 2.76924647-1.116596 3.70403099l-11.151 10.137-4.309-4.309z"/><path id="Shape" d="m45 39.5c0 1.9329966 1.5670034 3.5 3.5 3.5s3.5-1.5670034 3.5-3.5-1.5670034-3.5-3.5-3.5-3.5 1.5670034-3.5 3.5zm5 0c0 .8284271-.6715729 1.5-1.5 1.5s-1.5-.6715729-1.5-1.5.6715729-1.5 1.5-1.5 1.5.6715729 1.5 1.5z"/><path id="Shape" d="m31.5 9c1.9329966 0 3.5-1.56700338 3.5-3.5s-1.5670034-3.5-3.5-3.5-3.5 1.56700338-3.5 3.5 1.5670034 3.5 3.5 3.5zm0-5c.8284271 0 1.5.67157288 1.5 1.5s-.6715729 1.5-1.5 1.5-1.5-.67157288-1.5-1.5.6715729-1.5 1.5-1.5z"/><path id="Shape" d="m54 25c-.5522847 0-1 .4477153-1 1v2c0 .5522847.4477153 1 1 1s1-.4477153 1-1v-2c0-.5522847-.4477153-1-1-1z"/><path id="Shape" d="m53 32v2c0 .5522847.4477153 1 1 1s1-.4477153 1-1v-2c0-.5522847-.4477153-1-1-1s-1 .4477153-1 1z"/><path id="Shape" d="m58 29h-2c-.5522847 0-1 .4477153-1 1s.4477153 1 1 1h2c.5522847 0 1-.4477153 1-1s-.4477153-1-1-1z"/><path id="Shape" d="m53 30c0-.5522847-.4477153-1-1-1h-2c-.5522847 0-1 .4477153-1 1s.4477153 1 1 1h2c.5522847 0 1-.4477153 1-1z"/><path id="Shape" d="m13.293 9.707c.3923789.3789722 1.0160848.3735524 1.4018186-.01218142.3857338-.3857338.3911536-1.00943969.0121814-1.40181858l-1.5-1.5c-.3923789-.37897221-1.0160848-.37355237-1.4018186.01218142-.3857338.3857338-.3911536 1.00943969-.0121814 1.40181858z"/><path id="Shape" d="m8.793 5.207c.39237889.37897221 1.01608478.37355237 1.4018186-.01218142.3857338-.3857338.3911536-1.00943969.0121814-1.40181858l-1.5-1.5c-.39237889-.37897221-1.01608478-.37355237-1.40181858.01218142-.38573379.3857338-.39115363 1.00943969-.01218142 1.40181858z"/><path id="Shape" d="m8 10c.26519481-.00005664.51950727-.10545063.707-.293l1.5-1.5c.2599566-.25107447.3642126-.62287789.2726972-.97250732-.0915155-.34962944-.3645604-.6226744-.71418988-.71418984-.34962943-.09151544-.72143285.01274058-.97250732.27269716l-1.5 1.5c-.28590792.28599425-.37142191.71603662-.21667798 1.08965456s.51928208.61725909.92367798.61734544z"/><path id="Shape" d="m12.5 5.5c.2651948-.00005664.5195073-.10545063.707-.293l1.5-1.5c.3789722-.39237889.3735524-1.01608478-.0121814-1.40181858-.3857338-.38573379-1.0094397-.39115363-1.4018186-.01218142l-1.5 1.5c-.2859079.28599425-.3714219.71603662-.216678 1.08965456s.5192821.61725909.923678.61734544z"/></g></g></svg>