<svg id="Layer_1" viewBox="0 0 512 512" xmlns="http://www.w3.org/2000/svg" data-name="Layer 1"><path d="m77.815 390.895c2.828 3.395 2.369 8.439-1.026 11.267-1.495 1.246-3.311 1.854-5.116 1.854-2.293 0-4.568-.98-6.151-2.879-21.092-25.316-36.14-54.401-44.725-86.447-15.688-58.519-7.646-119.646 22.647-172.121 30.292-52.472 79.204-90.01 137.727-105.699 35.099-9.396 72.274-10.244 107.51-2.455 28.484 6.296 55.783 18.234 79.878 34.796l-4.791-17.864c-1.145-4.268 1.388-8.655 5.655-9.799 4.27-1.143 8.654 1.388 9.799 5.655l9.524 35.519c1.145 4.268-1.388 8.655-5.655 9.799l-35.519 9.525c-.694.186-1.392.275-2.077.275-3.532 0-6.764-2.356-7.722-5.93-1.145-4.268 1.387-8.655 5.655-9.799l15.948-4.277c-50.549-34.69-114.448-45.946-174.066-29.99-54.393 14.582-99.855 49.473-128.01 98.244-28.156 48.772-35.632 105.587-21.05 159.979 7.982 29.792 21.966 56.825 41.563 80.348zm235.207-134.914c0 40.331-32.811 73.142-73.142 73.142s-73.17-32.811-73.17-73.142 32.824-73.17 73.17-73.17 73.142 32.824 73.142 73.17zm-16 0c0-31.523-25.634-57.17-57.142-57.17s-57.17 25.646-57.17 57.17 25.646 57.142 57.17 57.142 57.142-25.634 57.142-57.142zm196.57 207.146c-7.203 12.525-19.649 19.722-34.135 19.722h-182.754c-3.86 0-7.569-.526-11.08-1.514-8.687 1.005-17.371 1.527-26.026 1.527-21.291 0-42.425-3.034-63.119-9.08-23.432-6.846-45.321-17.256-65.28-31.02l4.767 17.83c1.141 4.269-1.394 8.654-5.662 9.795-.692.185-1.388.273-2.071.273-3.534 0-6.768-2.359-7.724-5.936l-9.496-35.519c-1.141-4.269 1.394-8.654 5.662-9.795l35.519-9.496c4.271-1.141 8.654 1.395 9.795 5.662 1.141 4.269-1.394 8.654-5.662 9.795l-15.948 4.264c36.576 25.09 80.461 38.138 124.555 37.118-.84-1.165-1.643-2.372-2.378-3.65-7.243-12.498-7.245-26.877.008-39.428l1.155-2h-24.106c-3.121 0-5.957-1.814-7.264-4.648l-13.286-28.791-23.842-9.856-29.753 10.941c-2.926 1.076-6.21.354-8.415-1.849l-28.688-28.659c-2.209-2.207-2.933-5.497-1.853-8.427l10.965-29.747-9.879-23.841-28.768-13.288c-2.832-1.308-4.646-4.143-4.646-7.263v-40.565c0-3.12 1.813-5.955 4.646-7.263l28.769-13.288 9.877-23.814-10.965-29.745c-1.079-2.928-.357-6.217 1.85-8.424l28.688-28.688c2.207-2.207 5.497-2.929 8.423-1.85l29.747 10.965 23.842-9.879 13.288-28.768c1.308-2.832 4.143-4.646 7.263-4.646h40.536c3.12 0 5.955 1.813 7.263 4.646l13.288 28.768 23.842 9.879 29.747-10.965c2.928-1.081 6.219-.357 8.426 1.853l28.659 28.687c2.203 2.206 2.925 5.49 1.849 8.416l-10.94 29.751 9.854 23.813 28.792 13.287c2.833 1.307 4.648 4.143 4.648 7.264v35.518l32.566 56.411c14.568-40.335 16.54-84.561 5.369-126.197-7.982-29.794-21.966-56.827-41.564-80.35-2.828-3.395-2.369-8.439 1.026-11.267 3.395-2.827 8.439-2.369 11.267 1.026 21.091 25.315 36.139 54.401 44.725 86.447 13.161 49.052 9.375 101.452-10.608 148.036l45.243 78.371c7.251 12.548 7.25 26.927-.007 39.448zm-240.637-57.452 80.97-140.258c7.199-12.518 19.646-19.705 34.141-19.705 7.961 0 15.303 2.183 21.509 6.219v-11.129l-26.987-12.454c-1.828-.843-3.271-2.345-4.04-4.205l-12.246-29.594c-.768-1.856-.81-3.934-.116-5.82l10.254-27.886-21.426-21.447-27.878 10.276c-1.889.696-3.97.654-5.829-.116l-29.623-12.274c-1.857-.77-3.357-2.21-4.2-4.036l-12.454-26.962h-30.302l-12.453 26.962c-.843 1.826-2.343 3.267-4.201 4.036l-29.623 12.274c-1.86.771-3.941.812-5.829.116l-27.881-10.277-21.447 21.447 10.277 27.88c.696 1.89.655 3.972-.117 5.832l-12.274 29.594c-.77 1.856-2.21 3.355-4.035 4.198l-26.961 12.453v30.331l26.961 12.454c1.826.843 3.267 2.343 4.036 4.2l12.274 29.622c.771 1.859.812 3.941.116 5.83l-10.276 27.878 21.447 21.425 27.886-10.254c1.886-.693 3.962-.652 5.817.115l29.623 12.246c1.861.77 3.364 2.212 4.208 4.041l12.454 26.987h28.224zm226.789 26.006-91.363-158.262c-4.363-7.55-11.578-11.708-20.315-11.708s-15.942 4.152-20.278 11.693l-91.369 158.272c-4.375 7.569-4.376 15.888-.007 23.427 4.36 7.582 11.562 11.744 20.291 11.744h182.754c8.73 0 15.932-4.163 20.278-11.721 4.382-7.562 4.381-15.88.008-23.446zm-93.968-119.34c4.399 4.632 6.645 10.604 6.324 16.818l-2.437 47.929c-.631 11.896-10.117 21.2-21.597 21.2s-20.937-9.305-21.567-21.183l-2.439-47.953c-.32-6.209 1.926-12.185 6.327-16.818 4.589-4.833 11.033-7.604 17.679-7.604s13.117 2.774 17.71 7.61zm-9.655 16c.125-2.42-1.166-4.159-1.946-4.981-1.586-1.671-3.813-2.629-6.108-2.629-2.279 0-4.495.956-6.077 2.622-.782.823-2.074 2.565-1.95 4.981l2.438 47.941c.181 3.42 2.584 6.013 5.588 6.013 3.441 0 5.463-3.107 5.618-6.03zm13.552 98.912c0 11.914-9.693 21.607-21.607 21.607s-21.578-9.693-21.578-21.607 9.68-21.578 21.578-21.578 21.607 9.68 21.607 21.578zm-16 0c0-3.076-2.515-5.578-5.607-5.578-3.076 0-5.578 2.502-5.578 5.578 0 3.092 2.502 5.607 5.578 5.607 3.092 0 5.607-2.515 5.607-5.607z"/></svg>