<svg id="Layer_5" enable-background="new 0 0 64 64" height="512" viewBox="0 0 64 64" width="512" xmlns="http://www.w3.org/2000/svg"><g><path d="m51 29.064v-6.064h6v-22h-14v10h-4v-10h-14v10h-4v-10h-14v22h6v6.064c-5.427.32-12 1.909-12 4.936v24c0 3.411 8.354 5 14 5s14-1.589 14-5v-5h6v5c0 3.411 8.354 5 14 5s14-1.589 14-5v-24c0-3.027-6.573-4.616-12-4.936zm10 4.936c0 .895-5.067 3-12 3s-12-2.105-12-3 5.067-3 12-3 12 2.105 12 3zm-14.387 16.723-4.781 3.188c-.335.221-.832-.046-.832-.446v-2.465h-18v-2h18v-2.465c0-.401.497-.669.832-.445l4.781 3.188c.242.16.387.431.387.722s-.145.562-.387.723zm-27.613-8.451v-3.509c3.007-.339 6.069-1.049 8-2.16v10.397h-4.823l-.498-.181.595-1.273zm.869 11.758-1.837 1.838-1.198-.56-1.081.445-.454 1.247h-2.299v-2.112c.328.067.662.112 1 .112 2.757 0 5-2.243 5-5s-2.243-5-5-5c-.338 0-.672.045-1 .112v-2.112h2.299l.299.823.203.442 1.031.426 1.2-.56 1.837 1.838-.562 1.201.447 1.077 1.246.454v2.598l-.823.3-.447.212-.423 1.019zm-4.869-15.03c.637 0 1.31-.023 2-.064v2.888l-.299-.824h-3.701v-2.064c.69.041 1.363.064 2 .064zm-2 8.194c.322-.114.655-.194 1-.194 1.654 0 3 1.346 3 3s-1.346 3-3 3c-.345 0-.678-.08-1-.195zm29.941-2.768c-.418-.279-.904-.426-1.406-.426-1.398 0-2.535 1.138-2.535 2.535v.465h-2v-10.398c1.931 1.111 4.993 1.821 8 2.16v7.036zm2.059-41.426h10v18h-10zm-18 0h10v18h-10zm-18 0h10v18h-10zm6 20h6v-10h4v10h14v-10h4v10h6v6c-5.646 0-14 1.589-14 5v13h-6v-13c0-3.411-8.354-5-14-5zm0 8c6.933 0 12 2.105 12 3s-5.067 3-12 3-12-2.105-12-3 5.067-3 12-3zm-12 5.602c1.931 1.111 4.993 1.821 8 2.16v3.992c-5.282-.631-8-2.176-8-2.754zm0 6.013c2.36 1.335 6.186 1.93 8 2.148v3.992c-5.282-.632-8-2.177-8-2.755zm0 6c2.36 1.335 6.186 1.93 8 2.148v3.992c-5.282-.632-8-2.177-8-2.755zm0 9.385v-3.385c2.36 1.335 6.186 1.93 8 2.148v3.996c-4.794-.576-8-2.048-8-2.759zm10 2.936v-1.936h3.701l.299-.824v2.76c-.648.038-1.312.064-2 .064s-1.352-.026-2-.064zm14-2.936c0 .711-3.206 2.183-8 2.759v-3.031l3.274-3.274-.595-1.273.498-.181h4.823zm10 0v-5h2v.465c0 1.397 1.137 2.535 2.535 2.535.502 0 .988-.147 1.406-.426l2.059-1.372v6.557c-4.794-.576-8-2.048-8-2.759zm10 2.936v-8.067l.723-.482c.799-.533 1.277-1.426 1.277-2.387s-.478-1.854-1.277-2.387l-.723-.481v-8.195c.69.04 1.363.063 2 .063s1.31-.023 2-.064v22c-.648.038-1.312.064-2 .064s-1.352-.026-2-.064zm6-.177v-3.997c1.813-.217 5.64-.812 8-2.147v3.385c0 .711-3.206 2.183-8 2.759zm0-6.005v-3.992c1.811-.217 5.64-.812 8-2.148v3.386c0 .578-2.718 2.125-8 2.754zm0-6v-3.992c1.811-.217 5.64-.812 8-2.148v3.386c0 .577-2.718 2.124-8 2.754zm0-6v-3.992c3.007-.339 6.069-1.049 8-2.16v3.398c0 .577-2.718 2.124-8 2.754z"/><path d="m47 5h6v2h-6z"/><path d="m47 9h6v2h-6z"/><path d="m47 13h6v2h-6z"/><path d="m47 17h6v2h-6z"/><path d="m29 5h6v2h-6z"/><path d="m29 9h6v2h-6z"/><path d="m29 13h6v2h-6z"/><path d="m29 17h6v2h-6z"/><path d="m11 5h6v2h-6z"/><path d="m11 9h6v2h-6z"/><path d="m11 13h6v2h-6z"/><path d="m11 17h6v2h-6z"/></g></svg>