<svg id="Layer_1" enable-background="new 0 0 512 512" viewBox="0 0 512 512" xmlns="http://www.w3.org/2000/svg"><path d="m325.28 169.64c18.33-17.97 29.72-42.99 29.72-70.62 0-54.6-44.42-99.02-99.01-99.02s-99.01 44.42-99.01 99.01c0 27.63 11.39 52.65 29.72 70.63.31.36.65.7 1.03 1 17.78 16.94 41.83 27.36 68.27 27.36s50.49-10.41 68.27-27.36c.36-.3.7-.63 1.01-1zm-69.29-153.65c45.78 0 83.03 37.25 83.03 83.03 0 18.82-6.31 36.19-16.91 50.12-8.99-17.03-26.92-28.38-46.85-28.38h-2.4c13.48-6.35 22.84-20.06 22.84-35.92 0-21.9-17.82-39.71-39.71-39.71-21.88 0-39.69 17.82-39.69 39.71 0 15.86 9.35 29.56 22.82 35.92h-2.41c-19.93 0-37.86 11.35-46.85 28.38-10.6-13.94-16.91-31.3-16.91-50.12.01-45.78 37.25-83.03 83.04-83.03zm-23.7 68.85c0-13.08 10.63-23.73 23.7-23.73 13.08 0 23.73 10.64 23.73 23.73 0 13.07-10.64 23.7-23.73 23.7-13.07 0-23.7-10.63-23.7-23.7zm-30.53 76.95c5.04-14.74 19.09-25.04 34.95-25.04h38.55c15.86 0 29.91 10.3 34.95 25.04-14.56 12.59-33.51 20.23-54.23 20.23s-39.66-7.65-54.22-20.23zm284.12 251.19c0-54.6-44.42-99.01-99.01-99.01s-99.01 44.42-99.01 99.01c0 27.62 11.37 52.62 29.67 70.6.34.4.71.77 1.13 1.1 17.77 16.92 41.8 27.32 68.22 27.32s50.45-10.4 68.23-27.32c.41-.33.78-.69 1.12-1.09 18.28-17.98 29.65-42.99 29.65-70.61zm-99.02-83.02c45.78 0 83.03 37.25 83.03 83.03 0 18.83-6.31 36.2-16.91 50.14-8.99-17.04-26.92-28.4-46.84-28.4h-2.34c13.45-6.37 22.78-20.07 22.78-35.91 0-21.88-17.82-39.69-39.71-39.69s-39.71 17.8-39.71 39.69c0 15.84 9.33 29.55 22.78 35.91h-2.34c-19.92 0-37.85 11.36-46.84 28.4-10.6-13.94-16.91-31.32-16.91-50.14-.01-45.79 37.23-83.03 83.01-83.03zm-23.72 68.85c0-13.07 10.64-23.7 23.73-23.7s23.73 10.63 23.73 23.7c0 13.08-10.64 23.73-23.73 23.73s-23.73-10.65-23.73-23.73zm-30.51 76.96c5.05-14.75 19.1-25.06 34.95-25.06h38.55c15.86 0 29.9 10.31 34.95 25.06-14.56 12.59-33.51 20.23-54.23 20.23-20.7.01-39.66-7.63-54.22-20.23zm-207.52-161.8c-54.58 0-98.99 44.42-98.99 99.01 0 27.55 11.31 52.5 29.52 70.47.39.49.85.93 1.35 1.31 17.77 16.87 41.75 27.24 68.12 27.24 26.42 0 50.45-10.4 68.22-27.32.41-.33.79-.7 1.13-1.1 18.3-17.98 29.67-42.98 29.67-70.6-.01-54.59-44.42-99.01-99.02-99.01zm-54.22 161.79c5.05-14.75 19.1-25.05 34.95-25.05h38.55c15.86 0 29.9 10.31 34.95 25.06-14.56 12.59-33.51 20.23-54.23 20.23-20.71.01-39.67-7.64-54.22-20.24zm30.52-76.95c0-13.07 10.63-23.7 23.7-23.7 13.08 0 23.73 10.63 23.73 23.7 0 13.08-10.64 23.73-23.73 23.73-13.07 0-23.7-10.65-23.7-23.73zm89.82 64.31c-8.99-17.04-26.92-28.4-46.84-28.4h-2.34c13.45-6.37 22.78-20.07 22.78-35.91 0-21.88-17.82-39.69-39.71-39.69-21.88 0-39.69 17.8-39.69 39.69 0 15.84 9.32 29.55 22.77 35.91h-2.36c-19.92 0-37.84 11.35-46.83 28.38-10.59-13.94-16.89-31.31-16.89-50.13 0-45.78 37.23-83.03 83-83.03 45.78 0 83.03 37.25 83.03 83.03-.01 18.84-6.32 36.21-16.92 50.15zm-82.21-157.11c1.32 0 2.66-.24 3.95-.75 4.65-1.82 7.42-6.55 6.74-11.47-3.28-24.1 5.88-48.22 24.05-64.16l6.81 9.01c2.6 3.51 7.02 5.08 11.28 3.98 4.28-1.1 7.4-4.61 7.98-8.96l7.63-54.11c.76-5.78-3.31-11.2-9.16-12.08l-54.08-7.63c-.04-.01-.08-.01-.13-.02-4.25-.53-8.31 1.41-10.57 5.06-.05.08-.1.16-.14.24-2.17 3.8-1.86 8.45.78 11.9l7.2 9.58c-14.79 14.09-24.2 32.82-26.64 53.24-2.62 21.85 2.91 43.73 15.54 61.58 2.04 2.95 5.34 4.59 8.76 4.59zm16.37-110.54c.02-.02.05-.04.07-.06 4.29-3.74 4.94-10.15 1.5-14.64l-2.51-3.34 36.43 5.14-5.13 36.42-2.46-3.26c-1.75-2.37-4.3-3.86-7.19-4.22-2.77-.38-5.53.32-7.8 1.97-.04.03-.08.06-.13.09-19.27 14.58-31.49 36.23-34.42 59.58-8.85-27.21-.98-58.41 21.64-77.68zm209.14-15.85 7.63 54.15c.65 4.31 3.77 7.78 7.96 8.85 4.28 1.1 8.71-.47 11.32-3.99l6.78-9c18.17 15.92 27.32 40.04 24.03 64.21-.63 4.91 2.15 9.61 6.77 11.42 1.28.5 2.61.74 3.93.74 3.4 0 6.7-1.62 8.77-4.54 12.65-17.88 18.17-39.77 15.55-61.62-2.45-20.42-11.86-39.15-26.64-53.25l7.25-9.62c2.58-3.44 2.86-8.09.72-11.85-.05-.08-.09-.16-.14-.24-2.26-3.65-6.31-5.6-10.57-5.06-.04 0-.08.01-.13.02l-54.16 7.64c-5.77.87-9.85 6.28-9.07 12.14zm53-2.19-2.53 3.36c-3.43 4.54-2.72 10.98 1.61 14.67 22.63 19.29 30.5 50.53 21.62 77.74-2.92-23.39-15.14-45.05-34.44-59.64-.04-.03-.08-.06-.12-.09-1.87-1.36-4.07-2.07-6.33-2.07-.49 0-.99.03-1.48.1-2.89.37-5.43 1.87-7.18 4.23l-2.45 3.25-5.14-36.43z"/></svg>