<svg id="Layer_1" enable-background="new 0 0 66 66" height="512" viewBox="0 0 66 66" width="512" xmlns="http://www.w3.org/2000/svg"><g><g><path d="m15.68 37.05 2.28.45c.21.71.48 1.41.81 2.1l-1.38 1.88c-.28.38-.24.9.08 1.24l3.88 4.06c.32.34.84.39 1.23.13l1.94-1.3c.67.37 1.36.67 2.06.91l.34 2.29c.07.46.46.81.93.82l5.61.12h.02c.46 0 .85-.32.94-.77l.46-2.29c.72-.21 1.43-.49 2.12-.82l1.49 1.1c.02.02.07.05.11.07l.26.2c.37.28.9.24 1.24-.08l4.06-3.88c.34-.32.39-.84.14-1.23l-1.28-1.94c.36-.65.67-1.34.91-2.06l2.31-.36c.46-.07.8-.46.81-.93l.14-5.61c.01-.47-.31-.88-.77-.97l-2.27-.46c-.22-.74-.49-1.44-.82-2.11l1.38-1.87c.28-.38.25-.9-.08-1.24l-3.87-4.06c-.32-.34-.84-.39-1.23-.14l-1.94 1.3c-.66-.36-1.35-.66-2.06-.91l-.35-2.3c-.07-.46-.46-.81-.93-.82l-5.61-.11c-.47.01-.87.32-.96.77l-.46 2.29c-.73.21-1.44.49-2.11.82l-1.87-1.37c-.38-.28-.9-.24-1.23.08l-4.06 3.88c-.34.32-.39.84-.14 1.23l1.28 1.93c-.13.23-.25.48-.37.74-.2.43-.38.87-.54 1.33l-2.31.36c-.46.07-.8.46-.81.93l-.14 5.61c-.03.49.3.9.76.99zm1.27-5.73 2.1-.33c.37-.06.67-.32.77-.68.17-.57.38-1.12.62-1.64.2-.42.39-.77.58-1.09.2-.32.19-.72-.02-1.04l-1.16-1.76 2.9-2.77 1.7 1.25c.3.22.7.25 1.03.07.81-.45 1.68-.79 2.67-1.06.04-.01.08-.02.13-.03.36-.09.63-.38.7-.74l.42-2.08 4 .08.32 2.09c.06.37.32.67.68.78.96.28 1.88.69 2.73 1.2.32.19.72.18 1.03-.02l1.76-1.18 2.75 2.89-1.26 1.7c-.22.3-.25.71-.07 1.04.47.85.83 1.79 1.08 2.79.09.36.38.64.74.71l2.06.42-.1 4-2.1.33c-.37.06-.67.32-.77.68-.29.97-.69 1.89-1.21 2.72-.2.32-.19.72.02 1.03l1.17 1.77-2.9 2.78-1.69-1.25c-.3-.22-.7-.25-1.03-.07-.89.49-1.83.85-2.8 1.08-.36.09-.64.38-.72.74l-.42 2.09-4-.08-.31-2.08c-.06-.37-.32-.68-.69-.78-.94-.27-1.86-.68-2.72-1.21-.32-.19-.72-.19-1.04.02l-1.77 1.19-2.76-2.89 1.26-1.71c.22-.3.25-.7.07-1.02-.48-.9-.84-1.84-1.07-2.79-.09-.37-.38-.65-.75-.72l-2.07-.41z"/><path d="m28.23 40.64c.89.36 1.83.54 2.81.54.97 0 1.91-.18 2.8-.54 2.9-1.15 4.77-3.91 4.77-7.03 0-4.17-3.39-7.56-7.56-7.56s-7.56 3.39-7.56 7.56c-.01 3.11 1.86 5.87 4.74 7.03zm2.82-12.67c3.11 0 5.64 2.53 5.64 5.64 0 2.33-1.4 4.39-3.56 5.25-1.3.53-2.86.53-4.18 0-2.15-.87-3.55-2.93-3.55-5.25.01-3.11 2.54-5.64 5.65-5.64z"/><path d="m64.13 27.94c-.36-.15-.77-.07-1.05.21l-7.68 7.68v-24.28-.01c0-3-2.44-5.45-5.45-5.45h-2.4v-1.21c0-1.54-1.25-2.8-2.79-2.8h-.1c-1.54 0-2.79 1.25-2.79 2.8v1.21h-3.76v-1.21c0-1.54-1.25-2.8-2.89-2.8-1.54 0-2.8 1.25-2.8 2.8v1.21h-3.76v-1.21c0-1.54-1.25-2.8-2.89-2.8-1.54 0-2.8 1.25-2.8 2.8v1.21h-3.76v-1.21c0-1.54-1.25-2.8-2.89-2.8-1.54 0-2.8 1.25-2.8 2.8v1.21h-2.39c-3.01 0-5.45 2.44-5.45 5.44v5.44h-1.44c-1.64 0-2.97 1.33-2.97 2.97v33.06c0 .01.01.03.01.04 0 .11.02.21.06.32 0 .01 0 .02.01.02v.01l4.44 9.93c.04.1.11.19.18.26.02.02.05.04.07.06.06.05.13.1.2.14.03.01.06.03.09.04.11.04.22.07.33.07h57.09c.53 0 .96-.43.96-.96v-34.11c.02-.38-.22-.74-.58-.88zm-20.32-23.06c0-.48.39-.87.86-.87h.1c.48 0 .86.39.86.87v4.49c0 .48-.39.87-.86.87h-.1c-.48 0-.86-.39-.86-.87zm-9.44 0c0-.48.39-.87.97-.87.48 0 .87.39.87.87v2.14c0 .01-.01.02-.01.03s.01.02.01.03v2.29c0 .48-.39.87-.97.87-.48 0-.87-.39-.87-.87zm-9.45 0c0-.48.39-.87.97-.87.48 0 .87.39.87.87v2.17s0 0 0 0v2.32c0 .48-.39.87-.97.87-.48 0-.87-.39-.87-.87zm-9.44 0c0-.48.39-.87.97-.87.48 0 .87.39.87.87v2.14c0 .01-.01.02-.01.03s.01.02.01.03v2.29c0 .48-.39.87-.97.87-.48 0-.87-.39-.87-.87zm-7.85 6.66c0-1.94 1.58-3.52 3.53-3.52h2.39v1.36c0 1.54 1.25 2.8 2.89 2.8 1.54 0 2.8-1.25 2.8-2.8v-1.37h3.76v1.36c0 1.54 1.25 2.8 2.89 2.8 1.54 0 2.8-1.25 2.8-2.8v-1.36h3.76v1.36c0 1.54 1.25 2.8 2.89 2.8 1.54 0 2.8-1.25 2.8-2.8v-1.36h3.76v1.36c0 1.54 1.25 2.8 2.79 2.8h.1c1.54 0 2.79-1.25 2.79-2.8v-1.36h2.4c1.94 0 3.52 1.58 3.52 3.52v.01 26.21l-24.26 24.24h-21.08l1.01-2.26 2.83-6.32c.05-.12.08-.25.08-.38 0-.01 0-.01 0-.02v-.06c0-.01 0-.01 0-.02v-32.98c0-1.64-1.33-2.97-2.97-2.97h-1.48zm2.52 15.16v25.35h-2.51v-25.35zm-4.44 25.35h-2.51v-25.35h2.52v25.35zm3.92 1.93-2.59 5.79-.37.83-2.96-6.61h5.92zm-6.43-34.03c0-.58.47-1.05 1.05-1.05h4.86c.58 0 1.05.47 1.05 1.05v4.82h-6.96zm57.8 42.04v-1.22c0-.53-.43-.96-.96-.96s-.96.43-.96.96v1.22h-3.48v-1.22c0-.53-.43-.96-.96-.96s-.96.43-.96.96v1.22h-3.48v-1.22c0-.53-.43-.96-.96-.96s-.96.43-.96.96v1.22h-3.48v-1.22c0-.53-.43-.96-.96-.96s-.96.43-.96.96v1.22h-3.48v-1.22c0-.53-.43-.96-.96-.96s-.96.43-.96.96v1.22h-5.5l23.16-23.16 7.68-7.68v7.42h-1.34c-.53 0-.96.43-.96.96s.43.96.96.96h1.34v3.48h-1.34c-.53 0-.96.43-.96.96s.43.96.96.96h1.34v3.48h-1.34c-.53 0-.96.43-.96.96s.43.96.96.96h1.34v3.48h-1.34c-.53 0-.96.43-.96.96s.43.96.96.96h1.34v5.29h-1.82z"/><path d="m56.99 43.95c-.36-.15-.77-.07-1.05.21l-10.96 10.97c-.28.28-.36.69-.21 1.05s.5.59.89.59h10.97c.53 0 .96-.43.96-.96v-10.97c-.01-.39-.24-.74-.6-.89zm-1.33 10.9h-7.69l7.69-7.68z"/></g></g></svg>