<?xml version="1.0"?>
<svg xmlns="http://www.w3.org/2000/svg" id="Icons" viewBox="0 0 74 74" width="512" height="512"><path d="M40.427,72H33.573a2.982,2.982,0,0,1-2.967-2.556l-.675-4.508a28.532,28.532,0,0,1-7.688-3.19l-3.662,2.712a3.017,3.017,0,0,1-3.907-.29L9.832,59.326a3.017,3.017,0,0,1-.289-3.907l2.711-3.662a28.541,28.541,0,0,1-3.19-7.688l-4.508-.675A2.982,2.982,0,0,1,2,40.427V33.573a2.982,2.982,0,0,1,2.556-2.967l4.508-.675a28.532,28.532,0,0,1,3.19-7.688L9.542,18.581a3.018,3.018,0,0,1,.29-3.907l4.842-4.842a3.015,3.015,0,0,1,3.907-.289l3.662,2.711a28.532,28.532,0,0,1,7.688-3.19l.675-4.508A2.982,2.982,0,0,1,33.573,2h6.854a2.982,2.982,0,0,1,2.967,2.556l.675,4.508a28.532,28.532,0,0,1,7.688,3.19l3.662-2.712a3.017,3.017,0,0,1,3.907.29l4.842,4.842a3.017,3.017,0,0,1,.289,3.907l-2.711,3.662a28.532,28.532,0,0,1,3.19,7.688l4.508.675A2.982,2.982,0,0,1,72,33.573v6.854a2.982,2.982,0,0,1-2.556,2.967l-4.508.675a28.541,28.541,0,0,1-3.19,7.688l2.712,3.662a3.018,3.018,0,0,1-.29,3.907l-4.842,4.842a3.016,3.016,0,0,1-3.907.289l-3.662-2.711a28.532,28.532,0,0,1-7.688,3.19l-.675,4.508A2.982,2.982,0,0,1,40.427,72ZM22.19,59.54a1,1,0,0,1,.533.154,26.556,26.556,0,0,0,8.317,3.451,1,1,0,0,1,.769.828l.775,5.176a1,1,0,0,0,.989.852h6.854a1,1,0,0,0,.989-.853l.775-5.175a1,1,0,0,1,.769-.828,26.556,26.556,0,0,0,8.317-3.451,1,1,0,0,1,1.128.042l4.2,3.114a1,1,0,0,0,1.3-.1l4.842-4.842a1.006,1.006,0,0,0,.1-1.3l-3.114-4.2a1,1,0,0,1-.042-1.128,26.568,26.568,0,0,0,3.451-8.317,1,1,0,0,1,.828-.769l5.176-.775A1,1,0,0,0,70,40.427V33.573a1,1,0,0,0-.853-.989l-5.175-.775a1,1,0,0,1-.828-.769,26.556,26.556,0,0,0-3.451-8.317,1,1,0,0,1,.042-1.128l3.114-4.2a1,1,0,0,0-.1-1.3l-4.842-4.842a1,1,0,0,0-1.3-.1l-4.2,3.114a1,1,0,0,1-1.128.042,26.556,26.556,0,0,0-8.317-3.451,1,1,0,0,1-.769-.828l-.775-5.176A1,1,0,0,0,40.427,4H33.573a1,1,0,0,0-.989.853l-.775,5.175a1,1,0,0,1-.769.828,26.556,26.556,0,0,0-8.317,3.451,1,1,0,0,1-1.128-.042l-4.2-3.114a1,1,0,0,0-1.3.1l-4.842,4.842a1.006,1.006,0,0,0-.1,1.3l3.114,4.2a1,1,0,0,1,.042,1.128,26.556,26.556,0,0,0-3.451,8.317,1,1,0,0,1-.828.769l-5.176.775A1,1,0,0,0,4,33.573v6.854a1,1,0,0,0,.853.989l5.175.775a1,1,0,0,1,.828.769,26.568,26.568,0,0,0,3.451,8.317,1,1,0,0,1-.042,1.128l-3.114,4.2a1,1,0,0,0,.1,1.3l4.842,4.842a1.008,1.008,0,0,0,1.3.1l4.2-3.114A1,1,0,0,1,22.19,59.54Z"/><path d="M37,58A21,21,0,1,1,58,37,21.024,21.024,0,0,1,37,58Zm0-40A19,19,0,1,0,56,37,19.022,19.022,0,0,0,37,18Z"/><path d="M37.025,46.549a7.559,7.559,0,0,1-5.38-2.2c-2.764-2.764-5.222-14.385-5.494-15.7a1,1,0,0,1,1.607-.98,18.309,18.309,0,0,0,6.047,2.924c.982.267,2.28.475,3.535.676,2.962.475,4.823.825,5.692,1.694a7.91,7.91,0,0,1-.221,11.167A8.187,8.187,0,0,1,37.025,46.549Zm-8.386-15.93c.99,4.185,2.8,10.694,4.419,12.316a6.061,6.061,0,0,0,8.56-8.56c-.473-.473-2.953-.87-4.594-1.133-1.307-.209-2.658-.426-3.743-.72A20.756,20.756,0,0,1,28.639,30.619Z"/><path d="M46.871,46.326a1,1,0,0,1-.22-.024c-6.412-1.438-12.885-9.047-13.158-9.371a1,1,0,0,1,1.529-1.289c.063.074,6.314,7.418,12.066,8.708a1,1,0,0,1-.218,1.976Z"/></svg>
