<svg clip-rule="evenodd" fill-rule="evenodd" stroke-linejoin="round" stroke-miterlimit="2" viewBox="0 0 510 510" xmlns="http://www.w3.org/2000/svg"><path d="m165.245 452.141 4.797 8.475c.004.007.007.013.011.02 4.852 8.63 1.774 19.643-6.807 24.489l-19.021 10.781c-.008.005-.016.009-.024.014-8.631 4.852-19.643 1.774-24.492-6.811l-55.936-98.837c-4.897-8.639-1.818-19.663 6.774-24.516l19.044-10.781.007-.004c8.588-4.851 19.605-1.803 24.495 6.785l.011.018 3.769 6.661 48.713-28.204c15.297-8.846 30.943-14.534 47.744-9.079 15.977 5.181 42.057 16.357 68.676 21.167.353.064.701.151 1.042.261 14.108 4.568 22.657 18.847 18.804 33.172-.322 1.202-.702 2.358-1.137 3.465 1.891-.707 3.756-1.592 5.599-2.666l67.825-39.502c25.143-14.647 41.93-12.855 51.418-6.489 8.326 5.585 12.208 15.109 11.959 24.471-.252 9.47-4.802 18.497-12.229 23.071l-123.071 75.773c-13.251 8.179-27.767 10.103-42.804 6.091l-.009-.002-86.075-23.068zm-9.137 16.339-55.92-98.81-.007-.011c-.548-.945-1.763-1.294-2.714-.757l-19.037 10.778-.007.003c-.945.534-1.269 1.75-.731 2.699l.003.004 55.938 98.842.004.006c.537.952 1.761 1.276 2.718.741l19.002-10.769.01-.006c.953-.538 1.277-1.763.741-2.72zm1.256-30.265 11.833-6.833c1.838-1.061 4.022-1.348 6.072-.799l89.269 23.925c10.633 2.836 20.905 1.534 30.275-4.249l.008-.004 123.076-75.777c3.101-1.91 4.52-5.918 4.625-9.872.313-11.785-11.557-19.911-39.329-3.732l-67.823 39.501c-11.137 6.49-22.809 8.293-35.53 6.268-.009-.001-.018-.003-.027-.004l-8.407-1.368c-.004-.001-29.894-7.84-45.672-12.08-4.264-1.146-6.795-5.538-5.649-9.802s5.538-6.796 9.802-5.65c15.341 4.123 29.171 8.646 44.062 11.727 6.828.737 11.879-2.007 13.451-7.865l.001-.003c1.585-5.892-2.131-11.573-7.837-13.643-27.21-5.011-53.836-16.287-70.172-21.584l-.003-.001c-12.32-4-23.576 1.225-34.792 7.712l-48.843 28.278zm-63.219-58.772c4.317-.643 8.326 2.338 8.968 6.655.617 4.317-2.364 8.352-6.681 8.969-4.317.642-8.326-2.364-8.968-6.682-.617-4.317 2.364-8.326 6.681-8.942zm320.93-193.204c-1.267 4.103-5.577 6.492-9.75 5.353-4.259-1.163-6.773-5.566-5.61-9.825.305-1.116.591-2.237.859-3.364.61-2.567 2.447-4.668 4.909-5.616l17.044-6.56v-25.223l-17.044-6.559c-2.464-.949-4.302-3.053-4.911-5.622-2.61-11.018-6.95-21.494-12.882-31.122-1.383-2.245-1.572-5.026-.504-7.437l7.404-16.716-17.832-17.832-16.712 7.43c-2.412 1.073-5.199.886-7.447-.499-9.629-5.933-20.105-10.273-31.09-12.884-2.569-.61-4.671-2.449-5.618-4.914 0 0-6.562-17.076-6.562-17.076h-25.224l-6.594 17.087c-.949 2.46-3.049 4.294-5.614 4.903-10.985 2.611-21.462 6.951-31.091 12.884-2.247 1.385-5.034 1.572-7.447.499l-16.711-7.43-17.826 17.826 7.43 16.712c1.073 2.412.886 5.199-.499 7.447-5.937 9.635-10.279 20.118-12.925 31.144-.614 2.56-2.449 4.654-4.906 5.6l-17.043 6.559v25.223l17.043 6.56c2.455.945 4.289 3.036 4.905 5.593 2.645 10.989 6.984 21.505 12.919 31.103 1.391 2.25 1.58 5.041.506 7.458 0 0-7.43 16.711-7.431 16.711l17.833 17.833 16.716-7.405c2.404-1.064 5.177-.88 7.419.493 4.788 2.934 9.785 5.491 14.953 7.643 4.076 1.698 6.008 6.385 4.31 10.461-1.697 4.076-6.384 6.007-10.461 4.31-4.626-1.927-9.134-4.136-13.501-6.612l-17.973 7.961c-3.023 1.339-6.559.68-8.897-1.658l-25.598-25.598c-2.341-2.341-2.998-5.882-1.653-8.907 0 0 7.983-17.954 7.983-17.954-5.016-8.798-8.907-18.204-11.615-27.977l-18.332-7.056c-3.088-1.188-5.126-4.156-5.126-7.466v-36.209c0-3.309 2.038-6.277 5.126-7.466 0 0 18.329-7.054 18.328-7.053 2.709-9.798 6.602-19.19 11.621-28.01l-7.985-17.96c-1.345-3.026-.688-6.567 1.653-8.908l25.598-25.598c2.341-2.34 5.882-2.998 8.907-1.653 0 0 17.96 7.986 17.96 7.986 8.82-5.019 18.209-8.909 27.981-11.594l7.085-18.362c1.191-3.085 4.157-5.12 7.464-5.12h36.209c3.311 0 6.28 2.04 7.467 5.131 0 0 7.052 18.353 7.052 18.352 9.77 2.686 19.156 6.575 27.974 11.593l17.96-7.986c3.025-1.345 6.566-.687 8.907 1.653l25.598 25.598c2.338 2.339 2.997 5.874 1.658 8.897 0 0-7.958 17.964-7.958 17.964 5.022 8.824 8.914 18.22 11.6 28.02l18.317 7.05c3.088 1.189 5.126 4.157 5.126 7.466v36.209c0 3.31-2.038 6.278-5.126 7.466zm-52.929-60.703c1.743 4.056-.136 8.765-4.193 10.508-4.056 1.743-8.765-.136-10.508-4.193-8.445-19.655-27.987-33.41-50.742-33.41-30.476 0-55.156 24.68-55.156 55.156 0 25.065 16.688 46.235 39.569 52.962 4.236 1.246 6.664 5.696 5.419 9.932-1.246 4.236-5.696 6.664-9.932 5.418-29.517-8.678-51.056-35.978-51.056-68.312 0-39.316 31.839-71.156 71.156-71.156 29.348 0 54.551 17.744 65.443 43.095zm10.453 32.012.005.009 72.727 125.941.003.004c4.33 7.521 4.33 16.365-.008 23.898l-.007.013c-4.353 7.497-12.014 11.934-20.697 11.934h-145.428c-8.668 0-16.357-4.445-20.693-11.955l-.003-.004c-4.331-7.521-4.331-16.365.002-23.89l72.712-125.941c4.336-7.53 12.025-11.96 20.696-11.96 8.691 0 16.354 4.426 20.691 11.951zm-13.861 7.992c-1.43-2.484-3.961-3.943-6.83-3.943-2.861 0-5.399 1.459-6.832 3.947l-72.713 125.942c-1.434 2.492-1.435 5.422-.002 7.914 1.433 2.477 3.97 3.947 6.833 3.947h145.428c2.876 0 5.408-1.476 6.853-3.955 1.428-2.49 1.426-5.416-.007-7.905l-72.727-125.942zm-6.83 94.984c-4.525 0-8.224-3.574-8.385-8.099l-2.137-58.787c-.072-2.371.718-4.435 2.352-6.141 1.652-1.706 3.681-2.568 6.051-2.568h4.238c2.37 0 4.417.862 6.051 2.568 1.652 1.706 2.442 3.77 2.352 6.141l-2.118 58.787c-.162 4.525-3.879 8.099-8.404 8.099zm0 32.769c-5.925 0-10.755-4.83-10.755-10.755 0-5.926 4.83-10.756 10.755-10.756 5.926 0 10.756 4.83 10.756 10.756 0 5.925-4.83 10.755-10.756 10.755z"/></svg>