<?xml version="1.0" encoding="UTF-8" standalone="no"?>
<!-- Created with Inkscape (http://www.inkscape.org/) -->

<svg
   version="1.1"
   id="svg744"
   xml:space="preserve"
   width="682.66669"
   height="682.66669"
   viewBox="0 0 682.66669 682.66669"
   xmlns="http://www.w3.org/2000/svg"
   xmlns:svg="http://www.w3.org/2000/svg"><defs
     id="defs748"><clipPath
       clipPathUnits="userSpaceOnUse"
       id="clipPath758"><path
         d="M 0,512 H 512 V 0 H 0 Z"
         id="path756" /></clipPath></defs><g
     id="g750"
     transform="matrix(1.3333333,0,0,-1.3333333,0,682.66667)"><g
       id="g752"><g
         id="g754"
         clip-path="url(#clipPath758)"><g
           id="g760"
           transform="translate(255.4072,271.5928)"><path
             d="M 0,0 H 60.001 C 68.251,0 75,-6.75 75,-15 v -60 c 0,-8.25 -6.749,-15 -14.999,-15 H 0 c -8.25,0 -15,6.75 -15,15 v 60 c 0,8.25 6.75,15 15,15 z"
             style="fill:none;stroke:#000000;stroke-width:15;stroke-linecap:butt;stroke-linejoin:miter;stroke-miterlimit:22.926;stroke-dasharray:none;stroke-opacity:1"
             id="path762" /></g><g
           id="g764"
           transform="translate(393.1562,91.8945)"><path
             d="M 0,0 C 9.942,7.965 18.984,17.006 26.949,26.949"
             style="fill:none;stroke:#000000;stroke-width:15;stroke-linecap:butt;stroke-linejoin:miter;stroke-miterlimit:22.926;stroke-dasharray:none;stroke-opacity:1"
             id="path766" /></g><g
           id="g768"
           transform="translate(216.4648,157.6494)"><path
             d="m 0,0 c -38.09,38.09 -38.09,99.796 0,137.886 38.09,38.09 99.796,38.09 137.886,0 38.09,-38.09 38.09,-99.796 0,-137.886 C 99.796,-38.089 38.09,-38.09 0,0 Z m -21.213,-21.213 c -49.8,49.799 -49.799,130.513 0,180.312 49.799,49.799 130.513,49.799 180.312,0 49.799,-49.799 49.798,-130.513 0,-180.311 -49.799,-49.8 -130.513,-49.8 -180.312,-0.001 z"
             style="fill:none;stroke:#000000;stroke-width:15;stroke-linecap:butt;stroke-linejoin:miter;stroke-miterlimit:22.926;stroke-dasharray:none;stroke-opacity:1"
             id="path770" /></g><g
           id="g772"
           transform="translate(414.2021,69.4468)"><path
             d="m 0,0 -51.942,55.404 m 72.461,-77.29 -10.26,10.943 M -27.053,80.293 83.628,-23.473 c 9.028,-8.464 8.754,-23.065 0.008,-31.811 -8.747,-8.747 -23.349,-9.021 -31.813,0.007 l -21.046,22.448"
             style="fill:none;stroke:#000000;stroke-width:15;stroke-linecap:butt;stroke-linejoin:miter;stroke-miterlimit:22.926;stroke-dasharray:none;stroke-opacity:1"
             id="path774" /></g><g
           id="g776"
           transform="translate(267.3008,429.4995)"><path
             d="M 0,0 H 45.001 C 53.25,0 60,6.751 60,15 v 45 c 0,8.249 -6.751,15 -14.999,15 H 0 C -8.248,75 -15,68.25 -15,60 V 15 C -15,6.75 -8.25,0 0,0 Z m -99.9,75 c -20.711,0 -37.5,-16.789 -37.5,-37.5 0,-20.711 16.789,-37.5 37.5,-37.5 20.711,0 37.5,16.789 37.5,37.5 0,20.711 -16.789,37.5 -37.5,37.5 z m -2.185,-320.536 c -19.693,1.132 -35.315,17.458 -35.315,37.435 0,18.859 13.921,34.464 32.049,37.104 m -139.45,0.396 h 45.001 c 8.25,0 15,-6.752 15,-15 v -45.001 c 0,-8.248 -6.752,-14.999 -15,-14.999 h -45.001 c -8.248,0 -15,6.75 -15,14.999 v 45.001 c 0,8.25 6.75,15 15,15 z m 178.989,63.677 V -62.8 c 0,8.249 -6.751,15 -15,15 h -45.001 c -8.248,0 -14.999,-6.751 -14.999,-15 v -45.001 c 0,-8.249 6.75,-15 14.999,-15 h 44.72 M -222.301,-47.8 c -20.71,0 -37.5,-16.79 -37.5,-37.5 0,-20.711 16.79,-37.501 37.5,-37.501 20.711,0 37.501,16.79 37.501,37.501 0,20.71 -16.79,37.5 -37.501,37.5 z m 200.647,-33.938 c 1.795,19.039 17.822,33.938 37.331,33.938 18.983,0 34.67,-14.106 37.154,-32.408 M -259.801,30 V 15 c 0,-8.25 6.75,-15 15,-15 h 45.001 c 8.25,0 15,6.751 15,15 v 45 c 0,8.249 -6.751,15 -15,15 h -45.001 c -8.249,0 -15,-6.75 -15,-15 V 45"
             style="fill:none;stroke:#000000;stroke-width:15;stroke-linecap:butt;stroke-linejoin:miter;stroke-miterlimit:22.926;stroke-dasharray:none;stroke-opacity:1"
             id="path778" /></g><g
           id="g780"
           transform="translate(300.4082,204.0923)"><path
             d="M 0,0 V 15 M 0,30 V 45"
             style="fill:none;stroke:#000000;stroke-width:15;stroke-linecap:butt;stroke-linejoin:miter;stroke-miterlimit:2.613;stroke-dasharray:none;stroke-opacity:1"
             id="path782" /></g></g></g></g></svg>
