<svg height="512" viewBox="0 0 32 32" width="512" xmlns="http://www.w3.org/2000/svg"><g id="local_seo_globe"><g id="international_finance_x2C__globe_x2C__money_flow_x2C__money_turnover_4_"><g id="global_2_"><g><g fill="rgb(0,0,0)"><path d="m3.682 25.655c-.166 0-.33-.083-.425-.236-3.704-5.946-2.825-13.564 2.137-18.526.195-.195.512-.195.707 0s.195.512 0 .707c-4.632 4.631-5.451 11.741-1.994 17.291.146.234.074.542-.16.688-.084.052-.175.076-.265.076z"/><path d="m26.253 28.253c-.128 0-.256-.049-.354-.146-.195-.195-.195-.512 0-.707 4.907-4.906 5.464-12.777 1.295-18.309-.166-.22-.122-.534.099-.7.219-.165.532-.123.7.099 4.467 5.927 3.871 14.361-1.387 19.617-.097.097-.225.146-.353.146z"/><path d="m24.739 26.205c-.047 0-.094-.006-.141-.02-5.598-1.644-11.6-1.644-17.197 0-.264.076-.543-.074-.62-.339-.078-.265.073-.542.339-.621 5.779-1.696 11.98-1.696 17.76 0 .266.078.417.356.339.621-.064.218-.263.359-.48.359z"/><path d="m16.576 29.972c-.159 0-.316-.076-.413-.218-.155-.228-.097-.539.131-.695 3.854-2.631 6.153-6.952 6.153-11.559 0-2.134-.472-4.182-1.402-6.086-.121-.249-.019-.548.229-.669s.547-.019.669.229c.998 2.042 1.504 4.238 1.504 6.526 0 4.938-2.463 9.567-6.589 12.385-.087.058-.184.087-.282.087z"/><path d="m15.424 29.972c-.098 0-.195-.028-.282-.087-4.126-2.818-6.589-7.447-6.589-12.385 0-2.349.532-4.597 1.583-6.683.125-.248.425-.346.671-.222.247.125.346.425.222.672-.979 1.945-1.476 4.042-1.476 6.233 0 4.606 2.3 8.928 6.153 11.559.228.156.286.467.131.695-.097.142-.254.218-.413.218z"/></g><g><path d="m16 29.868c-.276 0-.5-.224-.5-.5v-12.736c0-.276.224-.5.5-.5s.5.224.5.5v12.736c0 .277-.224.5-.5.5z" fill="rgb(0,0,0)"/></g><g><path d="m27.368 18h-21.522c-.276 0-.5-.224-.5-.5s.224-.5.5-.5h21.522c.276 0 .5.224.5.5s-.223.5-.5.5z" fill="rgb(0,0,0)"/></g><path d="m16 29.994c-3.201 0-6.402-1.218-8.839-3.655-4.874-4.874-4.874-12.804 0-17.678.485-.484 1.009-.93 1.559-1.325.224-.161.536-.111.698.115.161.224.109.537-.114.698-.507.363-.989.774-1.436 1.22-4.483 4.484-4.483 11.78 0 16.264 4.484 4.483 11.779 4.483 16.264 0 4.483-4.484 4.483-11.78 0-16.264-.414-.414-.859-.796-1.322-1.137-.223-.164-.271-.477-.106-.699.164-.224.479-.268.698-.106.504.371.987.786 1.438 1.235 4.874 4.874 4.874 12.805 0 17.678-2.438 2.436-5.639 3.654-8.84 3.654z" fill="rgb(0,0,0)"/></g></g></g><g><path d="m16 15c-.142 0-.276-.06-.372-.166-.189-.209-4.628-5.186-4.628-9.006 0-2.662 2.243-4.828 5-4.828s5 2.166 5 4.828c0 3.821-4.439 8.797-4.628 9.007-.096.105-.23.165-.372.165zm0-13c-2.206 0-4 1.717-4 3.828 0 2.838 2.943 6.632 4 7.903 1.057-1.271 4-5.068 4-7.903 0-2.111-1.794-3.828-4-3.828z" fill="rgb(0,0,0)"/><g><path d="m16 8.5c-1.379 0-2.5-1.122-2.5-2.5s1.121-2.5 2.5-2.5 2.5 1.122 2.5 2.5-1.121 2.5-2.5 2.5zm0-4c-.827 0-1.5.673-1.5 1.5s.673 1.5 1.5 1.5 1.5-.673 1.5-1.5-.673-1.5-1.5-1.5z" fill="rgb(0,0,0)"/></g></g><g fill="rgb(0,0,0)"><circle cx="5" cy="27" r=".5"/><circle cx="26" cy="7" r=".5"/></g></g></svg>