<svg fill="none" height="512" viewBox="0 0 24 24" width="512" xmlns="http://www.w3.org/2000/svg"><path clip-rule="evenodd" d="m2.5 19.25c0 1.7949 1.45507 3.25 3.25 3.25s3.25-1.4551 3.25-3.25c0-1.5385-1.06906-2.8274-2.50486-3.1642.00321-.0281.00486-.0568.00486-.0858v-4.507c1.23747 1.5293 3.12955 2.507 5.25 2.507h3.337c.3385 1.4334 1.6262 2.5 3.163 2.5 1.7949 0 3.25-1.4551 3.25-3.25s-1.4551-3.25-3.25-3.25c-1.5368 0-2.8245 1.0666-3.163 2.5h-3.337c-2.67828 0-4.88815-2.0055-5.20975-4.59675 1.41302-.35298 2.45975-1.63088 2.45975-3.15325 0-1.79493-1.45507-3.25-3.25-3.25s-3.25 1.45507-3.25 3.25c0 1.53853 1.06906 2.82736 2.50486 3.16418-.00321.02816-.00486.0568-.00486.08582v8c0 .029.00165.0577.00486.0858-1.4358.3368-2.50486 1.6257-2.50486 3.1642zm3.25 1.75c-.9665 0-1.75-.7835-1.75-1.75s.7835-1.75 1.75-1.75 1.75.7835 1.75 1.75-.7835 1.75-1.75 1.75zm0-14.5c-.9665 0-1.75-.7835-1.75-1.75s.7835-1.75 1.75-1.75 1.75.7835 1.75 1.75-.7835 1.75-1.75 1.75zm10.75 6.75c0 .9665.7835 1.75 1.75 1.75s1.75-.7835 1.75-1.75-.7835-1.75-1.75-1.75-1.75.7835-1.75 1.75z" fill="rgb(0,0,0)" fill-rule="evenodd"/></svg>