<?xml version="1.0"?>
<svg xmlns="http://www.w3.org/2000/svg" viewBox="0 0 60 60" width="512" height="512"><g id="Outer_Lines" data-name="Outer Lines"><path d="M0,28.943a1.953,1.953,0,0,0,.552,1.441A2.036,2.036,0,0,0,2.011,31h3a2.023,2.023,0,0,0,2-1.942,22.294,22.294,0,0,1,1.1-6.089l16.126,8.676a6.022,6.022,0,0,0,2.2,3.163L11.323,57.085a1.873,1.873,0,0,0-.1,1.929A1.848,1.848,0,0,0,12.854,60H47.146a1.848,1.848,0,0,0,1.634-.986,1.873,1.873,0,0,0-.1-1.929h0L33.562,34.808a5.988,5.988,0,0,0-6.03-10.271L9.586,19.418a23,23,0,0,1,43.405,9.656,2.019,2.019,0,0,0,2,1.926h3a2.036,2.036,0,0,0,1.457-.616A1.951,1.951,0,0,0,60,28.945a30.017,30.017,0,0,0-60,0ZM5.011,29,2,29.016A27.9,27.9,0,0,1,9.471,10.885l2.175,2.175a24.932,24.932,0,0,0-4.1,5.969A1.793,1.793,0,0,0,6.39,21.814,24.319,24.319,0,0,0,5.011,29Zm8.108,29L30,33.12,46.881,58ZM34,30a4,4,0,0,1-1.56,3.154l-.909-1.34a1.846,1.846,0,0,0-3.061,0l-.91,1.341A3.995,3.995,0,1,1,34,30Zm-8.5-3.961a5.975,5.975,0,0,0-1.457,3.235L9.605,21.5ZM13.062,11.648,10.889,9.475A27.925,27.925,0,0,1,29,2.024V5.037A25.049,25.049,0,0,0,13.062,11.648ZM31,5.024v-3A27.919,27.919,0,0,1,49.111,9.475l-2.134,2.134A24.929,24.929,0,0,0,31,5.024ZM54.988,28.979a24.882,24.882,0,0,0-6.595-15.958l2.136-2.136A27.843,27.843,0,0,1,57.989,29Z"/><path d="M29,39V50a1,1,0,0,0,2,0V39a1,1,0,0,0-2,0Z"/><path d="M30,53a1,1,0,0,0-1,1v1a1,1,0,0,0,2,0V54A1,1,0,0,0,30,53Z"/></g></svg>
