<?xml version="1.0" encoding="UTF-8" standalone="no"?>
<!-- Created with Inkscape (http://www.inkscape.org/) -->

<svg
   version="1.1"
   id="svg1485"
   xml:space="preserve"
   width="682.66669"
   height="682.66669"
   viewBox="0 0 700 700"
   xmlns="http://www.w3.org/2000/svg"
   xmlns:svg="http://www.w3.org/2000/svg"><defs
     id="defs1489"><clipPath
       clipPathUnits="userSpaceOnUse"
       id="clipPath1499"><path
         d="M 0,512 H 512 V 0 H 0 Z"
         id="path1497" /></clipPath></defs><g
     id="g1491"
     transform="matrix(1.3333333,0,0,-1.3333333,0,682.66667)"><g
       id="g1493"><g
         id="g1495"
         clip-path="url(#clipPath1499)"><g
           id="g1501"
           transform="translate(252.0308,401.8535)"><path
             d="m 0,0 -8.458,17.254 c -5.824,11.879 -17.988,19.322 -31.216,19.1 l -59.828,-0.661 c -5.921,-0.099 -11.706,-1.786 -16.753,-4.885 -14.539,-8.928 -33.486,-5.319 -43.725,8.329 -12.009,16.005 -7.152,38.925 10.315,48.683 l 8.477,4.736 c 11.843,6.617 25.184,10.09 38.75,10.09 h 86.719 c 28.006,0 53.944,-14.745 68.269,-38.811 l 52.17,-96.944"
             style="fill:none;stroke:#000000;stroke-width:15;stroke-linecap:round;stroke-linejoin:round;stroke-miterlimit:10;stroke-dasharray:none;stroke-opacity:1"
             id="path1503" /></g><g
           id="g1505"
           transform="translate(449.0698,90.02)"><path
             d="m 0,0 v 31.88 c 0,27.35 -5.72,54.4 -16.78,79.41 l -60.13,135.886"
             style="fill:none;stroke:#000000;stroke-width:15;stroke-linecap:round;stroke-linejoin:round;stroke-miterlimit:10;stroke-dasharray:none;stroke-opacity:1"
             id="path1507" /></g><g
           id="g1509"
           transform="translate(252.0298,401.8501)"><path
             d="m 0,0 1.13,-2.3 c 4.42,-9.01 6.35,-19.02 5.61,-29.02 L 3.66,-72.78 c -1.12,-15.03 -9.03,-28.73 -21.49,-37.2 l -1.64,-1.12 c -4.81,-3.27 -10.51,-5.02 -16.33,-5.03 h -21.16 c -6.98,0 -13.72,2.51 -19,7.08 l -8.36,7.22"
             style="fill:none;stroke:#000000;stroke-width:15;stroke-linecap:round;stroke-linejoin:round;stroke-miterlimit:10;stroke-dasharray:none;stroke-opacity:1"
             id="path1511" /></g><g
           id="g1513"
           transform="translate(458.9287,7.5)"><path
             d="m 0,0 h -243.623 c -7.043,0 -12.752,5.709 -12.752,12.752 v 57.012 c 0,7.043 5.709,12.752 12.752,12.752 L 0,82.516 c 7.042,0 12.752,-5.709 12.752,-12.752 V 12.752 C 12.752,5.709 7.042,0 0,0 Z"
             style="fill:none;stroke:#000000;stroke-width:15;stroke-linecap:round;stroke-linejoin:round;stroke-miterlimit:10;stroke-dasharray:none;stroke-opacity:1"
             id="path1515" /></g><g
           id="g1517"
           transform="translate(167.7129,300.0186)"><path
             d="m 0,0 -58.106,50.233 c -19.293,13.457 -45.453,11.121 -62.061,-5.525 -4.794,-3.475 -7.227,-8.807 -7.227,-14.164 0,-4.925 2.061,-9.874 6.244,-13.373 l 39.676,-33.289 c 3.631,-3.044 6.843,-6.555 9.551,-10.45 l 51.389,-73.666 c 9.18,-13.16 22.683,-22.684 38.16,-26.917 l 21.28,-5.82"
             style="fill:none;stroke:#000000;stroke-width:15;stroke-linecap:round;stroke-linejoin:round;stroke-miterlimit:10;stroke-dasharray:none;stroke-opacity:1"
             id="path1519" /></g><g
           id="g1521"
           transform="translate(277.3022,48.7583)"><path
             d="m 0,0 c 0,-8.39 -6.801,-15.191 -15.19,-15.191 -8.39,0 -15.191,6.801 -15.191,15.191 0,8.389 6.801,15.19 15.191,15.19 C -6.801,15.19 0,8.389 0,0 Z"
             style="fill:none;stroke:#000000;stroke-width:15;stroke-linecap:round;stroke-linejoin:round;stroke-miterlimit:10;stroke-dasharray:none;stroke-opacity:1"
             id="path1523" /></g><g
           id="g1525"
           transform="translate(185.6802,287.29)"><path
             d="m 0,0 c -4.09,5.39 -6.51,12.1 -6.51,19.38 v 59.98 c 0,20 16.2,36.2 36.2,36.2 h 36.17"
             style="fill:none;stroke:#000000;stroke-width:15;stroke-linecap:round;stroke-linejoin:round;stroke-miterlimit:10;stroke-dasharray:none;stroke-opacity:1"
             id="path1527" /></g><g
           id="g1529"
           transform="translate(231.3262,338.7227)"><path
             d="M 0,0 22.595,-19.56"
             style="fill:none;stroke:#000000;stroke-width:15;stroke-linecap:round;stroke-linejoin:round;stroke-miterlimit:10;stroke-dasharray:none;stroke-opacity:1"
             id="path1531" /></g><g
           id="g1533"
           transform="translate(228.7998,126.0659)"><path
             d="M 0,0 V -36.046"
             style="fill:none;stroke:#000000;stroke-width:15;stroke-linecap:round;stroke-linejoin:round;stroke-miterlimit:10;stroke-dasharray:none;stroke-opacity:1"
             id="path1535" /></g><g
           id="g1537"
           transform="translate(193.98,170.5)"><path
             d="M 0,0 34.82,-9.52"
             style="fill:none;stroke:#000000;stroke-width:15;stroke-linecap:round;stroke-linejoin:round;stroke-miterlimit:10;stroke-dasharray:none;stroke-opacity:1"
             id="path1539" /></g><g
           id="g1541"
           transform="translate(228.7998,160.98)"><path
             d="M 0,0 H 20.288"
             style="fill:none;stroke:#000000;stroke-width:15;stroke-linecap:round;stroke-linejoin:round;stroke-miterlimit:10;stroke-dasharray:none;stroke-opacity:1"
             id="path1543" /></g></g></g></g></svg>
