<svg id="Layer_1" viewBox="0 0 512 512" xmlns="http://www.w3.org/2000/svg" data-name="Layer 1"><path d="m343.749 430.827h-274.621c-13.606 0-24.718-11.14-24.718-24.746v-331.654c0-13.606 11.112-24.718 24.718-24.718h264.218c13.578 0 24.718 11.112 24.718 24.718v342.085c0 7.88-6.435 14.315-14.315 14.315z" fill="#3589c9" fill-rule="evenodd"/><path d="m73.04 78.339h256.394v323.858h-256.394z" fill="#e2e5e7"/><path d="m283.484 78.452h-164.494v-28.743c0-10.715 8.759-19.474 19.474-19.474h24.973c8.164-12.189 22.054-20.211 37.786-20.211s29.65 8.022 37.786 20.211h24.973c10.715 0 19.502 8.759 19.502 19.474z" fill="#595a66" fill-rule="evenodd"/><g fill="#676873"><path d="m283.484 78.452h-144.453v-28.743c0-10.715 8.787-19.474 19.502-19.474h24.945c6.378-9.524 16.243-16.498 27.78-19.105 11.537 2.608 21.402 9.581 27.751 19.105h24.973c10.715 0 19.502 8.759 19.502 19.474z" fill-rule="evenodd"/><path d="m102.407 325.633c-3.317 0-6.01-2.693-6.01-6.01s2.693-6.01 6.01-6.01h159.392c3.317 0 6.01 2.693 6.01 6.01s-2.693 6.01-6.01 6.01z"/><path d="m102.407 297.91c-3.317 0-6.01-2.693-6.01-6.01s2.693-6.009 6.01-6.009h197.66c3.316 0 6.009 2.693 6.009 6.009s-2.693 6.01-6.009 6.01z"/><path d="m102.407 384.197c-3.317 0-6.01-2.693-6.01-6.01s2.693-6.009 6.01-6.009h159.392c3.317 0 6.01 2.693 6.01 6.009s-2.693 6.01-6.01 6.01z"/><path d="m102.407 356.474c-3.317 0-6.01-2.693-6.01-6.009s2.693-6.01 6.01-6.01h159.392c3.317 0 6.01 2.693 6.01 6.01s-2.693 6.009-6.01 6.009z"/><path d="m102.407 239.347c-3.317 0-6.01-2.693-6.01-6.01s2.693-5.981 6.01-5.981h197.66c3.316 0 6.009 2.665 6.009 5.981s-2.693 6.01-6.009 6.01z"/><path d="m102.407 267.069c-3.317 0-6.01-2.693-6.01-6.01s2.693-6.01 6.01-6.01h197.66c3.316 0 6.009 2.693 6.009 6.01s-2.693 6.01-6.009 6.01z"/></g><path d="m241.163 202.326h-79.852c-3.628 0-6.576-2.948-6.576-6.548v-79.88c0-3.6 2.948-6.548 6.576-6.548h79.852c3.6 0 6.548 2.948 6.548 6.548v79.88c0 3.6-2.948 6.548-6.548 6.548z" fill="#c97629" fill-rule="evenodd"/><path d="m241.163 202.326h-63.354c-3.628 0-6.576-2.948-6.576-6.548v-79.88c0-3.6 2.948-6.548 6.576-6.548h63.354c3.6 0 6.548 2.948 6.548 6.548v79.88c0 3.6-2.948 6.548-6.548 6.548z" fill="#d6853a" fill-rule="evenodd"/><path d="m188.439 109.35h25.597v36.453h-25.597z" fill="#ee2b39"/><path d="m379.466 501.976c-73.049-25.625-93.146-96.151-87.08-177.109 36.51-4.875 67.436-16.469 87.08-31.89 19.672 15.421 50.598 27.014 87.109 31.89 6.066 80.958-14.06 151.483-87.109 177.109z" fill="#3cb54b" fill-rule="evenodd"/><path d="m438.426 349.529c-20.353-4.507-40.932-11.48-58.96-21.628-18 10.148-38.58 17.121-58.932 21.628-.425 49.351 11.452 98.986 58.932 120.983 47.48-21.997 59.386-71.631 58.96-120.983z" fill="#f7b84e" fill-rule="evenodd"/><path d="m438.426 349.529c-20.296-4.507-40.791-11.452-58.791-21.515-.482.198-.964.397-1.446.624-12.728 6.973-26.674 12.444-40.876 16.583.227 47.565 12.416 94.677 57.43 116.447 34.81-24.775 44.051-68.57 43.682-112.139z" fill="#ffcb5b" fill-rule="evenodd"/><path d="m350.41 395.706c-1.672-2.863-.68-6.52 2.183-8.192 2.863-1.644 6.52-.68 8.164 2.183l9.723 16.838 28.658-28.658c2.324-2.324 6.123-2.324 8.476 0 2.324 2.353 2.324 6.151 0 8.504l-34.157 34.157h-.028c-.34.34-.765.68-1.219.936-2.863 1.644-6.52.68-8.192-2.183l-13.606-23.584z" fill="#3cb54b"/><path d="m73.04 78.339h17.405v323.858h-17.405z" fill="#cad1d8"/></svg>