<svg id="Layer_1" enable-background="new 0 0 512 512" viewBox="0 0 512 512" xmlns="http://www.w3.org/2000/svg"><g><g clip-rule="evenodd" fill-rule="evenodd"><path d="m117.7 345.1c-17.7 0-32.1 14.4-32.1 32.1 0 17.8 14.4 32.1 32.1 32.1 17.8 0 32.1-14.4 32.1-32.1s-14.3-32.1-32.1-32.1z" fill="#fad1a2"/><path d="m135.8 410.8h-36.2c-25.6 0-46.6 20.9-46.6 46.6v20.8h129.5v-20.8c-.1-25.7-21-46.6-46.7-46.6z" fill="#6abdc8"/><path d="m394.3 33.8c-17.7 0-32.1 14.4-32.1 32.1 0 17.8 14.4 32.2 32.1 32.2s32.1-14.4 32.1-32.2c0-17.7-14.4-32.1-32.1-32.1z" fill="#fad1a2"/><path d="m412.4 99.5h-36.3c-25.6 0-46.6 21-46.6 46.6v20.7h129.5v-20.7c0-25.6-20.9-46.6-46.6-46.6z" fill="#6abdc8"/><path d="m234.9 149.1h35.1v22.9c12.8 2.4 24.7 7.5 35.1 14.5l16.2-16.2 24.9 24.9-16.2 16.1c7.1 10.4 12.1 22.3 14.5 35.1h22.9v35.1h-22.9c-2.4 12.8-7.5 24.7-14.5 35.1l16.2 16.2-24.9 24.8-16.2-16.2c-10.4 7.1-22.3 12.1-35.1 14.5v22.9h-35.1v-22.8c-12.8-2.4-24.7-7.5-35.1-14.5l-16.2 16.2-24.8-24.8 16.2-16.2c-7.1-10.4-12.1-22.3-14.5-35.1h-22.9v-35.1h22.9c2.4-12.8 7.5-24.7 14.5-35.1l-16.2-16.2 24.8-24.9 16.2 16.2c10.4-7.1 22.3-12.1 35.1-14.5z" fill="#b5b682"/><path d="m252.5 202.7c33.8 0 61.3 27.4 61.3 61.3s-27.4 61.3-61.3 61.3-61.3-27.4-61.3-61.3 27.4-61.3 61.3-61.3z" fill="#fcb13b"/><path d="m397 325.4c0-19.9 0-10 0-29.9-13.2 0-26.4 0-39.5 0l61.7-87.2 61.8 87.2c-13.2 0-26.4 0-39.6 0v42.2c0 107-103.1 116.7-212.1 116.7 96.6-17.6 167.7-48 167.7-129zm-282.1-138.8v29.9h39.5l-61.7 87.2-61.7-87.3h39.5c0-36.9 0-5.3 0-42.2 0-107 103.1-116.7 212.2-116.7-96.6 17.7-167.8 48.1-167.8 129.1z" fill="#cc4342"/></g><path d="m391.1 325.4v-23.9h-33.6c-4.7 0-8-5.4-4.6-9.8l2.9-4.2h-6.5c-2.4 10-6.4 19.6-11.7 28.3l12.8 12.8c2.4 2.3 2.4 6.1 0 8.5l-24.8 24.8c-2.4 2.4-6.2 2.4-8.5 0l-12.8-12.8c-8.7 5.3-18.3 9.3-28.3 11.7v18.1c0 3.3-2.7 6-6 6h-35.1c-3.3 0-6-2.7-6-6v-18.1c-10-2.4-19.5-6.4-28.3-11.7l-12.8 12.8c-2.4 2.4-6.2 2.4-8.5 0l-24.9-24.8c-2.4-2.4-2.4-6.2 0-8.5l12.8-12.8c-5.3-8.7-9.3-18.3-11.7-28.3h-18c-3.3 0-6-2.7-6-6v-22.4l-34 47.9c-2.5 3.5-7.5 3.3-9.8-.1l-61.7-87.1c-2.9-4 .1-9.4 4.9-9.4h33.5v-36.2c0-56.4 27.3-87.3 69-104 40.4-16.2 94.1-18.7 149.2-18.7 7.3 0 8.4 10.9.6 12-47.4 8.7-88.4 20.4-117.4 39.7-28.2 18.8-45 45.1-45 83.3v23.9h33.5c4.7 0 8 5.4 4.6 9.8l-14.3 20.1h10.8c2.4-10 6.4-19.5 11.7-28.3l-12.8-12.8c-2.4-2.4-2.4-6.2 0-8.5l24.9-24.9c2.3-2.4 6.1-2.4 8.5 0l12.8 12.8c8.7-5.3 18.3-9.3 28.3-11.7v-18c0-3.3 2.7-6 6-6h35.1c3.3 0 6 2.7 6 6v18c10 2.4 19.5 6.4 28.3 11.7l12.8-12.8c1.7-1.8 4.3-2.2 6.4-1.3v-18.6c0-26.2 19.4-48.3 45-52-16-14.7-16.6-39.7-1.2-55.1 14.9-14.9 39-14.9 53.9 0 15.4 15.4 14.8 40.4-1.2 55.1 25.5 3.8 45 25.9 45 52v20.7c0 3.3-2.7 6-6 6h-126.5l18 18c2.4 2.3 2.4 6.1 0 8.5l-12.8 12.8c5.3 8.7 9.3 18.3 11.7 28.3h18.1c3.3 0 6 2.7 6 6v16.3l40.9-57.8c2.5-3.5 7.5-3.3 9.8.1l61.7 87.1c2.8 4-.2 9.4-4.9 9.4h-33.6v36.2c0 56.4-27.3 87.3-69 104-40.4 16.2-94.1 18.7-149.2 18.7-7.3 0-8.4-10.9-.6-12 47.4-8.7 88.4-20.4 117.4-39.7 28.4-18.6 45.2-44.9 45.2-83.1zm12-29.9v29.9c0 71.6-53.2 103.4-114.5 121.5 31.9-2 61.5-6.6 85.5-16.2 37.1-14.9 61.4-42.4 61.4-92.9v-42.2c0-3.3 2.7-6 6-6h28l-50.2-70.8-50.1 70.8h27.8c3.4-.1 6.1 2.6 6.1 5.9zm-294.2-79v-29.9c0-71.6 53.2-103.4 114.5-121.5-31.9 2-61.5 6.6-85.5 16.2-37.1 14.9-61.4 42.4-61.4 92.9v42.2c0 3.3-2.7 6-6 6h-28l50.2 70.8 50.2-70.8h-28c-3.3 0-6-2.6-6-5.9zm112.5 50.9c-2-2.7-1.4-6.4 1.2-8.4 2.7-2 6.4-1.4 8.4 1.2l10.2 13.7 33.4-33.4c2.3-2.4 6.1-2.4 8.5 0 2.4 2.3 2.4 6.1 0 8.5l-38.3 38.3c-2.6 2.6-6.9 2.3-9-.7zm31.1-70.7c37.2 0 67.3 30.1 67.3 67.3s-30.1 67.3-67.3 67.3-67.3-30.1-67.3-67.3 30.1-67.3 67.3-67.3zm39.1 28.2c-21.6-21.6-56.6-21.6-78.2 0s-21.6 56.6 0 78.2 56.6 21.6 78.2 0 21.6-56.6 0-78.2zm-27.5-69.8h-23.2v16.6c.2 2.9-1.9 5.6-4.9 6.2-6 1.1-11.7 2.9-17.1 5.1s-10.6 5-15.4 8.3c-2.4 1.8-5.8 1.6-7.9-.5l-11.9-11.9-16.4 16.4 11.9 11.9c2 2 2.4 5.2.7 7.6-3.3 4.9-6.2 10.2-8.5 15.7-2.2 5.3-3.9 10.9-5 16.7-.4 3-2.9 5.3-6 5.3h-16.9v23.1h16.9c2.8 0 5.3 2 5.9 4.9 1.1 5.9 2.9 11.7 5.1 17.1s5 10.6 8.3 15.4c1.8 2.4 1.7 5.8-.5 7.9l-11.9 11.9 16.4 16.4 11.9-11.9c2-2 5.2-2.4 7.6-.7 4.9 3.4 10.2 6.2 15.7 8.5 5.3 2.2 10.9 3.9 16.7 5 3 .3 5.3 2.9 5.3 6v16.9h23.1v-17c0-2.8 2-5.4 4.9-5.9 5.9-1.1 11.7-2.8 17.1-5.1 5.4-2.2 10.6-5 15.4-8.3 2.4-1.8 5.8-1.7 7.9.5l11.9 11.9 16.4-16.4-11.9-11.9c-2-2-2.4-5.2-.7-7.6 6.7-9.9 11.4-21 13.6-32.8.5-2.8 3-4.9 5.9-4.9h16.9v-23.2h-16.9c-2.8 0-5.4-2-5.9-4.9-1.1-6-2.8-11.7-5.1-17.1-2.2-5.4-5-10.6-8.3-15.4-1.8-2.4-1.7-5.8.5-7.9l11.9-11.9-16.4-16.4-11.9 11.9c-2 2-5.2 2.4-7.6.7-4.9-3.3-10.2-6.2-15.7-8.5-5.3-2.2-10.9-3.9-16.7-5-3-.4-5.3-2.9-5.3-6v-16.7zm148.3-49.6h-36.3c-22.3 0-40.6 18.3-40.6 40.6v14.8h117.5v-14.8c0-22.3-18.3-40.6-40.6-40.6zm-18.1-65.7c-23.2 0-34.9 28.2-18.5 44.6s44.6 4.7 44.6-18.5c.1-14.4-11.6-26.1-26.1-26.1zm-258.5 377h-36.2c-22.3 0-40.6 18.3-40.6 40.6v14.7h117.5v-14.7c0-22.3-18.3-40.6-40.7-40.6zm7.7-11.5c25.5 3.8 45 25.9 45 52v20.8c0 3.3-2.7 6-6 6h-129.6c-3.3 0-6-2.7-6-6v-20.8c0-26.2 19.4-48.3 45-52-16-14.7-16.6-39.7-1.2-55.1 14.9-14.9 39-14.9 53.9 0 15.4 15.4 14.9 40.5-1.1 55.1zm-25.8-54.2c-23.2 0-34.9 28.2-18.5 44.6s44.6 4.7 44.6-18.5c.1-14.4-11.7-26.1-26.1-26.1z"/></g></svg>