<svg height="512pt" viewBox="0 0 512 512.05916" width="512pt" xmlns="http://www.w3.org/2000/svg"><path d="m8.855469 52.964844-8.824219 17.65625v264.828125c.0273438 9.738281 7.914062 17.625 17.652344 17.652343h353.105468c9.738282-.027343 17.625-7.914062 17.65625-17.652343v-264.828125l-8.828124-17.65625zm0 0" fill="#a9b0bb"/><path d="m388.445312 70.621094v264.828125c-.03125 9.738281-7.917968 17.625-17.65625 17.652343h-211.863281v-282.480468zm0 0" fill="#636c77"/><path d="m388.445312 17.65625v52.964844h-388.414062v-52.964844c.0273438-9.738281 7.914062-17.6289062 17.652344-17.65625h353.105468c9.738282.0273438 17.625 7.917969 17.65625 17.65625zm0 0" fill="#cad0d7"/><path d="m512.03125 379.585938c.03125 71.992187-57.460938 130.816406-129.433594 132.4375-71.96875 1.625-132.050781-54.554688-135.265625-126.472657-3.210937-71.917969 51.625-133.226562 123.457031-138.023437 2.914063-.265625 5.824219-.355469 8.828126-.355469 3 0 5.914062.089844 8.828124.355469 69.523438 4.644531 123.554688 62.378906 123.585938 132.058594zm0 0" fill="#46ceac"/><path d="m476.71875 379.585938c0 53.628906-43.472656 97.105468-97.101562 97.105468-53.628907 0-97.105469-43.476562-97.105469-97.105468 0-53.628907 43.476562-97.101563 97.105469-97.101563 53.628906 0 97.101562 43.472656 97.101562 97.101563zm0 0" fill="#61ddbc"/><path d="m388.445312 70.621094v176.90625c-2.914062-.265625-5.828124-.355469-8.828124-.355469-3.003907 0-5.914063.089844-8.828126.355469v-176.90625zm0 0" fill="#535e68"/><path d="m388.445312 17.65625v52.964844h-17.65625v-52.964844c-.03125-9.738281-7.917968-17.6289062-17.65625-17.65625h17.65625c9.738282.0273438 17.625 7.917969 17.65625 17.65625zm0 0" fill="#a9b0bb"/><path d="m512.03125 379.585938c-.027344 73.121093-59.296875 132.390624-132.414062 132.414062-2.914063 0-5.828126-.089844-8.652344-.351562 69.480468-4.734376 123.410156-62.5 123.363281-132.144532-.046875-69.644531-54.050781-127.335937-123.539063-131.976562 2.914063-.265625 5.824219-.355469 8.828126-.355469 3 0 5.914062.089844 8.828124.355469 69.523438 4.644531 123.554688 62.378906 123.585938 132.058594zm0 0" fill="#35ba9b"/><path d="m44.167969 44.136719h-8.828125c-4.875 0-8.828125-3.949219-8.828125-8.828125 0-4.875 3.953125-8.824219 8.828125-8.824219h8.828125c4.875 0 8.828125 3.949219 8.828125 8.824219 0 4.878906-3.953125 8.828125-8.828125 8.828125zm0 0" fill="#d94452"/><path d="m88.304688 44.136719h-8.828126c-4.875 0-8.828124-3.949219-8.828124-8.828125 0-4.875 3.953124-8.824219 8.828124-8.824219h8.828126c4.875 0 8.828124 3.949219 8.828124 8.824219 0 4.878906-3.953124 8.828125-8.828124 8.828125zm0 0" fill="#f5b945"/><path d="m132.445312 44.136719h-8.828124c-4.875 0-8.828126-3.949219-8.828126-8.828125 0-4.875 3.953126-8.824219 8.828126-8.824219h8.828124c4.875 0 8.824219 3.949219 8.824219 8.824219 0 4.878906-3.949219 8.828125-8.824219 8.828125zm0 0" fill="#89c053"/><path d="m44.167969 132.414062h-8.828125c-4.875 0-8.828125-3.953124-8.828125-8.828124s3.953125-8.828126 8.828125-8.828126h8.828125c4.875 0 8.828125 3.953126 8.828125 8.828126s-3.953125 8.828124-8.828125 8.828124zm0 0" fill="#b4df80"/><path d="m123.617188 132.414062h-44.140626c-4.875 0-8.828124-3.953124-8.828124-8.828124s3.953124-8.828126 8.828124-8.828126h44.140626c4.875 0 8.828124 3.953126 8.828124 8.828126s-3.953124 8.828124-8.828124 8.828124zm0 0" fill="#eb5463"/><path d="m44.167969 167.722656h-8.828125c-4.875 0-8.828125-3.949218-8.828125-8.824218 0-4.878907 3.953125-8.828126 8.828125-8.828126h8.828125c4.875 0 8.828125 3.949219 8.828125 8.828126 0 4.875-3.953125 8.824218-8.828125 8.824218zm0 0" fill="#b4df80"/><path d="m123.617188 167.722656h-44.140626c-4.875 0-8.828124-3.949218-8.828124-8.824218 0-4.878907 3.953124-8.828126 8.828124-8.828126h44.140626c4.875 0 8.828124 3.949219 8.828124 8.828126 0 4.875-3.953124 8.824218-8.828124 8.824218zm0 0" fill="#eb5463"/><path d="m44.167969 203.035156h-8.828125c-4.875 0-8.828125-3.953125-8.828125-8.828125s3.953125-8.828125 8.828125-8.828125h8.828125c4.875 0 8.828125 3.953125 8.828125 8.828125s-3.953125 8.828125-8.828125 8.828125zm0 0" fill="#b4df80"/><path d="m123.617188 203.035156h-44.140626c-4.875 0-8.828124-3.953125-8.828124-8.828125s3.953124-8.828125 8.828124-8.828125h44.140626c4.875 0 8.828124 3.953125 8.828124 8.828125s-3.953124 8.828125-8.828124 8.828125zm0 0" fill="#eb5463"/><path d="m44.167969 238.34375h-8.828125c-4.875 0-8.828125-3.949219-8.828125-8.828125 0-4.875 3.953125-8.824219 8.828125-8.824219h8.828125c4.875 0 8.828125 3.949219 8.828125 8.824219 0 4.878906-3.953125 8.828125-8.828125 8.828125zm0 0" fill="#b4df80"/><path d="m123.617188 238.34375h-44.140626c-4.875 0-8.828124-3.949219-8.828124-8.828125 0-4.875 3.953124-8.824219 8.828124-8.824219h44.140626c4.875 0 8.828124 3.949219 8.828124 8.824219 0 4.878906-3.953124 8.828125-8.828124 8.828125zm0 0" fill="#eb5463"/><path d="m44.167969 273.65625h-8.828125c-4.875 0-8.828125-3.953125-8.828125-8.828125s3.953125-8.828125 8.828125-8.828125h8.828125c4.875 0 8.828125 3.953125 8.828125 8.828125s-3.953125 8.828125-8.828125 8.828125zm0 0" fill="#b4df80"/><path d="m123.617188 273.65625h-44.140626c-4.875 0-8.828124-3.953125-8.828124-8.828125s3.953124-8.828125 8.828124-8.828125h44.140626c4.875 0 8.828124 3.953125 8.828124 8.828125s-3.953124 8.828125-8.828124 8.828125zm0 0" fill="#eb5463"/><path d="m44.167969 308.964844h-8.828125c-4.875 0-8.828125-3.953125-8.828125-8.828125s3.953125-8.828125 8.828125-8.828125h8.828125c4.875 0 8.828125 3.953125 8.828125 8.828125s-3.953125 8.828125-8.828125 8.828125zm0 0" fill="#b4df80"/><path d="m123.617188 308.964844h-44.140626c-4.875 0-8.828124-3.953125-8.828124-8.828125s3.953124-8.828125 8.828124-8.828125h44.140626c4.875 0 8.828124 3.953125 8.828124 8.828125s-3.953124 8.828125-8.828124 8.828125zm0 0" fill="#eb5463"/><g fill="#b4df80"><path d="m229.546875 211.863281c-2.339844 0-4.585937-.933593-6.242187-2.585937l-35.308594-35.3125c-3.445313-3.445313-3.445313-9.035156 0-12.480469l35.308594-35.3125c3.464843-3.34375 8.96875-3.296875 12.375.109375 3.40625 3.402344 3.453124 8.910156.109374 12.375l-29.070312 29.066406 29.070312 29.070313c2.523438 2.523437 3.277344 6.320312 1.910157 9.621093-1.363281 3.296876-4.582031 5.445313-8.152344 5.449219zm0 0"/><path d="m317.824219 211.863281c-3.570313-.003906-6.789063-2.152343-8.15625-5.449219-1.363281-3.300781-.609375-7.097656 1.914062-9.621093l29.070313-29.070313-29.070313-29.066406c-3.347656-3.464844-3.296875-8.972656.105469-12.375 3.40625-3.40625 8.914062-3.453125 12.375-.109375l35.3125 35.3125c3.445312 3.445313 3.445312 9.035156 0 12.480469l-35.3125 35.3125c-1.652344 1.652344-3.898438 2.585937-6.238281 2.585937zm0 0"/><path d="m264.855469 211.863281c-.722657 0-1.441407-.085937-2.144531-.265625-2.269532-.566406-4.226563-2.015625-5.429688-4.023437-1.207031-2.007813-1.5625-4.414063-.996094-6.683594l17.65625-70.621094c1.210938-4.699219 5.988282-7.535156 10.691406-6.359375 4.707032 1.179688 7.578126 5.933594 6.433594 10.648438l-17.65625 70.621094c-.980468 3.925781-4.507812 6.679687-8.554687 6.683593zm0 0"/></g><path d="m353.132812 423.722656c-2.339843 0-4.585937-.929687-6.242187-2.585937l-17.652344-17.652344c-3.347656-3.464844-3.300781-8.972656.105469-12.375 3.40625-3.40625 8.910156-3.453125 12.375-.109375l11.414062 11.414062 55.550782-55.550781c3.464844-3.347656 8.972656-3.296875 12.375.105469 3.40625 3.40625 3.453125 8.910156.109375 12.375l-61.792969 61.792969c-1.65625 1.65625-3.902344 2.585937-6.242188 2.585937zm0 0" fill="#fff"/></svg>