<svg id="Icons" height="512" viewBox="0 0 60 60" width="512" xmlns="http://www.w3.org/2000/svg"><path d="m47 9v14.26l-25 21.74h-18a3 3 0 0 1 -3-3v-33l1-1h44z" fill="#e1eeff"/><path d="m47 4v5h-46v-5a3 3 0 0 1 3-3h40a3 3 0 0 1 3 3z" fill="#49508e"/><path d="m50.951 46.71 7.171 7.17a3 3 0 0 1 0 4.24 2.995 2.995 0 0 1 -4.241 0l-7.171-7.17z" fill="#a8724e"/><circle cx="37" cy="37" fill="#49508e" r="17"/><path d="m6 6h-1a1 1 0 0 1 0-2h1a1 1 0 0 1 0 2z" fill="#fff"/><path d="m11 6h-1a1 1 0 0 1 0-2h1a1 1 0 0 1 0 2z" fill="#fff"/><path d="m16 6h-1a1 1 0 0 1 0-2h1a1 1 0 0 1 0 2z" fill="#fff"/><g fill="#b1cbdd"><path d="m6 14h-1a1 1 0 0 1 0-2h1a1 1 0 0 1 0 2z"/><path d="m6 18h-1a1 1 0 0 1 0-2h1a1 1 0 0 1 0 2z"/><path d="m6 22h-1a1 1 0 0 1 0-2h1a1 1 0 0 1 0 2z"/><path d="m6 26h-1a1 1 0 0 1 0-2h1a1 1 0 0 1 0 2z"/><path d="m6 30h-1a1 1 0 0 1 0-2h1a1 1 0 0 1 0 2z"/><path d="m6 34h-1a1 1 0 0 1 0-2h1a1 1 0 0 1 0 2z"/><path d="m6 38h-1a1 1 0 0 1 0-2h1a1 1 0 0 1 0 2z"/><path d="m6 42h-1a1 1 0 0 1 0-2h1a1 1 0 0 1 0 2z"/></g><path d="m43 6h-6a1 1 0 0 1 0-2h6a1 1 0 0 1 0 2z" fill="#2e3360"/><path d="m10 40a1 1 0 0 1 -1-1v-26a1 1 0 0 1 2 0v26a1 1 0 0 1 -1 1z" fill="#b1cbdd"/><path d="m24 14h-10a1 1 0 0 1 0-2h10a1 1 0 0 1 0 2z" fill="#66caa4"/><path d="m26 18h-10a1 1 0 0 1 0-2h10a1 1 0 0 1 0 2z" fill="#66caa4"/><path d="m33 18h-3a1 1 0 0 1 0-2h3a1 1 0 0 1 0 2z" fill="#f9c84e"/><path d="m24 22h-7a1 1 0 0 1 0-2h7a1 1 0 0 1 0 2z" fill="#66caa4"/><path d="m47 32h-2a1 1 0 0 1 0-2h2a1 1 0 0 1 0 2z" fill="#fff"/><path d="m31 32h-4a1 1 0 0 1 0-2h4a1 1 0 0 1 0 2z" fill="#f9c84e"/><path d="m22 30h-6a1 1 0 0 1 0-2h6a1 1 0 0 1 0 2z" fill="#66caa4"/><path d="m41 32h-6a1 1 0 0 1 0-2h6a1 1 0 0 1 0 2z" fill="#eb6374"/><path d="m37 36h-12a1 1 0 0 1 0-2h12a1 1 0 0 1 0 2z" fill="#f9c84e"/><path d="m20.474 34h-3.474a1 1 0 0 1 0-2h3.474a1 1 0 1 1 0 2z" fill="#66caa4"/><path d="m31 28h-1a1 1 0 0 1 0-2h1a1 1 0 0 1 0 2z" fill="#f9c84e"/><path d="m24.958 26h-10.958a1 1 0 0 1 0-2h10.958a1 1 0 0 1 0 2z" fill="#66caa4"/><path d="m47 44h-2a1 1 0 0 1 0-2h2a1 1 0 0 1 0 2z" fill="#fff"/><path d="m31 44h-5a1 1 0 0 1 0-2h5a1 1 0 0 1 0 2z" fill="#f9c84e"/><path d="m20.474 42h-4.474a1 1 0 0 1 0-2h4.474a1 1 0 1 1 0 2z" fill="#66caa4"/><path d="m41 44h-6a1 1 0 0 1 0-2h6a1 1 0 0 1 0 2z" fill="#eb6374"/><path d="m29 40h-4a1 1 0 0 1 0-2h4a1 1 0 0 1 0 2z" fill="#f9c84e"/><path d="m20 38h-6a1 1 0 0 1 0-2h6a1 1 0 0 1 0 2z" fill="#66caa4"/><path d="m37 55a18 18 0 1 1 18-18 18.021 18.021 0 0 1 -18 18zm0-34a16 16 0 1 0 16 16 16.019 16.019 0 0 0 -16-16z" fill="#c0daf0"/></svg>