<?xml version="1.0" encoding="UTF-8"?>
<svg xmlns="http://www.w3.org/2000/svg" xmlns:xlink="http://www.w3.org/1999/xlink" version="1.1" id="Capa_1" x="0px" y="0px" viewBox="0 0 512 512" style="enable-background:new 0 0 512 512;" xml:space="preserve" width="512" height="512">
<g>
	<g>
		<g>
			<path style="fill:#888891;" d="M360.578,501.999L337,504.5H147.932c-9.297,0-16.834-7.537-16.834-16.834v-43.015h245.535&#10;&#9;&#9;&#9;&#9;l0.779,40.514C377.412,494.462,369.876,501.999,360.578,501.999z"/>
			<path style="fill:#73737F;" d="M349.899,444.651v43.015c0,9.297-7.537,16.834-16.834,16.834h31.003&#10;&#9;&#9;&#9;&#9;c9.297,0,16.834-7.537,16.834-16.834v-43.015H349.899z"/>
			<rect x="174.926" y="57.349" style="fill:#9A9AA5;" width="154.367" height="72.232"/>
			<rect x="311.459" y="57.349" style="fill:#888891;" width="25.615" height="72.232"/>
			<path style="fill:#FE93BB;" d="M347.41,66.535l-34.988,2.81H161.888c-2.763,0-5.003-2.24-5.003-5.003V27.068&#10;&#9;&#9;&#9;&#9;c0-10.807,8.761-19.568,19.568-19.568h119.091h4.906l31.706,1.408c10.807,0,19.568,8.761,19.568,19.568l0.689,33.056&#10;&#9;&#9;&#9;&#9;C352.413,64.295,350.173,66.535,347.41,66.535z"/>
			<path style="fill:#FE76A8;" d="M335.548,7.5h-40.004c10.807,0,19.568,8.761,19.568,19.568v38.108c0,2.403-1.341,4.17-3.653,4.17&#10;&#9;&#9;&#9;&#9;h38.654c2.763,0,5.003-2.24,5.003-5.003V27.068C355.115,16.261,346.354,7.5,335.548,7.5z"/>
			<path style="fill:#9A9AA5;" d="M405.324,201.754l0.593,222.421c0,16.58-30.402,38.32-46.982,38.32L131.1,462.259&#10;&#9;&#9;&#9;&#9;c-16.58,0-30.02-13.44-30.02-30.02V202.26c0-6.32,1.21-12.51,3.46-18.26l25.31-11.47h252.3l19.714,10.964&#10;&#9;&#9;&#9;&#9;C404.114,189.244,405.324,195.434,405.324,201.754z"/>
			<path style="fill:#888891;" d="M407.46,184l-25.31-11.47L381.457,184c2.25,5.75,3.46,11.94,3.46,18.26v229.98&#10;&#9;&#9;&#9;&#9;c0,16.58-13.282,30.249-29.862,30.249l30.848,0.005c16.58,0,25.018-13.675,25.018-30.255L410.92,340.5V202.26&#10;&#9;&#9;&#9;&#9;C410.92,195.94,409.71,189.75,407.46,184z"/>
			<path style="fill:#888891;" d="M388.083,164.248l-55.156-44.587l-21.468-2.08H174.93l-55.73,46.15&#10;&#9;&#9;&#9;&#9;c-6.607,5.468-11.599,12.473-14.657,20.272L381.457,184l20.407-3.899C398.807,172.302,394.69,169.715,388.083,164.248z"/>
			<path style="fill:#73737F;" d="M392.8,163.73l-55.73-46.15h-25.611l55.339,46.15c6.607,5.468,11.602,12.471,14.66,20.27l26,0.002&#10;&#9;&#9;&#9;&#9;C404.399,176.203,399.407,169.198,392.8,163.73z"/>
		</g>
		<path style="fill:#FE93BB;" d="M226.24,277.185v34.08c0,12.327,7.495,22.904,18.176,27.421c3.56,1.506,7.475-0.64,11.584-0.64&#10;&#9;&#9;&#9;c16.436,0,26.505-10.647,26.505-27.083l-0.991-33.779L256,267.184L226.24,277.185z"/>
		<path style="fill:#FFE177;" d="M282.174,243.752c0-16.436-9.738-28.404-26.174-28.404c-4.077,0-7.963-1.184-11.502,0.3&#10;&#9;&#9;&#9;c-10.725,4.498-18.258,15.097-18.258,27.456v34.08h36.518l19.747-4.698L282.174,243.752z"/>
		<path style="fill:#FE76A8;" d="M274.578,265.716l-11.82,11.469v34.08c0,12.359-7.617,22.923-18.342,27.421&#10;&#9;&#9;&#9;c3.539,1.484,7.506,2.339,11.584,2.339c16.436,0,29.76-13.324,29.76-29.76v-34.08L274.578,265.716z"/>
		<path style="fill:#FFD15B;" d="M256,213.345c-4.078,0-7.963,0.822-11.501,2.306c10.725,4.498,18.259,15.096,18.259,27.454v34.08&#10;&#9;&#9;&#9;h23.002v-34.08C285.76,226.669,272.436,213.345,256,213.345z"/>
		<g>
			<path style="fill:#FFE177;" d="M179.789,193.445c0,37.958-26.585,64.014-64.543,64.014c-22.807,0-43.014-6.399-55.516-23.501&#10;&#9;&#9;&#9;&#9;c-8.305-11.361-13.213-25.362-13.213-40.513c0-37.958,30.771-68.729,68.729-68.729c15.151,0,29.156,4.902,40.517,13.207&#10;&#9;&#9;&#9;&#9;C172.865,150.425,179.789,170.637,179.789,193.445z"/>
			<path style="fill:#FFD15B;" d="M155.763,137.923c8.305,11.361,13.21,25.369,13.21,40.52c0,37.958-30.771,68.729-68.729,68.729&#10;&#9;&#9;&#9;&#9;c-15.151,0-29.153-4.909-40.514-13.214c12.502,17.102,32.709,28.216,55.516,28.216c37.958,0,68.729-30.771,68.729-68.729&#10;&#9;&#9;&#9;&#9;C183.975,170.638,172.865,150.425,155.763,137.923z"/>
			<path style="fill:#ADE194;" d="M462.951,190.914c0,37.958-28.24,67.091-66.197,67.091c-23.938,0-45.018-8.07-57.324-26.631&#10;&#9;&#9;&#9;&#9;c-7.207-10.871-11.405-23.91-11.405-37.929c0-37.958,30.771-68.729,68.729-68.729c15.507,0,29.814,5.138,41.314,13.802&#10;&#9;&#9;&#9;&#9;C454.717,151.06,462.951,168.463,462.951,190.914z"/>
			<path style="fill:#97DA7B;" d="M438.068,138.518c7.207,10.871,11.413,23.905,11.413,37.925c0,37.958-30.771,68.729-68.729,68.729&#10;&#9;&#9;&#9;&#9;c-15.508,0-29.822-5.134-41.322-13.797c12.306,18.561,33.386,30.799,57.324,30.799c37.958,0,68.729-30.771,68.729-68.729&#10;&#9;&#9;&#9;&#9;C465.482,170.995,454.717,151.06,438.068,138.518z"/>
			<path style="fill:#FE93BB;" d="M461.018,360.924c0,37.958-26.307,63.874-64.264,63.874c-23.652,0-44.514-7.093-56.879-25.283&#10;&#9;&#9;&#9;&#9;c-7.479-11.001-11.849-24.286-11.849-38.591c0-37.958,30.771-68.729,68.729-68.729c14.234,0,27.539,4.385,38.508,11.795&#10;&#9;&#9;&#9;&#9;C453.544,316.342,461.018,337.201,461.018,360.924z"/>
			<path style="fill:#FE76A8;" d="M435.262,303.991c7.479,11.001,11.934,24.341,11.934,38.646c0,37.958-30.771,68.729-68.729,68.729&#10;&#9;&#9;&#9;&#9;c-14.305,0-27.591-4.372-38.592-11.85c12.365,18.189,33.227,30.137,56.879,30.137c37.958,0,68.729-30.771,68.729-68.729&#10;&#9;&#9;&#9;&#9;C465.482,337.272,453.451,316.356,435.262,303.991z"/>
			<g>
				<path style="fill:#8AC9FE;" d="M178.138,360.924c0,37.958-24.934,63.874-62.892,63.874c-23.42,0-44.098-6.864-56.506-24.752&#10;&#9;&#9;&#9;&#9;&#9;c-7.703-11.104-12.222-24.584-12.222-39.122c0-37.958,30.771-68.729,68.729-68.729c14.538,0,28.017,4.52,39.122,12.223&#10;&#9;&#9;&#9;&#9;&#9;C172.256,316.827,178.138,337.505,178.138,360.924z"/>
				<path style="fill:#60B7FF;" d="M154.368,304.418c7.703,11.104,12.225,24.585,12.225,39.124&#10;&#9;&#9;&#9;&#9;&#9;c0,37.958-30.771,68.729-68.729,68.729c-14.538,0-28.019-4.522-39.124-12.225c12.409,17.888,33.086,29.607,56.506,29.607&#10;&#9;&#9;&#9;&#9;&#9;c37.958,0,68.729-30.771,68.729-68.729C183.975,337.505,172.256,316.827,154.368,304.418z"/>
			</g>
		</g>
	</g>
	<g>
		<path style="fill:none;stroke:#000000;stroke-width:15;stroke-linecap:round;stroke-linejoin:round;stroke-miterlimit:10;" d="&#10;&#9;&#9;&#9;M140.51,377.909c0,10.981-8.902,19.926-19.882,19.926H95.424v-39.8h25.203C131.608,358.035,140.51,366.928,140.51,377.909z"/>
		
			<line style="fill:none;stroke:#000000;stroke-width:15;stroke-linecap:round;stroke-linejoin:round;stroke-miterlimit:10;" x1="101.079" y1="292.196" x2="101.079" y2="263.404"/>
		<path style="fill:none;stroke:#000000;stroke-width:15;stroke-linecap:round;stroke-linejoin:round;stroke-miterlimit:10;" d="&#10;&#9;&#9;&#9;M410.921,429.653v2.586c0,16.579-13.44,30.018-30.018,30.018H131.098c-16.579,0-30.018-13.44-30.018-30.018v-2.586"/>
		
			<line style="fill:none;stroke:#000000;stroke-width:15;stroke-linecap:round;stroke-linejoin:round;stroke-miterlimit:10;" x1="410.921" y1="262.173" x2="410.921" y2="292.196"/>
		
			<polyline style="fill:none;stroke:#000000;stroke-width:15;stroke-linecap:round;stroke-linejoin:round;stroke-miterlimit:10;" points="&#10;&#9;&#9;&#9;153.617,135.229 174.926,117.584 337.074,117.584 358.187,135.067 &#9;&#9;"/>
		<path style="fill:none;stroke:#000000;stroke-width:15;stroke-linecap:round;stroke-linejoin:round;stroke-miterlimit:10;" d="&#10;&#9;&#9;&#9;M300.79,7.5h34.76c10.8,0,19.57,8.76,19.57,19.57v37.27c0,2.77-2.24,5.01-5.01,5.01H161.89c-2.77,0-5.01-2.24-5.01-5.01V27.07&#10;&#9;&#9;&#9;c0-10.81,8.77-19.57,19.57-19.57h89.34"/>
		<path style="fill:none;stroke:#000000;stroke-width:15;stroke-linecap:round;stroke-linejoin:round;stroke-miterlimit:10;" d="&#10;&#9;&#9;&#9;M380.9,464.21v26.15c0,7.81-6.33,14.14-14.14,14.14h-152"/>
		<path style="fill:none;stroke:#000000;stroke-width:15;stroke-linecap:round;stroke-linejoin:round;stroke-miterlimit:10;" d="&#10;&#9;&#9;&#9;M131.1,463.66v26.7c0,7.81,6.33,14.14,14.14,14.14h34.52"/>
		
			<line style="fill:none;stroke:#000000;stroke-width:15;stroke-linecap:round;stroke-linejoin:round;stroke-miterlimit:10;" x1="174.926" y1="117.584" x2="174.926" y2="70.688"/>
		
			<line style="fill:none;stroke:#000000;stroke-width:15;stroke-linecap:round;stroke-linejoin:round;stroke-miterlimit:10;" x1="337.074" y1="71.018" x2="337.074" y2="117.584"/>
		
			<line style="fill:none;stroke:#000000;stroke-width:15;stroke-linecap:round;stroke-linejoin:round;stroke-miterlimit:10;" x1="215.06" y1="184" x2="185.18" y2="184"/>
		
			<line style="fill:none;stroke:#000000;stroke-width:15;stroke-linecap:round;stroke-linejoin:round;stroke-miterlimit:10;" x1="326.76" y1="184" x2="250.06" y2="184"/>
		<path style="fill:none;stroke:#000000;stroke-width:15;stroke-linecap:round;stroke-linejoin:round;stroke-miterlimit:10;" d="&#10;&#9;&#9;&#9;M256,341.024L256,341.024c-16.436,0-29.76-13.324-29.76-29.76v-68.16c0-16.436,13.324-29.76,29.76-29.76h0&#10;&#9;&#9;&#9;c16.436,0,29.76,13.324,29.76,29.76v68.16C285.76,327.7,272.436,341.024,256,341.024z"/>
		
			<line style="fill:none;stroke:#000000;stroke-width:15;stroke-linecap:round;stroke-linejoin:round;stroke-miterlimit:10;" x1="228.714" y1="277.185" x2="283.286" y2="277.185"/>
		<path style="fill:none;stroke:#000000;stroke-width:15;stroke-linecap:round;stroke-linejoin:round;stroke-miterlimit:10;" d="&#10;&#9;&#9;&#9;M224.687,253.163h-31.304c-2.202,0-4.343-0.727-6.091-2.067l-17.465-13.399"/>
		<path style="fill:none;stroke:#000000;stroke-width:15;stroke-linecap:round;stroke-linejoin:round;stroke-miterlimit:10;" d="&#10;&#9;&#9;&#9;M224.687,301.206h-31.304c-2.202,0-4.343,0.727-6.091,2.067l-17.465,13.399"/>
		<path style="fill:none;stroke:#000000;stroke-width:15;stroke-linecap:round;stroke-linejoin:round;stroke-miterlimit:10;" d="&#10;&#9;&#9;&#9;M287.313,253.163h31.304c2.202,0,4.343-0.727,6.091-2.067l17.465-13.399"/>
		<path style="fill:none;stroke:#000000;stroke-width:15;stroke-linecap:round;stroke-linejoin:round;stroke-miterlimit:10;" d="&#10;&#9;&#9;&#9;M287.313,301.206h31.304c2.202,0,4.343,0.727,6.091,2.067l17.465,13.399"/>
		
			<line style="fill:none;stroke:#000000;stroke-width:15;stroke-linecap:round;stroke-linejoin:round;stroke-miterlimit:10;" x1="228.714" y1="377.935" x2="283.286" y2="377.935"/>
		
			<line style="fill:none;stroke:#000000;stroke-width:15;stroke-linecap:round;stroke-linejoin:round;stroke-miterlimit:10;" x1="209.651" y1="407.957" x2="302.349" y2="407.957"/>
		
			<circle style="fill:none;stroke:#000000;stroke-width:15;stroke-linecap:round;stroke-linejoin:round;stroke-miterlimit:10;" cx="115.246" cy="193.445" r="68.729"/>
		<path style="fill:none;stroke:#000000;stroke-width:15;stroke-linecap:round;stroke-linejoin:round;stroke-miterlimit:10;" d="&#10;&#9;&#9;&#9;M85.688,226.727l27.557-72.357c0.336-0.882,1.182-1.465,2.125-1.465l0,0c0.946,0,1.794,0.586,2.128,1.471l27.304,72.35"/>
		
			<line style="fill:none;stroke:#000000;stroke-width:15;stroke-linecap:round;stroke-linejoin:round;stroke-miterlimit:10;" x1="94.457" y1="208.342" x2="136.177" y2="208.342"/>
		
			<circle style="fill:none;stroke:#000000;stroke-width:15;stroke-linecap:round;stroke-linejoin:round;stroke-miterlimit:10;" cx="396.754" cy="193.445" r="68.729"/>
		<path style="fill:none;stroke:#000000;stroke-width:15;stroke-linecap:round;stroke-linejoin:round;stroke-miterlimit:10;" d="&#10;&#9;&#9;&#9;M420.592,162.838c-5.891-3.98-12.993-6.304-20.637-6.304c-20.385,0-36.911,16.526-36.911,36.911s16.526,36.911,36.911,36.911&#10;&#9;&#9;&#9;c8.279,0,15.089-2.726,20.258-7.329c1.069-0.952,2.068-1.985,2.996-3.091"/>
		<path style="fill:none;stroke:#000000;stroke-width:15;stroke-linecap:round;stroke-linejoin:round;stroke-miterlimit:10;" d="&#10;&#9;&#9;&#9;M331.63,382.92c9.17,27.17,34.86,46.73,65.12,46.73c37.96,0,68.73-30.77,68.73-68.73c0-37.95-30.77-68.72-68.73-68.72&#10;&#9;&#9;&#9;c-33.51,0-61.42,23.99-67.49,55.72"/>
		<path style="fill:none;stroke:#000000;stroke-width:15;stroke-linecap:round;stroke-linejoin:round;stroke-miterlimit:10;" d="&#10;&#9;&#9;&#9;M427.55,360.965c0,20.363-11.301,36.557-29.232,36.87h-21.476v-73.822h20.863C417.372,324.014,427.55,340.602,427.55,360.965z"/>
		
			<circle style="fill:none;stroke:#000000;stroke-width:15;stroke-linecap:round;stroke-linejoin:round;stroke-miterlimit:10;" cx="115.246" cy="360.924" r="68.729"/>
		<path style="fill:none;stroke:#000000;stroke-width:15;stroke-linecap:round;stroke-linejoin:round;stroke-miterlimit:10;" d="&#10;&#9;&#9;&#9;M95.424,358.035v-34.022h21.456c9.387,0,16.997,7.61,16.997,16.997c0,9.387-7.61,17.025-16.997,17.025"/>
	</g>
</g>















</svg>
