<svg height="496pt" viewBox="0 0 496 496" width="496pt" xmlns="http://www.w3.org/2000/svg"><path d="m88 488h-80v-192h80zm0 0" fill="#e087a6"/><path d="m88 312h56l16-16v-96h12.945312c11.679688 0 22.351563 6.601562 27.574219 17.039062 4.921875 9.839844 7.480469 20.6875 7.480469 31.679688v47.28125h128c13.257812 0 24 10.742188 24 24s-10.742188 24-24 24c13.257812 0 24 10.742188 24 24s-10.742188 24-24 24c13.257812 0 24 10.742188 24 24s-10.742188 24-24 24h-16c13.257812 0 24 10.742188 24 24s-10.742188 24-24 24h-152l-32-16h-48" fill="#efbe9a"/><path d="m424 248h-56c-66.273438 0-120-53.726562-120-120s53.726562-120 120-120 120 53.726562 120 120v184zm0 0" fill="#8bd2f5"/><path d="m88 496h-80c-4.414062 0-8-3.574219-8-8v-192c0-4.425781 3.585938-8 8-8h80c4.414062 0 8 3.574219 8 8v192c0 4.425781-3.585938 8-8 8zm-72-16h64v-176h-64zm0 0"/><path d="m320 496h-152c-1.238281 0-2.472656-.289062-3.574219-.839844l-30.3125-15.160156h-46.113281v-16h48c1.238281 0 2.472656.289062 3.574219.839844l30.3125 15.160156h150.113281c8.824219 0 16-7.175781 16-16s-7.175781-16-16-16h-32v-16h32c17.648438 0 32 14.351562 32 32s-14.351562 32-32 32zm0 0"/><path d="m336 448h-16v-16h16c8.824219 0 16-7.175781 16-16s-7.175781-16-16-16h-48v-16h48c17.648438 0 32 14.351562 32 32s-14.351562 32-32 32zm0 0"/><path d="m336 400h-48v-16h48c8.824219 0 16-7.175781 16-16s-7.175781-16-16-16h-48v-16h48c17.648438 0 32 14.351562 32 32s-14.351562 32-32 32zm0 0"/><path d="m336 352h-48v-16h48c8.824219 0 16-7.175781 16-16s-7.175781-16-16-16h-128c-4.414062 0-8-3.574219-8-8v-47.28125c0-9.703125-2.296875-19.414062-6.632812-28.09375-3.894532-7.792969-11.71875-12.625-20.421876-12.625h-4.945312v88c0 2.128906-.839844 4.160156-2.34375 5.65625l-16 16c-1.496094 1.503906-3.535156 2.34375-5.65625 2.34375h-56v-16h52.6875l11.3125-11.3125v-92.6875c0-4.425781 3.585938-8 8-8h12.945312c14.808594 0 28.109376 8.222656 34.734376 21.472656 5.441406 10.886719 8.320312 23.070313 8.320312 35.246094v39.28125h120c17.648438 0 32 14.351562 32 32s-14.351562 32-32 32zm0 0"/><path d="m40 448h16v16h-16zm0 0"/><path d="m40 320h16v16h-16zm0 0"/><path d="m488 320c-2.078125 0-4.128906-.816406-5.65625-2.34375l-61.65625-61.65625h-52.6875c-70.574219 0-128-57.425781-128-128s57.425781-128 128-128 128 57.425781 128 128v184c0 3.230469-1.953125 6.160156-4.9375 7.390625-.992188.417969-2.03125.609375-3.0625.609375zm-120-304c-61.761719 0-112 50.238281-112 112s50.238281 112 112 112h56c2.121094 0 4.160156.839844 5.65625 2.34375l50.34375 50.34375v-164.6875c0-61.761719-50.238281-112-112-112zm0 0"/><path d="m272 120h192v16h-192zm0 0"/><path d="m272 152h192v16h-192zm0 0"/><path d="m288 88h176v16h-176zm0 0"/></svg>