<svg id="_x30_3" enable-background="new 0 0 512 512" height="512" viewBox="0 0 512 512" width="512" xmlns="http://www.w3.org/2000/svg" xmlns:xlink="http://www.w3.org/1999/xlink"><filter id="Adobe_OpacityMaskFilter" height="152" width="276" x="109.34" y="237.645"><feFlood flood-color="#fff" result="back"/><feBlend in="SourceGraphic" in2="back" mode="normal"/></filter><linearGradient id="lg1"><stop offset="0" stop-color="#1a00f9"/><stop offset="1" stop-color="#f12dff"/></linearGradient><linearGradient id="SVGID_1_" gradientUnits="userSpaceOnUse" x1="245.243" x2="249.233" xlink:href="#lg1" y1="418.681" y2="184.572"/><mask id="SVGID_2_" height="152" maskUnits="userSpaceOnUse" width="276" x="109.34" y="237.645"><g filter="url(#Adobe_OpacityMaskFilter)"><path d="m385.34 257.405v76.48c0 10.913-8.847 19.76-19.76 19.76h-68.24v32c0 1.64-1 3.12-2.56 3.72-.44.2-.96.28-1.44.28-1.08 0-2.16-.44-2.96-1.28l-31.8-34.72h-129.48c-10.913 0-19.76-8.847-19.76-19.76v-8.24h205.605c14.578 0 26.395-11.817 26.395-26.395v-61.605h24.24c10.913 0 19.76 8.847 19.76 19.76z" fill="url(#SVGID_3_)" mask="url(#SVGID_2_)"/></g></mask><filter id="Adobe_OpacityMaskFilter_1_" height="152" width="276" x="109.34" y="237.645"><feFlood flood-color="#fff" result="back"/><feBlend in="SourceGraphic" in2="back" mode="normal"/></filter><mask id="SVGID_2_" height="152" maskUnits="userSpaceOnUse" width="276" x="109.34" y="237.645"><g filter="url(#Adobe_OpacityMaskFilter_1_)"/></mask><linearGradient id="lg2"><stop offset="0" stop-color="#fff"/><stop offset="1"/></linearGradient><linearGradient id="SVGID_3_" gradientUnits="userSpaceOnUse" x1="247.06" x2="249.055" xlink:href="#lg2" y1="348.689" y2="214.342"/><linearGradient id="SVGID_4_" gradientUnits="userSpaceOnUse" x1="247.06" x2="249.055" xlink:href="#lg1" y1="348.689" y2="214.342"/><linearGradient id="SVGID_5_" gradientUnits="userSpaceOnUse" x1="345.576" x2="322.298" y1="219.33" y2="109.591"><stop offset="0" stop-color="#009e61"/><stop offset="1" stop-color="#d2ff51"/></linearGradient><filter id="Adobe_OpacityMaskFilter_2_" height="64.72" width="69.64" x="299.7" y="132.925"><feFlood flood-color="#fff" result="back"/><feBlend in="SourceGraphic" in2="back" mode="normal"/></filter><mask id="SVGID_6_" height="64.72" maskUnits="userSpaceOnUse" width="69.64" x="299.7" y="132.925"><g filter="url(#Adobe_OpacityMaskFilter_2_)"><path d="m369.34 161.645c0 19.84-16.16 36-36 36-15.36 0-28.52-9.68-33.64-23.28 6.04 4.56 13.52 7.28 21.64 7.28 19.84 0 36-16.16 36-36 0-4.48-.84-8.76-2.36-12.72 8.72 6.56 14.36 17 14.36 28.72z" fill="url(#SVGID_7_)" mask="url(#SVGID_6_)"/></g></mask><filter id="Adobe_OpacityMaskFilter_3_" height="64.72" width="69.64" x="299.7" y="132.925"><feFlood flood-color="#fff" result="back"/><feBlend in="SourceGraphic" in2="back" mode="normal"/></filter><mask id="SVGID_6_" height="64.72" maskUnits="userSpaceOnUse" width="69.64" x="299.7" y="132.925"><g filter="url(#Adobe_OpacityMaskFilter_3_)"/></mask><linearGradient id="SVGID_7_" gradientUnits="userSpaceOnUse" x1="332.471" x2="335.796" xlink:href="#lg2" y1="214.715" y2="139.561"/><linearGradient id="SVGID_8_" gradientUnits="userSpaceOnUse" x1="332.471" x2="335.796" y1="214.715" y2="139.561"><stop offset="0" stop-color="#009e61"/><stop offset="1" stop-color="#00db58"/></linearGradient><linearGradient id="lg3"><stop offset="0" stop-color="#ff4276"/><stop offset="1" stop-color="#ff0049"/></linearGradient><linearGradient id="SVGID_9_" gradientUnits="userSpaceOnUse" x1="170.346" x2="200.496" xlink:href="#lg3" y1="137.394" y2="203.902"/><filter id="Adobe_OpacityMaskFilter_4_" height="64.72" width="69.64" x="147.7" y="132.925"><feFlood flood-color="#fff" result="back"/><feBlend in="SourceGraphic" in2="back" mode="normal"/></filter><mask id="SVGID_10_" height="64.72" maskUnits="userSpaceOnUse" width="69.64" x="147.7" y="132.925"><g filter="url(#Adobe_OpacityMaskFilter_4_)"><path d="m217.34 161.645c0 19.84-16.16 36-36 36-15.36 0-28.52-9.68-33.64-23.28 6.04 4.56 13.52 7.28 21.64 7.28 19.84 0 36-16.16 36-36 0-4.48-.84-8.76-2.36-12.72 8.72 6.56 14.36 17 14.36 28.72z" fill="url(#SVGID_11_)" mask="url(#SVGID_10_)"/></g></mask><filter id="Adobe_OpacityMaskFilter_5_" height="64.72" width="69.64" x="147.7" y="132.925"><feFlood flood-color="#fff" result="back"/><feBlend in="SourceGraphic" in2="back" mode="normal"/></filter><mask id="SVGID_10_" height="64.72" maskUnits="userSpaceOnUse" width="69.64" x="147.7" y="132.925"><g filter="url(#Adobe_OpacityMaskFilter_5_)"/></mask><linearGradient id="lg4"><stop offset=".001"/><stop offset="1" stop-color="#fff"/></linearGradient><linearGradient id="SVGID_11_" gradientUnits="userSpaceOnUse" x1="177.953" x2="188.595" xlink:href="#lg4" y1="131.083" y2="214.44"/><linearGradient id="lg5"><stop offset=".001" stop-color="#ff4276"/><stop offset="1" stop-color="#bc0078"/></linearGradient><linearGradient id="SVGID_12_" gradientUnits="userSpaceOnUse" x1="177.953" x2="188.595" xlink:href="#lg5" y1="131.083" y2="214.44"/><linearGradient id="SVGID_13_" gradientUnits="userSpaceOnUse" x1="368.863" x2="428.721" y1="291.353" y2="184.274"><stop offset=".001" stop-color="#009ff9"/><stop offset="1" stop-color="#014bbe"/></linearGradient><filter id="Adobe_OpacityMaskFilter_6_" height="140.867" width="107.762" x="353.34" y="156.898"><feFlood flood-color="#fff" result="back"/><feBlend in="SourceGraphic" in2="back" mode="normal"/></filter><mask id="SVGID_14_" height="140.867" maskUnits="userSpaceOnUse" width="107.762" x="353.34" y="156.898"><g filter="url(#Adobe_OpacityMaskFilter_6_)"><path d="m457.9 182.525-79.2 105.56c-.44.6-1.04 1.04-1.72 1.32l-20.52 8.36-3.12-.12 86.92-117.16c2.84-3.8 2.12-9.2-1.6-12.16l-6.32-5.08c2.6-3.4 6.32-5.56 10.52-6.2 4.2-.56 8.44.48 11.84 3.08 3.44 2.56 5.64 6.28 6.24 10.52s-.48 8.44-3.04 11.88z" fill="url(#SVGID_15_)" mask="url(#SVGID_14_)"/></g></mask><filter id="Adobe_OpacityMaskFilter_7_" height="140.867" width="107.762" x="353.34" y="156.898"><feFlood flood-color="#fff" result="back"/><feBlend in="SourceGraphic" in2="back" mode="normal"/></filter><mask id="SVGID_14_" height="140.867" maskUnits="userSpaceOnUse" width="107.762" x="353.34" y="156.898"><g filter="url(#Adobe_OpacityMaskFilter_7_)"/></mask><linearGradient id="SVGID_15_" gradientUnits="userSpaceOnUse" x1="441.706" x2="389.83" y1="170.919" y2="270.682"><stop offset=".0041"/><stop offset="1" stop-color="#fff"/></linearGradient><linearGradient id="SVGID_16_" gradientUnits="userSpaceOnUse" x1="441.706" x2="389.83" y1="170.919" y2="270.682"><stop offset=".0041" stop-color="#009ff9"/><stop offset="1" stop-color="#014bbe"/></linearGradient><linearGradient id="SVGID_17_" gradientUnits="userSpaceOnUse" x1="355.402" x2="366.937" y1="299.208" y2="276.581"><stop offset="0" stop-color="#ffd6ca"/><stop offset="1" stop-color="#ffa98a"/></linearGradient><filter id="Adobe_OpacityMaskFilter_8_" height="25.6" width="27.846" x="352.1" y="272.885"><feFlood flood-color="#fff" result="back"/><feBlend in="SourceGraphic" in2="back" mode="normal"/></filter><mask id="SVGID_18_" height="25.6" maskUnits="userSpaceOnUse" width="27.846" x="352.1" y="272.885"><g filter="url(#Adobe_OpacityMaskFilter_8_)"><path d="m379.14 287.485-.44.6c-.44.6-1.04 1.04-1.72 1.32l-20.52 8.36-1.08.44c-.48.2-1 .28-1.48.28-.64 0-1.24-.16-1.8-.4l19.6-25.2c3.48 2.88 6.24 6.56 7.96 10.68.52 1.28.32 2.8-.52 3.92z" fill="url(#SVGID_19_)" mask="url(#SVGID_18_)"/></g></mask><filter id="Adobe_OpacityMaskFilter_9_" height="25.6" width="27.846" x="352.1" y="272.885"><feFlood flood-color="#fff" result="back"/><feBlend in="SourceGraphic" in2="back" mode="normal"/></filter><mask id="SVGID_18_" height="25.6" maskUnits="userSpaceOnUse" width="27.846" x="352.1" y="272.885"><g filter="url(#Adobe_OpacityMaskFilter_9_)"/></mask><linearGradient id="SVGID_19_" gradientUnits="userSpaceOnUse" x1="347.609" x2="376.089" y1="315.865" y2="279.347"><stop offset=".0021"/><stop offset="1" stop-color="#fff"/></linearGradient><linearGradient id="SVGID_20_" gradientUnits="userSpaceOnUse" x1="347.609" x2="376.089" y1="315.865" y2="279.347"><stop offset=".0021" stop-color="#e5707c"/><stop offset="1" stop-color="#e5707c"/></linearGradient><linearGradient id="SVGID_21_" gradientUnits="userSpaceOnUse" x1="454.668" x2="435.381" xlink:href="#lg3" y1="148.146" y2="192.041"/><filter id="Adobe_OpacityMaskFilter_10_" height="36.802" width="28.762" x="432.34" y="156.923"><feFlood flood-color="#fff" result="back"/><feBlend in="SourceGraphic" in2="back" mode="normal"/></filter><mask id="SVGID_22_" height="36.802" maskUnits="userSpaceOnUse" width="28.762" x="432.34" y="156.923"><g filter="url(#Adobe_OpacityMaskFilter_10_)"><path d="m457.9 182.525-7.2 9.6c-.64.84-1.56 1.4-2.64 1.56-.16 0-.36.04-.56.04-.84 0-1.68-.28-2.4-.8l-9.04-6.76 4.2-5.68c2.84-3.8 2.12-9.2-1.6-12.16l-6.32-5.08c2.6-3.4 6.32-5.56 10.52-6.16s8.44.48 11.84 3.04c3.44 2.56 5.64 6.28 6.24 10.52s-.48 8.44-3.04 11.88z" fill="url(#SVGID_23_)" mask="url(#SVGID_22_)"/></g></mask><filter id="Adobe_OpacityMaskFilter_11_" height="36.802" width="28.762" x="432.34" y="156.923"><feFlood flood-color="#fff" result="back"/><feBlend in="SourceGraphic" in2="back" mode="normal"/></filter><mask id="SVGID_22_" height="36.802" maskUnits="userSpaceOnUse" width="28.762" x="432.34" y="156.923"><g filter="url(#Adobe_OpacityMaskFilter_11_)"/></mask><linearGradient id="SVGID_23_" gradientUnits="userSpaceOnUse" x1="451.946" x2="437.98" xlink:href="#lg4" y1="155.327" y2="193.236"/><linearGradient id="SVGID_24_" gradientUnits="userSpaceOnUse" x1="451.946" x2="437.98" xlink:href="#lg5" y1="155.327" y2="193.236"/><filter id="Adobe_OpacityMaskFilter_12_" height="12.56" width="13.095" x="349.885" y="285.925"><feFlood flood-color="#fff" result="back"/><feBlend in="SourceGraphic" in2="back" mode="normal"/></filter><mask id="SVGID_25_" height="12.56" maskUnits="userSpaceOnUse" width="13.095" x="349.885" y="285.925"><g filter="url(#Adobe_OpacityMaskFilter_12_)"><path d="m362.98 295.125-6.52 2.64-1.08.44c-.48.2-1 .28-1.48.28-.64 0-1.24-.16-1.8-.4-.2-.12-.4-.24-.6-.4-1.12-.84-1.72-2.2-1.6-3.6l.84-8.16c5.48.8 10.08 4.36 12.24 9.2z" fill="url(#SVGID_26_)" mask="url(#SVGID_25_)"/></g></mask><filter id="Adobe_OpacityMaskFilter_13_" height="12.56" width="13.095" x="349.885" y="285.925"><feFlood flood-color="#fff" result="back"/><feBlend in="SourceGraphic" in2="back" mode="normal"/></filter><mask id="SVGID_25_" height="12.56" maskUnits="userSpaceOnUse" width="13.095" x="349.885" y="285.925"><g filter="url(#Adobe_OpacityMaskFilter_13_)"/></mask><linearGradient id="SVGID_26_" gradientUnits="userSpaceOnUse" x1="345.704" x2="366.321" y1="304.021" y2="279.08"><stop offset=".0021" stop-color="#999"/><stop offset="1" stop-color="#fff"/></linearGradient><linearGradient id="SVGID_27_" gradientUnits="userSpaceOnUse" x1="345.704" x2="366.321" y1="304.021" y2="279.08"><stop offset=".0021" stop-color="#3d1a00"/><stop offset="1" stop-color="#562300"/></linearGradient><g><g><path d="m446.019 124.534c-6.949 0-12.602-5.65-12.602-12.598 0-2.209-1.789-4-4-4s-4 1.791-4 4c0 6.947-5.652 12.598-12.598 12.598-2.211 0-4 1.791-4 4s1.789 4 4 4c6.945 0 12.598 5.652 12.598 12.6 0 2.209 1.789 4 4 4s4-1.791 4-4c0-6.947 5.652-12.6 12.602-12.6 2.211 0 4-1.791 4-4s-1.788-4-4-4z" fill="#ffa500"/></g><path d="m385.34 257.405v76.48c0 10.92-8.84 19.76-19.76 19.76h-68.24v32c0 1.64-1 3.12-2.56 3.72-.44.2-.96.28-1.44.28-1.08 0-2.16-.44-2.96-1.28l-31.8-34.72h-129.48c-10.92 0-19.76-8.84-19.76-19.76v-76.48c0-10.92 8.84-19.76 19.76-19.76h236.48c10.92 0 19.76 8.84 19.76 19.76z" fill="url(#SVGID_1_)"/><path d="m385.34 257.405v76.48c0 10.913-8.847 19.76-19.76 19.76h-68.24v32c0 1.64-1 3.12-2.56 3.72-.44.2-.96.28-1.44.28-1.08 0-2.16-.44-2.96-1.28l-31.8-34.72h-129.48c-10.913 0-19.76-8.847-19.76-19.76v-8.24h205.605c14.578 0 26.395-11.817 26.395-26.395v-61.605h24.24c10.913 0 19.76 8.847 19.76 19.76z" fill="url(#SVGID_4_)" opacity=".5"/><g><path d="m349.34 273.645h-121.721c-2.209 0-4-1.791-4-4s1.791-4 4-4h121.721c2.211 0 4 1.791 4 4s-1.789 4-4 4z" fill="#002c8a"/></g><circle cx="333.34" cy="161.645" fill="url(#SVGID_5_)" r="36"/><g><path d="m197.34 273.645h-48c-2.209 0-4-1.791-4-4s1.791-4 4-4h48c2.209 0 4 1.791 4 4s-1.792 4-4 4z" fill="#002c8a"/></g><path d="m369.34 161.645c0 19.84-16.16 36-36 36-15.36 0-28.52-9.68-33.64-23.28 6.04 4.56 13.52 7.28 21.64 7.28 19.84 0 36-16.16 36-36 0-4.48-.84-8.76-2.36-12.72 8.72 6.56 14.36 17 14.36 28.72z" fill="url(#SVGID_8_)" opacity=".5"/><circle cx="181.34" cy="161.645" fill="url(#SVGID_9_)" r="36"/><g><path d="m349.34 297.645h-39.602c-2.211 0-4-1.791-4-4s1.789-4 4-4h39.602c2.211 0 4 1.791 4 4s-1.789 4-4 4z" fill="#002c8a"/></g><path d="m217.34 161.645c0 19.84-16.16 36-36 36-15.36 0-28.52-9.68-33.64-23.28 6.04 4.56 13.52 7.28 21.64 7.28 19.84 0 36-16.16 36-36 0-4.48-.84-8.76-2.36-12.72 8.72 6.56 14.36 17 14.36 28.72z" fill="url(#SVGID_12_)"/><g><path d="m277.34 297.645h-128c-2.209 0-4-1.791-4-4s1.791-4 4-4h128c2.211 0 4 1.791 4 4s-1.789 4-4 4z" fill="#002c8a"/></g><g><path d="m349.34 321.645h-146c-2.209 0-4-1.791-4-4s1.791-4 4-4h146c2.211 0 4 1.791 4 4s-1.789 4-4 4z" fill="#002c8a"/></g><g><circle cx="361.34" cy="389.645" fill="#00e5ed" r="16"/></g><g><path d="m176.779 321.645h-27.439c-2.209 0-4-1.791-4-4s1.791-4 4-4h27.439c2.209 0 4 1.791 4 4s-1.791 4-4 4z" fill="#002c8a"/></g><g><path d="m423.457 136.366c-.902 0-1.809-.303-2.555-.926-2.289-1.906-5.086-2.914-8.082-2.914-2.211 0-4-1.791-4-4s1.789-4 4-4c6.945 0 12.598-5.652 12.598-12.602 0-2.209 1.789-4 4-4s4 1.791 4 4c0 3.117 1.074 5.975 3.11 8.262 1.469 1.65 1.32 4.178-.328 5.646-1.652 1.467-4.184 1.32-5.648-.33-.398-.448-.777-.912-1.133-1.393-1.234 1.68-2.719 3.164-4.394 4.4.34.25.672.51.996.781 1.699 1.414 1.93 3.936.516 5.633-.795.953-1.932 1.443-3.08 1.443z" fill="#ff5d00"/></g><g><path d="m104.564 185.753c-2.209 0-4-1.791-4-4v-20.746c0-2.209 1.791-4 4-4s4 1.791 4 4v20.746c0 2.209-1.791 4-4 4z" fill="#004adb"/></g><g><path d="m114.937 175.38h-20.748c-2.209 0-4-1.791-4-4s1.791-4 4-4h20.748c2.209 0 4 1.791 4 4s-1.791 4-4 4z" fill="#004adb"/></g><g><path d="m351.664 400.725c-1.231 0-2.442-.564-3.227-1.631-1.996-2.717-3.098-6.072-3.098-9.449 0-8.822 7.176-16 16-16s16 7.178 16 16c0 2.979-.816 5.867-2.367 8.354-1.168 1.879-3.637 2.447-5.508 1.283-1.875-1.168-2.45-3.635-1.282-5.51.758-1.217 1.156-2.645 1.156-4.127 0-4.412-3.59-8-8-8s-8 3.588-8 8c0 1.684.547 3.358 1.543 4.711 1.309 1.779.926 4.283-.855 5.592-.71.526-1.542.777-2.362.777z" fill="#00b1f4"/></g><path d="m184.537 381.647c-3.348 0-6.074-2.727-6.074-6.074 0-3.348 2.726-6.074 6.074-6.074s6.075 2.727 6.075 6.074c0 3.348-2.727 6.074-6.075 6.074z" fill="#ffa500"/><path d="m457.9 182.525-79.2 105.56c-.44.6-1.04 1.04-1.72 1.32l-20.52 8.36-1.08.44c-.48.2-1 .28-1.48.28-.88 0-1.72-.28-2.4-.8-1.12-.84-1.72-2.2-1.6-3.6l2.4-23.2c.08-.72.36-1.4.8-2l79.2-105.56c.04-.04.04-.04.04-.08 2.6-3.4 6.32-5.56 10.52-6.2 4.2-.56 8.44.48 11.84 3.08 3.44 2.56 5.64 6.28 6.24 10.52s-.48 8.44-3.04 11.88z" fill="url(#SVGID_13_)"/><path d="m457.9 182.525-79.2 105.56c-.44.6-1.04 1.04-1.72 1.32l-20.52 8.36-3.12-.12 86.92-117.16c2.84-3.8 2.12-9.2-1.6-12.16l-6.32-5.08c2.6-3.4 6.32-5.56 10.52-6.2 4.2-.56 8.44.48 11.84 3.08 3.44 2.56 5.64 6.28 6.24 10.52s-.48 8.44-3.04 11.88z" fill="url(#SVGID_16_)"/><path d="m379.14 287.485-.44.6c-.44.6-1.04 1.04-1.72 1.32l-14 5.72-6.52 2.64-1.08.44c-.48.2-1 .28-1.48.28-.64 0-1.24-.16-1.8-.4-.2-.12-.4-.24-.6-.4-1.12-.84-1.72-2.2-1.6-3.6l.84-8.16 1.56-15.04c.08-.72.36-1.4.8-2l.44-.6c.84-1.12 2.2-1.72 3.64-1.56 4.88.52 9.52 2.4 13.52 5.36.36.28.68.52 1 .8 3.48 2.88 6.24 6.56 7.96 10.68.52 1.28.32 2.8-.52 3.92z" fill="url(#SVGID_17_)"/><path d="m379.14 287.485-.44.6c-.44.6-1.04 1.04-1.72 1.32l-20.52 8.36-1.08.44c-.48.2-1 .28-1.48.28-.64 0-1.24-.16-1.8-.4l19.6-25.2c3.48 2.88 6.24 6.56 7.96 10.68.52 1.28.32 2.8-.52 3.92z" fill="url(#SVGID_20_)" opacity=".5"/><path d="m457.9 182.525-7.2 9.6c-.64.84-1.56 1.4-2.64 1.56-.16 0-.36.04-.56.04-.84 0-1.68-.28-2.4-.8l-9.04-6.76-10.16-7.64c-1.76-1.36-2.12-3.84-.8-5.6l7.2-9.6c.04-.04.04-.04.04-.08 2.6-3.4 6.32-5.56 10.52-6.16s8.44.48 11.84 3.04c3.44 2.56 5.64 6.28 6.24 10.52s-.48 8.44-3.04 11.88z" fill="url(#SVGID_21_)"/><path d="m457.9 182.525-7.2 9.6c-.64.84-1.56 1.4-2.64 1.56-.16 0-.36.04-.56.04-.84 0-1.68-.28-2.4-.8l-9.04-6.76 4.2-5.68c2.84-3.8 2.12-9.2-1.6-12.16l-6.32-5.08c2.6-3.4 6.32-5.56 10.52-6.16s8.44.48 11.84 3.04c3.44 2.56 5.64 6.28 6.24 10.52s-.48 8.44-3.04 11.88z" fill="url(#SVGID_24_)"/><g><path d="m402.32 292.534c-.762 0-1.531-.217-2.215-.672-1.84-1.225-2.336-3.709-1.109-5.547l16-24c1.222-1.842 3.699-2.34 5.547-1.11 1.84 1.225 2.336 3.709 1.109 5.547l-16 24c-.769 1.157-2.039 1.782-3.332 1.782z" fill="#3884ff"/></g><g><path d="m438.242 327.739c-.293 0-.586-.031-.883-.098l-28.141-6.33c-2.152-.484-3.508-2.625-3.023-4.779.484-2.16 2.625-3.506 4.781-3.026l28.14 6.33c2.152.484 3.508 2.625 3.024 4.779-.417 1.862-2.07 3.124-3.898 3.124z" fill="#3884ff"/></g><g><path d="m425.543 295.245c-1.27 0-2.516-.602-3.293-1.723-1.258-1.816-.804-4.308 1.012-5.566l32.801-22.719c1.816-1.26 4.304-.806 5.566 1.012 1.258 1.816.804 4.308-1.012 5.566l-32.801 22.719c-.695.48-1.488.711-2.273.711z" fill="#3884ff"/></g><g><path d="m406.344 308.526c-1.27 0-2.516-.602-3.293-1.722-1.258-1.815-.804-4.307 1.012-5.565l9.238-6.4c1.82-1.262 4.309-.806 5.566 1.01 1.258 1.814.805 4.306-1.012 5.564l-9.238 6.4c-.695.483-1.488.713-2.273.713z" fill="#3884ff"/></g><g><path d="m103.449 233.444c-1.453 0-2.853-.793-3.562-2.174l-13.164-25.664c-1.008-1.967-.232-4.377 1.732-5.385 1.967-1.016 4.375-.234 5.385 1.732l13.164 25.664c1.008 1.967.232 4.377-1.732 5.385-.585.302-1.21.442-1.823.442z" fill="#3884ff"/></g><g><path d="m63.748 264.331c-2.016 0-3.75-1.522-3.971-3.572-.236-2.197 1.352-4.168 3.549-4.404l28.678-3.084c2.15-.226 4.168 1.352 4.404 3.549s-1.352 4.168-3.549 4.404l-28.678 3.084c-.144.015-.288.023-.433.023z" fill="#3884ff"/></g><g><path d="m76.617 230.446c-.936 0-1.875-.326-2.635-.992l-26.519-23.24c-1.66-1.455-1.828-3.982-.371-5.644 1.453-1.664 3.978-1.834 5.644-.371l26.52 23.24c1.66 1.455 1.828 3.982.371 5.645-.791.901-1.897 1.362-3.01 1.362z" fill="#3884ff"/></g><g><path d="m97.658 248.886c-.936 0-1.877-.326-2.637-.994l-9.48-8.32c-1.66-1.457-1.824-3.984-.367-5.644 1.459-1.656 3.982-1.826 5.644-.367l9.48 8.32c1.66 1.457 1.824 3.984.367 5.644-.79.899-1.896 1.361-3.007 1.361z" fill="#3884ff"/></g><path d="m313.336 157.645c-.762 0-1.531-.217-2.215-.672-1.84-1.224-2.336-3.709-1.109-5.547 9.082-13.625 26.586-13.781 27.328-13.781 2.211 0 4 1.791 4 4 0 2.207-1.785 3.996-3.992 4-.27.004-14.035.25-20.68 10.219-.77 1.156-2.039 1.781-3.332 1.781z" fill="#d6ff8e"/><path d="m161.336 157.645c-.762 0-1.531-.217-2.215-.672-1.84-1.224-2.336-3.709-1.109-5.547 9.082-13.625 26.586-13.781 27.328-13.781 2.211 0 4 1.791 4 4 0 2.207-1.785 3.996-3.992 4-.27.004-14.035.25-20.68 10.219-.77 1.156-2.039 1.781-3.332 1.781z" fill="#ff8db9"/><g><path d="m333.34 177.645c-1.024 0-2.047-.391-2.828-1.172l-16-16c-1.563-1.562-1.563-4.094 0-5.656 1.562-1.563 4.094-1.563 5.656 0l13.172 13.172 37.172-37.172c1.562-1.563 4.094-1.563 5.656 0 1.563 1.562 1.563 4.094 0 5.656l-40 40c-.781.782-1.805 1.172-2.828 1.172z" fill="#00662b"/></g><g><path d="m169.34 177.645c-1.024 0-2.047-.391-2.828-1.172-1.563-1.562-1.563-4.094 0-5.656l24-24c1.562-1.563 4.094-1.563 5.656 0 1.563 1.562 1.563 4.094 0 5.656l-24 24c-.782.782-1.805 1.172-2.828 1.172z" fill="#8e0036"/></g><g><path d="m193.34 177.645c-1.024 0-2.047-.391-2.828-1.172l-24-24c-1.563-1.562-1.563-4.094 0-5.656 1.562-1.563 4.094-1.563 5.656 0l24 24c1.563 1.562 1.563 4.094 0 5.656-.782.782-1.805 1.172-2.828 1.172z" fill="#8e0036"/></g><path d="m362.98 295.125-6.52 2.64-1.08.44c-.48.2-1 .28-1.48.28-.64 0-1.24-.16-1.8-.4-.2-.12-.4-.24-.6-.4-1.12-.84-1.72-2.2-1.6-3.6l.84-8.16c5.48.8 10.08 4.36 12.24 9.2z" fill="url(#SVGID_27_)"/></g></svg>