<svg id="Artboard_30" enable-background="new 0 0 64 64" height="512" viewBox="0 0 64 64" width="512" xmlns="http://www.w3.org/2000/svg"><g fill="#ffd55d"><circle cx="10" cy="25" r="3"/><circle cx="57" cy="7" r="5"/><circle cx="54" cy="39" r="3"/><circle cx="7" cy="57" r="5"/></g><g><path d="m41 44c0-2.347 0-4.135 0-4.135 6.525-3.293 11-10.057 11-17.865 0-11.046-8.954-20-20-20s-20 8.954-20 20c0 7.808 4.475 14.572 11 17.865v4.135z" fill="#ffc239"/><path d="m32 2c-5.757 0-10.93 2.446-14.579 6.339 2.288 14.506 13.748 25.962 28.256 28.243 3.889-3.648 6.323-8.829 6.323-14.582 0-11.046-8.954-20-20-20z" fill="#ffd55d"/><g><path d="m30 44h-2v-15.586l-2.707-2.707 1.414-1.414 3 3c.188.187.293.442.293.707z" fill="#f1f1f3"/></g><g><path d="m36 44h-2v-16c0-.265.105-.52.293-.707l3-3 1.414 1.414-2.707 2.707z" fill="#f1f1f3"/></g><path d="m23 48v3h18c0-.933 0-1.959 0-3z" fill="#393a3a"/><path d="m39 55c0 3.866-3.134 7-7 7s-7-3.134-7-7z" fill="#393a3a"/><path d="m42 48h-20c-.552 0-1-.448-1-1v-2c0-.552.448-1 1-1h20c.552 0 1 .448 1 1v2c0 .552-.448 1-1 1z" fill="#d5d6d8"/><path d="m42 44h-19v1c0 1.105.895 2 2 2h18v-2c0-.552-.448-1-1-1z" fill="#f1f1f3"/><path d="m42 55h-20c-.552 0-1-.448-1-1v-2c0-.552.448-1 1-1h20c.552 0 1 .448 1 1v2c0 .552-.448 1-1 1z" fill="#d5d6d8"/><path d="m42 51h-19v1c0 1.105.895 2 2 2h18v-2c0-.552-.448-1-1-1z" fill="#f1f1f3"/><path d="m57 1c-2.234 0-4.183 1.229-5.215 3.045-5.281.324-12.411 3.718-19.783 9.245-6.948-5.204-13.579-8.42-18.663-9.112.074.69.163 1.375.261 2.057 4.354.741 10.261 3.516 16.759 8.315-2.8 2.208-5.615 4.707-8.359 7.45-.841.841-1.649 1.689-2.443 2.541.328.623.671 1.236 1.021 1.844.916-.999 1.857-1.992 2.836-2.971 2.808-2.808 5.717-5.359 8.606-7.604 2.791 2.177 5.669 4.708 8.565 7.604 4.08 4.08 7.728 8.466 10.614 12.737-.738.726-1.199 1.734-1.199 2.849 0 2.206 1.794 4 4 4 .392 0 .764-.074 1.123-.18 2.176 4.413 3.131 8.21 2.797 10.886.654.141 1.314.265 1.976.384.444-3.135-.577-7.325-3.048-12.288.711-.723 1.152-1.711 1.152-2.802 0-2.206-1.794-4-4-4-.368 0-.718.066-1.057.16-.705-1.049-1.452-2.103-2.243-3.159 5.606-7.49 8.943-14.623 9.265-19.791 1.81-1.035 3.035-2.98 3.035-5.21 0-3.309-2.691-6-6-6zm-3 36c1.103 0 2 .897 2 2s-.897 2-2 2-2-.897-2-2 .897-2 2-2zm-4.565-6.648c-2.238-2.839-4.746-5.662-7.435-8.352-2.761-2.761-5.565-5.25-8.336-7.437 6.48-4.777 12.745-7.879 17.412-8.462-.046.294-.076.593-.076.899 0 3.309 2.691 6 6 6 .302 0 .597-.03.888-.073-.585 4.575-3.645 10.899-8.453 17.425zm7.565-19.352c-2.206 0-4-1.794-4-4s1.794-4 4-4 4 1.794 4 4-1.794 4-4 4z" fill="#81b4fc"/></g><g><path d="m7 63c2.232 0 4.18-1.228 5.213-3.041 3.205-.2 7.196-1.553 11.619-3.959h.237c.495 3.94 3.859 7 7.931 7s7.436-3.06 7.931-7h.237c4.851 2.638 9.112 3.984 12.436 3.984 2.299 0 4.152-.641 5.446-1.935 2.978-2.978 2.54-8.735-1.201-16.249.71-.721 1.151-1.709 1.151-2.8 0-2.206-1.794-4-4-4-.368 0-.718.066-1.057.16-.705-1.048-1.451-2.101-2.241-3.156 5.618-7.501 8.942-14.603 9.262-19.794 1.811-1.034 3.036-2.98 3.036-5.21 0-3.309-2.691-6-6-6-2.234 0-4.183 1.229-5.215 3.045-1.979.121-4.215.673-6.631 1.61-3.603-2.906-8.176-4.655-13.154-4.655-4.985 0-9.564 1.753-13.169 4.666-5.685-2.19-10.337-2.259-12.881.284-2.978 2.978-2.54 8.735 1.201 16.249-.71.722-1.151 1.71-1.151 2.801 0 2.206 1.794 4 4 4 .724 0 1.414-.196 2.015-.547.374 1.167.845 2.294 1.412 3.369-5.606 7.435-9.056 14.638-9.382 19.963-1.816 1.032-3.045 2.981-3.045 5.215 0 3.309 2.691 6 6 6zm16.451-24.027c-3.213-1.621-5.818-4.051-7.624-6.973 2.241-2.883 4.786-5.784 7.588-8.586 2.808-2.808 5.717-5.359 8.606-7.604 2.791 2.177 5.669 4.708 8.565 7.604 2.762 2.762 5.327 5.665 7.594 8.577-.033.054-.071.105-.105.158-.008.01-.015.02-.023.03l.002.002c-1.801 2.839-4.359 5.204-7.503 6.791-.339.171-.551.516-.551.893v3.135h-4v-14.586l2.707-2.707-1.414-1.414-3 3c-.188.187-.293.442-.293.707v15h-4v-15c0-.265-.105-.52-.293-.707l-3-3-1.414 1.414 2.707 2.707v14.586h-4v-3.135c0-.377-.212-.722-.549-.892zm27.549-16.973c0 2.855-.636 5.594-1.793 8.069-2.181-2.744-4.608-5.469-7.207-8.069-2.761-2.761-5.565-5.25-8.336-7.437 3.878-2.858 7.677-5.118 11.104-6.594 3.817 3.478 6.232 8.472 6.232 14.031zm-9 23 .001 2h-20.001v-2zm-2 4v1h-16v-1zm2 3 .001 2h-20.001v-2zm-10 9c-2.967 0-5.431-2.167-5.91-5h11.82c-.479 2.833-2.943 5-5.91 5zm24-22c0 1.103-.897 2-2 2s-2-.897-2-2 .897-2 2-2 2 .897 2 2zm-2 4c.392 0 .764-.074 1.123-.18 3.176 6.443 3.754 11.574 1.513 13.816-2.194 2.193-7.042 1.714-13.222-1.222.362-.363.586-.863.586-1.414v-2c0-1.103-.897-2-2-2v-1c1.103 0 2-.897 2-2v-2c0-1.103-.897-2-2-2v-2.529c3.068-1.661 5.6-4.005 7.462-6.787.608.825 1.184 1.648 1.737 2.467-.738.726-1.199 1.734-1.199 2.849 0 2.206 1.794 4 4 4zm3-40c2.206 0 4 1.794 4 4s-1.794 4-4 4-4-1.794-4-4 1.794-4 4-4zm0 10c.303 0 .598-.03.889-.073-.437 3.446-2.268 7.853-5.195 12.607.194-1.155.306-2.334.306-3.534 0-5.788-2.354-11.036-6.154-14.838 1.51-.53 2.934-.899 4.228-1.061-.044.294-.074.593-.074.899 0 3.309 2.691 6 6 6zm-25-10c4.113 0 7.913 1.327 11.026 3.557-3.465 1.591-7.211 3.873-11.025 6.733-3.846-2.88-7.594-5.152-11.038-6.725 3.115-2.235 6.92-3.565 11.037-3.565zm-24.636 4.364c1.727-1.727 5.227-1.78 9.785-.197-3.61 3.614-5.888 8.54-6.106 13.988-.339-.092-.686-.155-1.043-.155-.392 0-.764.074-1.123.18-3.176-6.443-3.755-11.574-1.513-13.816zm2.636 19.636c-1.103 0-2-.897-2-2s.897-2 2-2c.372 0 .732.103 1.044.294.063 1.04.199 2.063.409 3.063-.375.402-.891.643-1.453.643zm3-5c0-5.557 2.413-10.549 6.229-14.026 3.335 1.42 7.121 3.616 11.13 6.576-2.8 2.208-5.615 4.707-8.359 7.45-2.645 2.645-5.062 5.358-7.212 8.059-1.154-2.472-1.788-5.208-1.788-8.059zm1.543 11.692c1.862 2.778 4.392 5.12 7.457 6.779v2.529c-1.103 0-2 .897-2 2v2c0 1.103.897 2 2 2v1c-1.103 0-2 .897-2 2v2c0 .549.223 1.047.582 1.409-2.864 1.361-5.46 2.207-7.656 2.483.044-.292.074-.588.074-.892 0-3.309-2.691-6-6-6-.306 0-.605.03-.899.075.583-4.66 3.677-10.913 8.442-17.383zm-7.543 19.308c2.206 0 4 1.794 4 4s-1.794 4-4 4-4-1.794-4-4 1.794-4 4-4z"/></g></svg>