<svg id="Layer_1" enable-background="new 0 0 53 53" viewBox="0 0 53 53" xmlns="http://www.w3.org/2000/svg"><g><g><g><g><g><g><g><g><path d="m45.3751183 2.5468214h-11.4918824v47.9066162h11.4918823c2.6900024 0 4.8699951-2.1799927 4.8699951-4.8800049v-38.1466062c.0000001-2.7000122-2.1799926-4.8800051-4.869995-4.8800051z"/><path d="m45.3754883 50.9536133h-11.4921875c-.2763672 0-.5-.2236328-.5-.5v-47.9072266c0-.2763672.2236328-.5.5-.5h11.4921875c2.9609375 0 5.3691406 2.4140625 5.3691406 5.3808594v38.1464844c0 2.9667968-2.4082031 5.3798828-5.3691406 5.3798828zm-10.9921875-1h10.9921875c2.4091797 0 4.3691406-1.9648438 4.3691406-4.3798828v-38.1464844c0-2.4160156-1.9599609-4.3808594-4.3691406-4.3808594h-10.9921875z"/></g><g><path d="m47.2450867 7.4268208v38.1466446c0 2.7000122-2.1799927 4.8800049-4.8699951 4.8800049h-34.7400504c-2.6999512 0-4.8799438-2.1799927-4.8799438-4.8800049v-38.1466446c0-2.7000122 2.1799927-4.8800049 4.8799438-4.8800049h34.7400513c2.6900015.0000002 4.8699942 2.1799926 4.8699942 4.8800049z" fill="#fff"/><path d="m42.3754883 50.9536133h-34.7402344c-2.9667969 0-5.3798828-2.4130859-5.3798828-5.3798828v-38.1464844c0-2.9667969 2.4130859-5.3808594 5.3798828-5.3808594h34.7402344c2.9609375 0 5.3691406 2.4140625 5.3691406 5.3808594v38.1464844c0 2.9667968-2.4082031 5.3798828-5.3691406 5.3798828zm-34.7402344-47.9072266c-2.4150391 0-4.3798828 1.9648438-4.3798828 4.3808594v38.1464844c0 2.4150391 1.9648438 4.3798828 4.3798828 4.3798828h34.7402344c2.4091797 0 4.3691406-1.9648438 4.3691406-4.3798828v-38.1464844c0-2.4160156-1.9599609-4.3808594-4.3691406-4.3808594z"/></g><g><path d="m47.2450867 7.4268208v3.4500122h-44.4899893v-3.4500122c0-2.7000122 2.1799927-4.8800049 4.8799438-4.8800049h34.7400513c2.6900015.0000002 4.8699942 2.1799926 4.8699942 4.8800049z" fill="#283e42"/><path d="m47.2446289 11.3764648h-44.4892578c-.2763672 0-.5-.2236328-.5-.5v-3.4492187c0-2.9667969 2.4130859-5.3808594 5.3798828-5.3808594h34.7402344c2.9609375 0 5.3691406 2.4140625 5.3691406 5.3808594v3.4492188c0 .2763671-.2236328.4999999-.5.4999999zm-43.9892578-1h43.4892578v-2.9492187c0-2.4160156-1.9599609-4.3808594-4.3691406-4.3808594h-34.7402344c-2.4150391 0-4.3798828 1.9648438-4.3798828 4.3808594z"/></g><g><g><circle cx="7.833" cy="6.713" fill="#fff" r="1.167"/></g><g><circle cx="11.874" cy="6.713" fill="#fff" r="1.167"/></g><g><circle cx="15.916" cy="6.713" fill="#fff" r="1.167"/></g><g><path d="m27.9790039 7.2124023h-2.4589844c-.2763672 0-.5-.2236328-.5-.5s.2236328-.5.5-.5h2.4589844c.2763672 0 .5.2236328.5.5s-.2236328.5-.5.5z"/></g><g><path d="m43.3325195 7.2124023h-12.5625c-.2763672 0-.5-.2236328-.5-.5s.2236328-.5.5-.5h12.5625c.2763672 0 .5.2236328.5.5s-.2236328.5-.5.5z"/></g></g></g></g></g></g></g></g><g><g><path d="m16.262743 41.4152069 10.1991043-10.1991043-2.1906681-2.1906681-10.2269468 10.2169208c-.4390907.4390907-.9010487.8439751-1.3970976 1.2147675l-.7357244.5530853c-.1482792.1140327-.2509365.2851791-.2736893.4677429l-.1596937 1.1518669c-.0285368.2110214.0399523.4163399.1881924.564579l.6158676.6158676c.1483173.1483154.3592625.222435.5703621.1939774l1.1575766-.1539879c.1824846-.022831.3535547-.1255646.4675884-.2738419l.5304098-.7127419c.3878383-.5132483.8041753-.9979208 1.2547187-1.4484633z" fill="#ddd"/><path d="m12.7651367 44.5102539c-.3105469 0-.6142578-.1240234-.8369141-.3466797l-.6152344-.6152344c-.2587891-.2587891-.3798828-.6181641-.3300781-.9853516l.1601563-1.1542969c.0371094-.3046875.2070313-.5966797.4638672-.7949219l.7392578-.5556641c.4658203-.3486328.9052734-.7304688 1.3447266-1.1689453l10.2265625-10.2167969c.1953125-.1953125.5117188-.1953125.7070313 0l2.1904297 2.1904297c.1953125.1953125.1953125.5117188 0 .7070313l-10.1982423 10.1992189c-.4189453.4179688-.8251953.8876953-1.2089844 1.3955078l-.5283203.7109375c-.203125.2626953-.4951172.4326172-.8085938.4707031l-1.1523438.1542969c-.0517577.0068359-.1025389.0097656-.1533202.0097656zm11.5058594-14.7773437-9.8730469 9.8632813c-.4736328.4726563-.9482422.8857422-1.4511719 1.2617188l-.734375.5517578c-.0400391.03125-.0722656.0830078-.078125.1298828l-.1611328 1.1591797c-.0048828.0371094-.0009766.0947266.046875.1425781l.6152344.6152344c.0400391.0400391.0947266.0595703.1503906.0527344l1.1582031-.1552734c.0517578-.0058594.1035156-.0380859.1376953-.0820313l.5253906-.7070313c.4140625-.5478516.8515625-1.0527344 1.3027344-1.5029297l9.8447266-9.8457031zm-8.0078125 11.6826171h.0097656z"/></g><g><path d="m23.2704735 26.8294163 8.7525826-8.7525806c1.4898186-1.4898186 3.8982964-1.4898567 5.3880424-.0001144 1.4898949 1.4898949 1.4898567 3.8983765.0000381 5.388195l-8.7525826 8.7525826z" fill="#5ae4a7"/><path d="m28.6586914 32.7172852c-.1279297 0-.2558594-.0488281-.3535156-.1464844l-5.3886719-5.3876953c-.09375-.09375-.1464844-.2207031-.1464844-.3535156s.0527344-.2597656.1464844-.3535156l8.7529297-8.7529297c1.6816406-1.6796875 4.4150391-1.6796875 6.0947266 0 1.6806641 1.6806641 1.6806641 4.4150391.0009766 6.0957031l-8.7529297 8.7519531c-.0976563.0976562-.225586.1464844-.3535157.1464844zm-4.6816406-5.8876954 4.6816406 4.6806641 8.3994141-8.3984375c1.2900391-1.2910156 1.2890625-3.390625-.0009766-4.6816406-1.2890625-1.2890625-3.3896484-1.2890625-4.6806641 0z"/></g><g><path d="m26.8041992 27.3295898c-.1279297 0-.2558594-.0488281-.3535156-.1464844-.1953125-.1953125-.1953125-.5117188 0-.7070313l6.9853516-6.9853516c.1953125-.1953125.5117188-.1953125.7070313 0s.1953125.5117188 0 .7070313l-6.9853516 6.9853516c-.0976563.0976563-.225586.1464844-.3535157.1464844z"/></g><g><path d="m28.6586914 29.184082c-.1279297 0-.2558594-.0488281-.3535156-.1464844-.1953125-.1953125-.1953125-.5117188 0-.7070313l6.9853516-6.9853516c.1953125-.1953125.5117188-.1953125.7070313 0s.1953125.5117188 0 .7070313l-6.9853516 6.9853516c-.0976563.0976563-.225586.1464844-.3535157.1464844z"/></g><g><path d="m22.0762711 26.0739384c.447567-.4475651 1.1660728-.4474945 1.6136398.0000725l5.7181549 5.718153c.4475651.447567.4534607 1.1718979.0058937 1.6194649s-1.1777916.447567-1.6253567 0l-5.7181549-5.7181549c-.447567-.4475671-.4417438-1.1719685.0058232-1.6195355z" fill="#5ae4a7"/><path d="m28.6010742 34.2475586c-.421875 0-.8447266-.1611328-1.1660156-.4824219l-5.7177734-5.7177734c-.6396484-.6396484-.6376953-1.6835938.0058594-2.3271484.6210938-.6210938 1.6992188-.6210938 2.3203125 0l5.7177734 5.71875c.3134766.3125.4853516.7275391.4853516 1.1689453 0 .4375-.1699219.8486328-.4794922 1.1572266-.3212891.321289-.7441407.4824218-1.1660157.4824218zm-5.7177734-8.0107422c-.1630859 0-.3261719.0634766-.453125.1904297-.2529297.2529297-.2558594.6630859-.0058594.9130859l5.7177734 5.7177734c.2539063.2539063.6640625.2539063.9179688 0 .1201172-.1201172.1865234-.2802734.1865234-.4501953 0-.1738281-.0683594-.3378906-.1923828-.4619141l-5.7177734-5.71875c-.1269531-.126953-.2900391-.1904296-.453125-.1904296z"/></g></g><g><g><path d="m22.328 18.565h5.188v23.68h-5.188z" fill="#c9c9c9" transform="matrix(.707 -.707 .707 .707 -14.2 26.528)"/><path d="m31.4604492 41.1108398c-.1279297 0-.2558594-.0488281-.3535156-.1464844l-16.7441406-16.7441406c-.1953125-.1953125-.1953125-.5117188 0-.7070313l3.6679688-3.6679688c.1953125-.1953125.5117188-.1953125.7070313 0l16.7451172 16.7441406c.09375.09375.1464844.2207031.1464844.3535156s-.0527344.2597656-.1464844.3535156l-3.6689453 3.6679688c-.0976564.0976564-.2255861.1464845-.3535158.1464845zm-16.0371094-17.2441406 16.0371094 16.0371094 2.9619141-2.9609375-16.038086-16.0371094z"/></g><g><g><path d="m11.730238 24.4259224c-1.2191153-.8466511-1.9471598-2.0827503-2.1729383-3.3808556-.0790253-.4740868.5079851-.7675915.8466187-.4289589l.9086943.9086952c.1241884.1241894.3047705.1693172.4740868.1242237l3.1833258-.846653c.1692829-.0451279.3047361-.180582.3442831-.3555832l.8465843-3.171957c.0451622-.1693859.0000343-.349968-.124155-.4741554l-.9199934-.9199944c-.332984-.332984-.0507784-.9199944.4120092-.8409681 1.0272331.1693163 2.0150242.6490526 2.8051796 1.439208 2.2576485 2.2576485 2.0036201 6.0674973-.7562923 7.9694939-1.7440827 1.2022706-4.1146195 1.1909352-5.8474028-.0224952z" fill="#ddd"/><path d="m14.6713867 25.8481445c-1.1318359 0-2.2636719-.3378906-3.2285156-1.0117188-1.2724609-.8847656-2.1171875-2.2001953-2.3779297-3.7050781-.0732422-.4355469.1337891-.8457031.5253906-1.0478516.3896484-.2011719.8574219-.1279297 1.1669922.1777344l.9091797.9101563 3.1748047-.8525391.8359375-3.1728516-.9140625-.9121094c-.3085938-.3085938-.3798828-.7783203-.1767578-1.1699219.2001953-.3867188.6035156-.5908203 1.0263672-.5175781 1.171875.1943359 2.2353516.7402344 3.0742188 1.5791016 1.2001953 1.2001953 1.7998047 2.8564453 1.6455078 4.5449219-.1533203 1.6865234-1.0546875 3.2138672-2.4707031 4.1904297-.9560548.6582032-2.0732423.9873047-3.1904298.9873047zm-4.6210937-4.8789062c.2148438 1.2304688.9130859 2.3154297 1.9648438 3.046875.0009766 0 .0009766 0 .0019531.0009766 1.5732422 1.0996094 3.6953125 1.109375 5.2763672.0195313 1.171875-.8076172 1.9169922-2.0673828 2.0429688-3.4570313.1269531-1.3916016-.3671875-2.7578125-1.3564453-3.7470703-.6904297-.6904297-1.5664063-1.1396484-2.5332031-1.2998047l.9433594.9140625c.2470703.2490234.34375.6152344.2539063.9560547l-.8466797 3.1728516c-.0751953.3359375-.3447266.6152344-.6982422.7099609l-3.1835938.8466797c-.3447266.0908203-.7080078-.0058594-.9560547-.2539063z"/></g><g><path d="m38.2745476 36.5438309c1.2191849.8465843 1.9472961 2.0826111 2.1673927 3.3751717.0846748.4797363-.507988.7675934-.8466187.4289589l-.90308-.90308c-.1241531-.1241531-.310421-.1749649-.4797707-.1297684l-3.1776085.8522339c-.169384.0451622-.3048401.1806145-.3499336.3499298l-.846653 3.1720276c-.0451279.169281.0056839.3555489.1298409.479702l.9143448.9143448c.338665.3386688.056427.9256439-.4063606.8466187-1.0328827-.1749687-2.0205688-.6547394-2.8107605-1.4449272-2.2519989-2.2519989-2.0037251-6.0673256.7563248-7.9694595 1.7439461-1.2021333 4.1201668-1.1852533 5.8528824.0282477z" fill="#ddd"/><path d="m34.5610352 46.4379883c-.0556641 0-.1123047-.0048828-.1689453-.0146484-1.1777344-.1992188-2.2421875-.7470703-3.0800781-1.5849609-1.1982422-1.1982422-1.796875-2.8554688-1.6435547-4.5458984.1542969-1.6865234 1.0537109-3.2138672 2.46875-4.1894531 1.9228516-1.3242188 4.5039063-1.3125 6.4228516.0302734 1.2763672.8857422 2.1201172 2.2011719 2.375 3.7021484.0761719.4296875-.1269531.8408203-.5175781 1.0439453-.3935547.2060547-.8662109.1328125-1.1757813-.1777344l-.9033203-.9033203-3.1738281.8525391-.8427734 3.1669922.9140625.9121094c.3115234.3115234.3847656.7841797.1816406 1.1767578-.1728517.3339843-.498047.5312499-.8564454.5312499zm.7617187-10.3085938c-.9238281 0-1.8466797.265625-2.6171875.7978516-1.1699219.8056641-1.9140625 2.0654297-2.0410156 3.4560547-.1269531 1.3945313.3662109 2.7597656 1.3544922 3.7480469.6894531.6894531 1.5683594 1.1416016 2.5400391 1.3056641l-.9443359-.9140625c-.2509766-.2529297-.3496094-.6210938-.2597656-.9619141l.8466797-3.1728516c.0917969-.3427734.3613281-.6123047.7041016-.7041016l3.1767578-.8525391c.34375-.0869141.7109375.0078125.9628906.2597656l.9033203.9033203c-.2099609-1.2255859-.9052734-2.3085938-1.9589844-3.0410156-.0009766 0-.0009766 0-.0019531 0-.7832033-.548828-1.7246095-.8242187-2.6650392-.8242187z"/></g></g></g></g></svg>