<svg id="Layer_1" height="512" viewBox="0 0 512 512" width="512" xmlns="http://www.w3.org/2000/svg"><g><g><g><path d="m224 72v8c0 8.837 7.163 16 16 16h240c8.837 0 16-7.163 16-16v-8c0-17.673-14.327-32-32-32h-272c17.673 0 32 14.327 32 32z" fill="#f5871e"/></g><g><path d="m160 440v-216c0-17.673 14.327-32 32-32-17.673 0-32-14.327-32-32v-88c0-17.673 14.327-32 32-32h272c-17.673 0-32 14.327-32 32v56c0 17.673-14.327 32-32 32 17.673 0 32 14.327 32 32v16c0 8.837-7.163 16-16 16 8.837 0 16 7.163 16 16v112c0 17.673-14.327 32-32 32 17.673 0 32 14.327 32 32v24c0 17.673-14.327 32-32 32h-272c17.673 0 32-14.327 32-32z" fill="#fabe19"/></g><g><path d="m368 440v-8c0-8.837-7.163-16-16-16h-240c-8.837 0-16 7.163-16 16v8c0 17.673 14.327 32 32 32h272c-17.673 0-32-14.327-32-32z" fill="#f5871e"/></g><g><g><path d="m376 224h-160c-8.837 0-16-7.163-16-16 0-8.837 7.163-16 16-16h160c8.837 0 16 7.163 16 16 0 8.837-7.163 16-16 16z" fill="#f5871e"/></g><g><path d="m272 288h-56c-8.837 0-16-7.163-16-16 0-8.837 7.163-16 16-16h56c8.837 0 16 7.163 16 16 0 8.837-7.163 16-16 16z" fill="#f5871e"/></g><g><path d="m376 288h-56c-8.837 0-16-7.163-16-16 0-8.837 7.163-16 16-16h56c8.837 0 16 7.163 16 16 0 8.837-7.163 16-16 16z" fill="#f5871e"/></g><g><path d="m312 352h-96c-8.837 0-16-7.163-16-16 0-8.837 7.163-16 16-16h96c8.837 0 16 7.163 16 16 0 8.837-7.163 16-16 16z" fill="#f5871e"/></g><g><path d="m376 352h-16c-8.837 0-16-7.163-16-16 0-8.837 7.163-16 16-16h16c8.837 0 16 7.163 16 16 0 8.837-7.163 16-16 16z" fill="#f5871e"/></g><g><path d="m312 160h-96c-8.837 0-16-7.163-16-16 0-8.837 7.163-16 16-16h96c8.837 0 16 7.163 16 16 0 8.837-7.163 16-16 16z" fill="#f5871e"/></g><g><path d="m376 160h-16c-8.837 0-16-7.163-16-16 0-8.837 7.163-16 16-16h16c8.837 0 16 7.163 16 16 0 8.837-7.163 16-16 16z" fill="#f5871e"/></g></g></g><g><g><path d="m288 112v228.686c0 6.248-5.065 11.314-11.314 11.314h-32c-3.001 0-5.878-1.192-8-3.314l-44.686-44.686h-144c-17.673 0-32-14.327-32-32v-160c0-17.673 14.327-32 32-32h208c17.673 0 32 14.327 32 32z" fill="#463c4b"/></g><g><path d="m256 112v228.686c0 6.248-5.065 11.314-11.314 11.314-3.001 0-5.878-1.192-8-3.314l-44.686-44.686h-144c-17.673 0-32-14.327-32-32v-160c0-17.673 14.327-32 32-32h176c17.673 0 32 14.327 32 32z" fill="#555a6e"/></g></g><g><g><path d="m192 160c0-30.582-24.514-55.438-54.965-55.991-30.654-.556-56.383 24.143-57.023 54.795-.355 17.031 6.901 32.368 18.594 42.864 3.408 3.059 5.394 7.392 5.394 11.971v18.361h64v-18.362c0-4.569 1.972-8.901 5.373-11.951 11.431-10.251 18.627-25.125 18.627-41.687z" fill="#f5871e"/></g><g><path d="m152 264h-32c-8.837 0-16-7.163-16-16v-16h64v16c0 8.836-7.163 16-16 16z" fill="#b9af9b"/></g><g><path d="m136 264h-16c-8.837 0-16-7.163-16-16v-16h32z" fill="#f0e1cd"/></g><g><path d="m136 280c-8.837 0-16-7.163-16-16h32c0 8.836-7.163 16-16 16z" fill="#b9af9b"/></g><g><path d="m136 128v-23.983c-30.194.013-55.355 24.482-55.988 54.788-.008.401.008.796.008 1.196h23.98c17.673-.001 32-14.328 32-32.001z" fill="#fabe19"/></g><g><path d="m224 168h-8c-4.418 0-8-3.582-8-8s3.582-8 8-8h8c4.418 0 8 3.582 8 8s-3.582 8-8 8z" fill="#fabe19"/></g><g><path d="m208 136c-2.048 0-4.095-.781-5.657-2.343-3.124-3.124-3.124-8.189 0-11.313l8-8c3.125-3.125 8.189-3.125 11.314 0 3.124 3.124 3.124 8.189 0 11.313l-8 8c-1.562 1.562-3.609 2.343-5.657 2.343z" fill="#fabe19"/></g><g><path d="m216 208c-2.048 0-4.095-.781-5.657-2.343l-8-8c-3.124-3.124-3.124-8.189 0-11.313 3.125-3.125 8.189-3.125 11.314 0l8 8c3.124 3.124 3.124 8.189 0 11.313-1.562 1.562-3.609 2.343-5.657 2.343z" fill="#fabe19"/></g><g><path d="m56 168h-8c-4.418 0-8-3.582-8-8s3.582-8 8-8h8c4.418 0 8 3.582 8 8s-3.582 8-8 8z" fill="#fabe19"/></g><g><path d="m64 136c-2.048 0-4.095-.781-5.657-2.343l-8-8c-3.124-3.124-3.124-8.189 0-11.313 3.125-3.125 8.189-3.125 11.314 0l8 8c3.124 3.124 3.124 8.189 0 11.313-1.562 1.562-3.609 2.343-5.657 2.343z" fill="#fabe19"/></g><g><path d="m56 208c-2.048 0-4.095-.781-5.657-2.343-3.124-3.124-3.124-8.189 0-11.313l8-8c3.125-3.125 8.189-3.125 11.314 0 3.124 3.124 3.124 8.189 0 11.313l-8 8c-1.562 1.562-3.609 2.343-5.657 2.343z" fill="#fabe19"/></g></g></g></svg>