<svg id="Layer_1" enable-background="new 0 0 66 66" height="512" viewBox="0 0 66 66" width="512" xmlns="http://www.w3.org/2000/svg"><g><g><g><path d="m2 12v48c0 2.21 1.79 4 4 4h54c2.21 0 4-1.79 4-4v-48z" fill="#e2e2e2"/></g><g opacity=".4"><path d="m30.72 39.78c0 3.66 2.96 6.62 6.62 6.62h26.66v-34.4h-33.28z" fill="#fff"/></g><g><path d="m64 6c0-2.21-1.79-4-4-4h-54c-2.21 0-4 1.79-4 4v6h62z" fill="#4e6575"/></g><g opacity=".2"><path d="m64 6c0-2.21-1.79-4-4-4h-23.07v3.12c0 1.9 1.54 3.44 3.44 3.44h23.63z" fill="#e2e2e2"/></g><g><path d="m54 34h6v26h-6z" fill="#ef4a51"/></g><g opacity=".25"><path d="m56.61 55.61c0 .98.79 1.77 1.77 1.77h1.62v-23.38h-3.39z" fill="#e2e2e2"/></g><g><path d="m44 42h6v18h-6z" fill="#7cb5e8"/></g><g><path d="m34 50h6v10h-6z" fill="#ffab03"/></g><g><path d="m8.93 49.07c1.81 1.81 4.31 2.93 7.07 2.93 5.52 0 10-4.48 10-10h-10z" fill="#4e6575"/></g><g><path d="m16 32c-5.52 0-10 4.48-10 10 0 2.76 1.12 5.26 2.93 7.07l7.07-7.07z" fill="#ef4a51"/></g><g><path d="m16 32v10h10c0-5.52-4.48-10-10-10z" fill="#ffab03"/></g><g><path d="m6 56h4v4h-4z" fill="#8aba55"/></g><g><path d="m14 56h4v4h-4z" fill="#8aba55"/></g><g><path d="m22 56h4v4h-4z" fill="#8aba55"/></g><g opacity=".25"><path d="m46.61 55.61c0 .98.79 1.77 1.77 1.77h1.62v-15.38h-3.39z" fill="#fff"/></g><g opacity=".25"><path d="m36.61 55.61c0 .98.79 1.77 1.77 1.77h1.62v-7.38h-3.39z" fill="#fff"/></g><g opacity=".4"><path d="m36.93 12c0 2.1 1.7 3.8 3.8 3.8h15.67c2.1 0 3.8 1.7 3.8 3.8v5.16c0 2.1 1.7 3.8 3.8 3.8v-16.56z" fill="#fff"/></g><g><path d="m6 16h54v12h-54z" fill="#7cb5e8"/></g><g opacity=".25"><path d="m22 19.38c0 1.93 1.56 3.49 3.49 3.49h34.51v-6.87h-38z" fill="#fff"/></g></g><g><g><circle cx="8.41" cy="7" fill="#ffab03" r="1"/></g><g><circle cx="12.41" cy="7" fill="#ffab03" r="1"/></g><g><circle cx="16.41" cy="7" fill="#ffab03" r="1"/></g><g><path d="m47 32.75h-16c-.41 0-.75-.34-.75-.75s.34-.75.75-.75h16c.41 0 .75.34.75.75s-.34.75-.75.75z" fill="#4e6575"/></g><g><path d="m47 36.75h-16c-.41 0-.75-.34-.75-.75s.34-.75.75-.75h16c.41 0 .75.34.75.75s-.34.75-.75.75z" fill="#4e6575"/></g><g><path d="m37 40.75h-6c-.41 0-.75-.34-.75-.75s.34-.75.75-.75h6c.41 0 .75.34.75.75s-.34.75-.75.75z" fill="#4e6575"/></g></g></g></svg>