<svg id="Layer_1" height="512" viewBox="0 0 301.1669 253.1073" width="512" xmlns="http://www.w3.org/2000/svg"><g><path d="m193.9532 194.7001 54.8849-30.8784c2.6368-1.4835 2.2091-5.4042-.6856-6.2842l-43.583-13.2498c-1.8735-.5696-3.8436.5388-4.3295 2.4358l-11.3019 44.1282c-.7506 2.9309 2.3782 5.332 5.0151 3.8484z"/><path d="m299.9815 210.3372-50.6286-39.0365c-1.3314-1.0264-3.2428-.7793-4.2693.552l-18.6306 24.1631c-1.0265 1.3313-.7794 3.2428.5519 4.2693l5.7793 4.4561h-44.3729c-1.6812 0-3.0439 1.3628-3.0439 3.0439v5.7225h18.6044c3.333 0 6.0439 2.7114 6.0439 6.0444v21.7886h8.0215v-22.7163c0-3.333 2.7109-6.0444 6.0439-6.0444h63.9306c3.333 0 6.0439 2.7114 6.0439 6.0444v4.3834l6.4776-8.4012c1.0267-1.3315.7796-3.2429-.5517-4.2693z"/><path d="m140.0421 213.5076h32.2952v-11.9863c0-1.6812-1.3629-3.0441-3.0439-3.0441h-63.9305c-1.6811 0-3.0439 1.3629-3.0439 3.0441v30.5116c0 1.681 1.3629 3.0439 3.0439 3.0439h28.6353v-15.5248c0-3.333 2.7109-6.0444 6.0439-6.0444z"/><path d="m169.2933 156.7606h-63.9305c-1.6811 0-3.0439 1.3628-3.0439 3.0439v30.5116c0 1.681 1.3629 3.0439 3.0439 3.0439h63.9305c1.6811 0 3.0439-1.3629 3.0439-3.0439v-30.5116c.0001-1.6811-1.3628-3.0439-3.0439-3.0439z"/><path d="m172.3373 118.088c0-1.6812-1.3629-3.0439-3.0439-3.0439h-63.9305c-1.6811 0-3.0439 1.3628-3.0439 3.0439v30.5115c0 1.6812 1.3629 3.0439 3.0439 3.0439h63.9305c1.6811 0 3.0439-1.3628 3.0439-3.0439z"/><path d="m102.3189 106.8829c0 1.6812 1.3629 3.0439 3.0439 3.0439h63.9305c1.6811 0 3.0439-1.3628 3.0439-3.0439v-30.5115c0-1.6812-1.3629-3.0439-3.0439-3.0439h-61.0531l-5.9213 3.5289z"/><circle cx="48.85" cy="22.5" r="22.5"/><path d="m16.8311 63.1926c1.7959-3.3599 5.2793-5.4468 9.0918-5.4468 1.6807 0 3.3564.4204 4.8467 1.2163l32.3398 17.2808 38.5996-23.0039c1.5967-.9512 3.418-1.4536 5.2666-1.4536 3.6133 0 7.0059 1.9268 8.8545 5.0278.4874.8181.8372 1.6788 1.0768 2.5557l45.8042-26.4451c1.4559-.8406 1.9547-2.7022 1.1141-4.1581l-15.2557-26.4238c-.8406-1.4559-2.7022-1.9548-4.1581-1.1142l-55.3654 31.9652c-1.4559.8406-1.9548 2.7022-1.1142 4.1581l6.028 10.4407-26.9373 15.4157-31.5171-15.6104c-.6599-.327-1.3438-.5457-2.0334-.6794-.2121-.067-.4252-.132-.6436-.1865-8.5371-2.129-20.9121 2.5078-25.9473 17.1503-6.8046 20.174-8.2675 33.3048-5.6815 55.5196 1.9562 10.0667 7.0027 14.4854 12.7502 16.355l7.6142 32.3606-4.3491 55.7598c-.5366 6.8828 4.6079 12.8975 11.4907 13.4336.3306.0264.6587.0391.9854.0391 6.4619-.001 11.9375-4.9775 12.4487-11.5293l4.5-57.7002c.1001-1.2852.001-2.5791-.2944-3.835l-9.2933-39.4983c-.0085-.8718-.0394-1.7986-.0985-2.7993-1.5212-11.3467.0817-23.9417 2.1332-35.2242l-18.0261-9.6318c-5.0088-2.6767-6.9063-8.9292-4.2295-13.9384z"/><path d="m113.8545 57.9909c-2.2617-3.7944-7.1689-5.0391-10.9678-2.7764l-39.7158 23.669-33.4853-17.8926c-3.8965-2.0811-8.7432-.6113-10.8262 3.2856-2.082 3.8965-.6113 8.7437 3.2852 10.8257l37.4707 20.022c1.1797.6304 2.4756.9443 3.7705.9443 1.4189 0 2.8359-.377 4.0957-1.1279l43.5967-25.9819c3.7949-2.2617 5.038-7.1724 2.7763-10.9678z"/><path d="m207.0162 219.5518c0-1.6812-1.3629-3.0439-3.0439-3.0439h-63.9304c-1.6812 0-3.044 1.3628-3.044 3.0439v30.5116c0 1.6812 1.3629 3.0439 3.044 3.0439h63.9304c1.6811 0 3.0439-1.3628 3.0439-3.0439z"/><path d="m291.0554 218.624c0-1.681-1.3628-3.0439-3.0439-3.0439h-63.9305c-1.6812 0-3.044 1.3629-3.044 3.0439v30.5116c0 1.6812 1.3629 3.0439 3.044 3.0439h63.9304c1.6812 0 3.0439-1.3628 3.0439-3.0439v-30.5116z"/></g></svg>