<svg id="Layer_1" viewBox="0 0 512 512" xmlns="http://www.w3.org/2000/svg" data-name="Layer 1"><rect fill="#dcae59" height="323.588" rx="15.192" width="323.42" x="16.01" y="16.007"/><g fill-rule="evenodd"><path d="m128.094 16.008h99.252v121.345l-49.626-32.013-49.626 32.013z" fill="#ecedff"/><path d="m182.85 440.828 61.564 3.727 34.01 51.452 78.011-190.299-17.005-25.726-30.782-1.863z" fill="#f04680"/><path d="m496.01 440.828-61.564 3.727-34.009 51.452-78.011-190.299 17.004-25.726 30.782-1.863z" fill="#f04680"/><path d="m339.43 145.059a157.8 157.8 0 0 1 44.912 26.5 157.824 157.824 0 0 1 50.493 13.022 157.833 157.833 0 0 1 13.023 50.493 157.865 157.865 0 0 1 26.5 44.912 157.837 157.837 0 0 1 -26.5 44.912 157.833 157.833 0 0 1 -13.023 50.493 157.828 157.828 0 0 1 -50.5 13.031 157.8 157.8 0 0 1 -44.9 26.487 157.856 157.856 0 0 1 -44.925-26.5 157.833 157.833 0 0 1 -50.48-13.021 157.825 157.825 0 0 1 -13.03-50.503 157.8 157.8 0 0 1 -26.489-44.9 157.774 157.774 0 0 1 26.5-44.92 157.835 157.835 0 0 1 13.021-50.485 157.833 157.833 0 0 1 50.48-13.021 157.838 157.838 0 0 1 44.918-26.5z" fill="#f4d362"/></g><circle cx="339.431" cy="279.982" fill="#ecedff" r="78.444" transform="matrix(.087 -.996 .996 .087 31.02 593.806)"/><path d="m245.884 364.133 2.683 6.713a151.348 151.348 0 0 0 46.454 11.586v.009a5.959 5.959 0 0 1 3.329 1.373 151.95 151.95 0 0 0 41.081 24.654 151.887 151.887 0 0 0 40.806-24.433 5.97 5.97 0 0 1 3.581-1.594 151.331 151.331 0 0 0 46.477-11.595c6.243-15.624 10.1-29.5 11.587-46.467h.009a5.966 5.966 0 0 1 1.374-3.329 151.909 151.909 0 0 0 24.652-41.068 151.912 151.912 0 0 0 -24.44-40.814 5.976 5.976 0 0 1 -1.6-3.582 151.315 151.315 0 0 0 -11.587-46.467 151.315 151.315 0 0 0 -46.467-11.587v-.009a5.961 5.961 0 0 1 -3.329-1.374 151.929 151.929 0 0 0 -41.064-24.649 151.868 151.868 0 0 0 -40.83 24.438 5.976 5.976 0 0 1 -3.582 1.595 151.327 151.327 0 0 0 -46.454 11.586 151.293 151.293 0 0 0 -11.586 46.459h-.009a5.961 5.961 0 0 1 -1.374 3.329 151.823 151.823 0 0 0 -24.653 41.076 149.927 149.927 0 0 0 10.046 20.417 153.778 153.778 0 0 0 14.39 20.389 5.977 5.977 0 0 1 1.6 3.581c1.147 13.074 4.166 27.739 8.911 39.763zm51.841-79.941a6 6 0 0 1 8.484-8.484l20.755 20.755 45.687-45.687a6 6 0 1 1 8.484 8.484l-49.929 49.929a6 6 0 0 1 -8.484 0l-25-25zm41.7-88.654a84.445 84.445 0 1 1 -84.444 84.444 84.447 84.447 0 0 1 84.444-84.444zm0 12a72.445 72.445 0 1 1 -72.444 72.444 72.443 72.443 0 0 1 72.444-72.444zm-111.353 138.062h-196.872a21.24 21.24 0 0 1 -21.19-21.2v-293.2a21.24 21.24 0 0 1 21.19-21.193h293.039a21.239 21.239 0 0 1 21.191 21.193v109.8a164.209 164.209 0 0 1 41.3 24.757 164.625 164.625 0 0 1 50.543 13.362 5.961 5.961 0 0 1 3.023 3.024 164.591 164.591 0 0 1 13.363 50.543 163.945 163.945 0 0 1 26.3 45.166 5.972 5.972 0 0 1 0 4.266 163.92 163.92 0 0 1 -26.3 45.166 165.577 165.577 0 0 1 -8.423 38.095l55.509 71.8a6.007 6.007 0 0 1 -4.384 9.628l-58.57 3.545-32.363 48.962a5.987 5.987 0 0 1 -10.633-1.3l-35.151-85.747a161.353 161.353 0 0 1 -18.082 8.24 5.975 5.975 0 0 1 -4.265 0 161.8 161.8 0 0 1 -18.083-8.238l-35.15 85.745a5.987 5.987 0 0 1 -10.633 1.3l-32.362-48.964-58.57-3.545a6.007 6.007 0 0 1 -4.383-9.628l55.508-71.8a164.711 164.711 0 0 1 -5.552-19.781zm105.358-204.6a164.133 164.133 0 0 0 -41.312 24.759 164.587 164.587 0 0 0 -50.53 13.361 5.958 5.958 0 0 0 -3.024 3.023 164.654 164.654 0 0 0 -13.364 50.531 163.848 163.848 0 0 0 -26.3 45.176 5.97 5.97 0 0 0 0 4.265 162 162 0 0 0 11.77 24.378 165.54 165.54 0 0 0 14.53 20.779q.312 3.146.754 6.323h-194.754a9.233 9.233 0 0 1 -9.19-9.195v-293.2a9.233 9.233 0 0 1 9.19-9.192h90.892v115.345h.011a6 6 0 0 0 9.223 5.039l46.392-29.926 46.057 29.71a6 6 0 0 0 9.57-4.823v-115.345h90.892a9.233 9.233 0 0 1 9.193 9.192zm106.648 237.264 44.279 57.272-50.257 3.042a5.978 5.978 0 0 0 -4.663 2.706l-27.753 41.987-31.591-77.063a165.766 165.766 0 0 0 16.631-11.989 164.635 164.635 0 0 0 50.554-13.371 5.951 5.951 0 0 0 2.8-2.584zm-131.306 27.948-31.59 77.059-27.753-41.987a5.981 5.981 0 0 0 -4.663-2.706l-50.266-3.042 44.28-57.272a5.943 5.943 0 0 0 2.805 2.584 164.622 164.622 0 0 0 50.53 13.361 165.545 165.545 0 0 0 16.654 12zm-87.426-384.2h-87.252v104.345l40.287-25.989a5.991 5.991 0 0 1 6.573-.067l40.392 26.056z" fill="#440a29" fill-rule="evenodd"/></svg>